<?xml version="1.0" encoding="utf-8" standalone="no"?>
<!DOCTYPE svg PUBLIC "-//W3C//DTD SVG 1.1//EN"
  "http://www.w3.org/Graphics/SVG/1.1/DTD/svg11.dtd">
<svg xmlns:xlink="http://www.w3.org/1999/xlink" width="864pt" height="360pt" viewBox="0 0 864 360" xmlns="http://www.w3.org/2000/svg" version="1.1">
 <metadata>
  <rdf:RDF xmlns:dc="http://purl.org/dc/elements/1.1/" xmlns:cc="http://creativecommons.org/ns#" xmlns:rdf="http://www.w3.org/1999/02/22-rdf-syntax-ns#">
   <cc:Work>
    <dc:type rdf:resource="http://purl.org/dc/dcmitype/StillImage"/>
    <dc:date>2026-05-07T19:40:10.357879</dc:date>
    <dc:format>image/svg+xml</dc:format>
    <dc:creator>
     <cc:Agent>
      <dc:title>Matplotlib v3.10.9, https://matplotlib.org/</dc:title>
     </cc:Agent>
    </dc:creator>
   </cc:Work>
  </rdf:RDF>
 </metadata>
 <defs>
  <style type="text/css">*{stroke-linejoin: round; stroke-linecap: butt}</style>
 </defs>
 <g id="figure_1">
  <g id="patch_1">
   <path d="M 0 360 
L 864 360 
L 864 0 
L 0 0 
z
" style="fill: #ffffff"/>
  </g>
  <g id="axes_1">
   <g id="patch_2">
    <path d="M 40.44 320.82 
L 713.708 320.82 
L 713.708 38.76 
L 40.44 38.76 
z
" style="fill: #ffffff"/>
   </g>
   <g id="matplotlib.axis_1">
    <g id="xtick_1">
     <g id="line2d_1">
      <path d="M 71.043091 320.82 
L 71.043091 38.76 
" clip-path="url(#pc858eddd5d)" style="fill: none; stroke: #cccccc; stroke-width: 0.8; stroke-linecap: round"/>
     </g>
     <g id="line2d_2"/>
     <g id="text_1">
      <!-- 0 -->
      <g style="fill: #262626" transform="translate(68.262622 331.566875) scale(0.1 -0.1)">
       <defs>
        <path id="LiberationSans-30" d="M 3309 2203 
Q 3309 1100 2920 518 
Q 2531 -63 1772 -63 
Q 1013 -63 631 515 
Q 250 1094 250 2203 
Q 250 3338 620 3903 
Q 991 4469 1791 4469 
Q 2569 4469 2939 3897 
Q 3309 3325 3309 2203 
z
M 2738 2203 
Q 2738 3156 2517 3584 
Q 2297 4013 1791 4013 
Q 1272 4013 1045 3591 
Q 819 3169 819 2203 
Q 819 1266 1048 831 
Q 1278 397 1778 397 
Q 2275 397 2506 840 
Q 2738 1284 2738 2203 
z
" transform="scale(0.015625)"/>
       </defs>
       <use xlink:href="#LiberationSans-30"/>
      </g>
     </g>
    </g>
    <g id="xtick_2">
     <g id="line2d_3">
      <path d="M 173.053394 320.82 
L 173.053394 38.76 
" clip-path="url(#pc858eddd5d)" style="fill: none; stroke: #cccccc; stroke-width: 0.8; stroke-linecap: round"/>
     </g>
     <g id="line2d_4"/>
     <g id="text_2">
      <!-- 5 -->
      <g style="fill: #262626" transform="translate(170.272925 331.566875) scale(0.1 -0.1)">
       <defs>
        <path id="LiberationSans-35" d="M 3291 1434 
Q 3291 738 2877 337 
Q 2463 -63 1728 -63 
Q 1113 -63 734 206 
Q 356 475 256 984 
L 825 1050 
Q 1003 397 1741 397 
Q 2194 397 2450 670 
Q 2706 944 2706 1422 
Q 2706 1838 2448 2094 
Q 2191 2350 1753 2350 
Q 1525 2350 1328 2278 
Q 1131 2206 934 2034 
L 384 2034 
L 531 4403 
L 3034 4403 
L 3034 3925 
L 1044 3925 
L 959 2528 
Q 1325 2809 1869 2809 
Q 2519 2809 2905 2428 
Q 3291 2047 3291 1434 
z
" transform="scale(0.015625)"/>
       </defs>
       <use xlink:href="#LiberationSans-35"/>
      </g>
     </g>
    </g>
    <g id="xtick_3">
     <g id="line2d_5">
      <path d="M 275.063697 320.82 
L 275.063697 38.76 
" clip-path="url(#pc858eddd5d)" style="fill: none; stroke: #cccccc; stroke-width: 0.8; stroke-linecap: round"/>
     </g>
     <g id="line2d_6"/>
     <g id="text_3">
      <!-- 10 -->
      <g style="fill: #262626" transform="translate(269.502759 331.566875) scale(0.1 -0.1)">
       <defs>
        <path id="LiberationSans-31" d="M 488 0 
L 488 478 
L 1609 478 
L 1609 3866 
L 616 3156 
L 616 3688 
L 1656 4403 
L 2175 4403 
L 2175 478 
L 3247 478 
L 3247 0 
L 488 0 
z
" transform="scale(0.015625)"/>
       </defs>
       <use xlink:href="#LiberationSans-31"/>
       <use xlink:href="#LiberationSans-30" transform="translate(55.615234 0)"/>
      </g>
     </g>
    </g>
    <g id="xtick_4">
     <g id="line2d_7">
      <path d="M 377.074 320.82 
L 377.074 38.76 
" clip-path="url(#pc858eddd5d)" style="fill: none; stroke: #cccccc; stroke-width: 0.8; stroke-linecap: round"/>
     </g>
     <g id="line2d_8"/>
     <g id="text_4">
      <!-- 15 -->
      <g style="fill: #262626" transform="translate(371.513062 331.566875) scale(0.1 -0.1)">
       <use xlink:href="#LiberationSans-31"/>
       <use xlink:href="#LiberationSans-35" transform="translate(55.615234 0)"/>
      </g>
     </g>
    </g>
    <g id="xtick_5">
     <g id="line2d_9">
      <path d="M 479.084303 320.82 
L 479.084303 38.76 
" clip-path="url(#pc858eddd5d)" style="fill: none; stroke: #cccccc; stroke-width: 0.8; stroke-linecap: round"/>
     </g>
     <g id="line2d_10"/>
     <g id="text_5">
      <!-- 20 -->
      <g style="fill: #262626" transform="translate(473.523366 331.566875) scale(0.1 -0.1)">
       <defs>
        <path id="LiberationSans-32" d="M 322 0 
L 322 397 
Q 481 763 711 1042 
Q 941 1322 1194 1548 
Q 1447 1775 1695 1969 
Q 1944 2163 2144 2356 
Q 2344 2550 2467 2762 
Q 2591 2975 2591 3244 
Q 2591 3606 2378 3806 
Q 2166 4006 1788 4006 
Q 1428 4006 1195 3811 
Q 963 3616 922 3263 
L 347 3316 
Q 409 3844 795 4156 
Q 1181 4469 1788 4469 
Q 2453 4469 2811 4155 
Q 3169 3841 3169 3263 
Q 3169 3006 3051 2753 
Q 2934 2500 2703 2247 
Q 2472 1994 1819 1463 
Q 1459 1169 1246 933 
Q 1034 697 941 478 
L 3238 478 
L 3238 0 
L 322 0 
z
" transform="scale(0.015625)"/>
       </defs>
       <use xlink:href="#LiberationSans-32"/>
       <use xlink:href="#LiberationSans-30" transform="translate(55.615234 0)"/>
      </g>
     </g>
    </g>
    <g id="xtick_6">
     <g id="line2d_11">
      <path d="M 581.094606 320.82 
L 581.094606 38.76 
" clip-path="url(#pc858eddd5d)" style="fill: none; stroke: #cccccc; stroke-width: 0.8; stroke-linecap: round"/>
     </g>
     <g id="line2d_12"/>
     <g id="text_6">
      <!-- 25 -->
      <g style="fill: #262626" transform="translate(575.533669 331.566875) scale(0.1 -0.1)">
       <use xlink:href="#LiberationSans-32"/>
       <use xlink:href="#LiberationSans-35" transform="translate(55.615234 0)"/>
      </g>
     </g>
    </g>
    <g id="xtick_7">
     <g id="line2d_13">
      <path d="M 683.104909 320.82 
L 683.104909 38.76 
" clip-path="url(#pc858eddd5d)" style="fill: none; stroke: #cccccc; stroke-width: 0.8; stroke-linecap: round"/>
     </g>
     <g id="line2d_14"/>
     <g id="text_7">
      <!-- 30 -->
      <g style="fill: #262626" transform="translate(677.543972 331.566875) scale(0.1 -0.1)">
       <defs>
        <path id="LiberationSans-33" d="M 3278 1216 
Q 3278 606 2890 271 
Q 2503 -63 1784 -63 
Q 1116 -63 717 239 
Q 319 541 244 1131 
L 825 1184 
Q 938 403 1784 403 
Q 2209 403 2451 612 
Q 2694 822 2694 1234 
Q 2694 1594 2417 1795 
Q 2141 1997 1619 1997 
L 1300 1997 
L 1300 2484 
L 1606 2484 
Q 2069 2484 2323 2686 
Q 2578 2888 2578 3244 
Q 2578 3597 2370 3801 
Q 2163 4006 1753 4006 
Q 1381 4006 1151 3815 
Q 922 3625 884 3278 
L 319 3322 
Q 381 3863 767 4166 
Q 1153 4469 1759 4469 
Q 2422 4469 2789 4161 
Q 3156 3853 3156 3303 
Q 3156 2881 2920 2617 
Q 2684 2353 2234 2259 
L 2234 2247 
Q 2728 2194 3003 1916 
Q 3278 1638 3278 1216 
z
" transform="scale(0.015625)"/>
       </defs>
       <use xlink:href="#LiberationSans-33"/>
       <use xlink:href="#LiberationSans-30" transform="translate(55.615234 0)"/>
      </g>
     </g>
    </g>
    <g id="text_8">
     <!-- Iteration Step -->
     <g style="fill: #262626" transform="translate(341.387125 346.338125) scale(0.12 -0.12)">
      <defs>
       <path id="LiberationSans-49" d="M 591 0 
L 591 4403 
L 1188 4403 
L 1188 0 
L 591 0 
z
" transform="scale(0.015625)"/>
       <path id="LiberationSans-74" d="M 1731 25 
Q 1453 -50 1163 -50 
Q 488 -50 488 716 
L 488 2972 
L 97 2972 
L 97 3381 
L 509 3381 
L 675 4138 
L 1050 4138 
L 1050 3381 
L 1675 3381 
L 1675 2972 
L 1050 2972 
L 1050 838 
Q 1050 594 1129 495 
Q 1209 397 1406 397 
Q 1519 397 1731 441 
L 1731 25 
z
" transform="scale(0.015625)"/>
       <path id="LiberationSans-65" d="M 863 1572 
Q 863 991 1103 675 
Q 1344 359 1806 359 
Q 2172 359 2392 506 
Q 2613 653 2691 878 
L 3184 738 
Q 2881 -63 1806 -63 
Q 1056 -63 664 384 
Q 272 831 272 1713 
Q 272 2550 664 2997 
Q 1056 3444 1784 3444 
Q 3275 3444 3275 1647 
L 3275 1572 
L 863 1572 
z
M 2694 2003 
Q 2647 2538 2422 2783 
Q 2197 3028 1775 3028 
Q 1366 3028 1127 2754 
Q 888 2481 869 2003 
L 2694 2003 
z
" transform="scale(0.015625)"/>
       <path id="LiberationSans-72" d="M 444 0 
L 444 2594 
Q 444 2950 425 3381 
L 956 3381 
Q 981 2806 981 2691 
L 994 2691 
Q 1128 3125 1303 3284 
Q 1478 3444 1797 3444 
Q 1909 3444 2025 3413 
L 2025 2897 
Q 1913 2928 1725 2928 
Q 1375 2928 1190 2626 
Q 1006 2325 1006 1763 
L 1006 0 
L 444 0 
z
" transform="scale(0.015625)"/>
       <path id="LiberationSans-61" d="M 1294 -63 
Q 784 -63 528 206 
Q 272 475 272 944 
Q 272 1469 617 1750 
Q 963 2031 1731 2050 
L 2491 2063 
L 2491 2247 
Q 2491 2659 2316 2837 
Q 2141 3016 1766 3016 
Q 1388 3016 1216 2887 
Q 1044 2759 1009 2478 
L 422 2531 
Q 566 3444 1778 3444 
Q 2416 3444 2737 3151 
Q 3059 2859 3059 2306 
L 3059 850 
Q 3059 600 3125 473 
Q 3191 347 3375 347 
Q 3456 347 3559 369 
L 3559 19 
Q 3347 -31 3125 -31 
Q 2813 -31 2670 133 
Q 2528 297 2509 647 
L 2491 647 
Q 2275 259 1989 98 
Q 1703 -63 1294 -63 
z
M 1422 359 
Q 1731 359 1972 500 
Q 2213 641 2352 886 
Q 2491 1131 2491 1391 
L 2491 1669 
L 1875 1656 
Q 1478 1650 1273 1575 
Q 1069 1500 959 1344 
Q 850 1188 850 934 
Q 850 659 998 509 
Q 1147 359 1422 359 
z
" transform="scale(0.015625)"/>
       <path id="LiberationSans-69" d="M 428 4100 
L 428 4638 
L 991 4638 
L 991 4100 
L 428 4100 
z
M 428 0 
L 428 3381 
L 991 3381 
L 991 0 
L 428 0 
z
" transform="scale(0.015625)"/>
       <path id="LiberationSans-6f" d="M 3291 1694 
Q 3291 806 2900 371 
Q 2509 -63 1766 -63 
Q 1025 -63 647 389 
Q 269 841 269 1694 
Q 269 3444 1784 3444 
Q 2559 3444 2925 3017 
Q 3291 2591 3291 1694 
z
M 2700 1694 
Q 2700 2394 2492 2711 
Q 2284 3028 1794 3028 
Q 1300 3028 1079 2704 
Q 859 2381 859 1694 
Q 859 1025 1076 689 
Q 1294 353 1759 353 
Q 2266 353 2483 678 
Q 2700 1003 2700 1694 
z
" transform="scale(0.015625)"/>
       <path id="LiberationSans-6e" d="M 2578 0 
L 2578 2144 
Q 2578 2478 2512 2662 
Q 2447 2847 2303 2928 
Q 2159 3009 1881 3009 
Q 1475 3009 1240 2731 
Q 1006 2453 1006 1959 
L 1006 0 
L 444 0 
L 444 2659 
Q 444 3250 425 3381 
L 956 3381 
Q 959 3366 962 3297 
Q 966 3228 970 3139 
Q 975 3050 981 2803 
L 991 2803 
Q 1184 3153 1439 3298 
Q 1694 3444 2072 3444 
Q 2628 3444 2886 3167 
Q 3144 2891 3144 2253 
L 3144 0 
L 2578 0 
z
" transform="scale(0.015625)"/>
       <path id="LiberationSans-20" transform="scale(0.015625)"/>
       <path id="LiberationSans-53" d="M 3975 1216 
Q 3975 606 3498 271 
Q 3022 -63 2156 -63 
Q 547 -63 291 1056 
L 869 1172 
Q 969 775 1294 589 
Q 1619 403 2178 403 
Q 2756 403 3070 601 
Q 3384 800 3384 1184 
Q 3384 1400 3286 1534 
Q 3188 1669 3009 1756 
Q 2831 1844 2584 1903 
Q 2338 1963 2038 2031 
Q 1516 2147 1245 2262 
Q 975 2378 819 2520 
Q 663 2663 580 2853 
Q 497 3044 497 3291 
Q 497 3856 930 4162 
Q 1363 4469 2169 4469 
Q 2919 4469 3316 4239 
Q 3713 4009 3872 3456 
L 3284 3353 
Q 3188 3703 2916 3861 
Q 2644 4019 2163 4019 
Q 1634 4019 1356 3844 
Q 1078 3669 1078 3322 
Q 1078 3119 1186 2986 
Q 1294 2853 1497 2761 
Q 1700 2669 2306 2534 
Q 2509 2488 2711 2439 
Q 2913 2391 3097 2323 
Q 3281 2256 3442 2165 
Q 3603 2075 3722 1944 
Q 3841 1813 3908 1634 
Q 3975 1456 3975 1216 
z
" transform="scale(0.015625)"/>
       <path id="LiberationSans-70" d="M 3291 1706 
Q 3291 -63 2047 -63 
Q 1266 -63 997 525 
L 981 525 
Q 994 500 994 -6 
L 994 -1328 
L 431 -1328 
L 431 2691 
Q 431 3213 413 3381 
L 956 3381 
Q 959 3369 965 3292 
Q 972 3216 980 3056 
Q 988 2897 988 2838 
L 1000 2838 
Q 1150 3150 1397 3295 
Q 1644 3441 2047 3441 
Q 2672 3441 2981 3022 
Q 3291 2603 3291 1706 
z
M 2700 1694 
Q 2700 2400 2509 2703 
Q 2319 3006 1903 3006 
Q 1569 3006 1380 2865 
Q 1191 2725 1092 2426 
Q 994 2128 994 1650 
Q 994 984 1206 668 
Q 1419 353 1897 353 
Q 2316 353 2508 661 
Q 2700 969 2700 1694 
z
" transform="scale(0.015625)"/>
      </defs>
      <use xlink:href="#LiberationSans-49"/>
      <use xlink:href="#LiberationSans-74" transform="translate(27.783203 0)"/>
      <use xlink:href="#LiberationSans-65" transform="translate(55.566406 0)"/>
      <use xlink:href="#LiberationSans-72" transform="translate(111.181641 0)"/>
      <use xlink:href="#LiberationSans-61" transform="translate(144.482422 0)"/>
      <use xlink:href="#LiberationSans-74" transform="translate(200.097656 0)"/>
      <use xlink:href="#LiberationSans-69" transform="translate(227.880859 0)"/>
      <use xlink:href="#LiberationSans-6f" transform="translate(250.097656 0)"/>
      <use xlink:href="#LiberationSans-6e" transform="translate(305.712891 0)"/>
      <use xlink:href="#LiberationSans-20" transform="translate(361.328125 0)"/>
      <use xlink:href="#LiberationSans-53" transform="translate(389.111328 0)"/>
      <use xlink:href="#LiberationSans-74" transform="translate(455.810547 0)"/>
      <use xlink:href="#LiberationSans-65" transform="translate(483.59375 0)"/>
      <use xlink:href="#LiberationSans-70" transform="translate(539.208984 0)"/>
     </g>
    </g>
   </g>
   <g id="matplotlib.axis_2">
    <g id="ytick_1">
     <g id="line2d_15">
      <path d="M 40.44 320.82 
L 713.708 320.82 
" clip-path="url(#pc858eddd5d)" style="fill: none; stroke: #cccccc; stroke-width: 0.8; stroke-linecap: round"/>
     </g>
     <g id="line2d_16"/>
     <g id="text_9">
      <!-- −1 -->
      <g style="fill: #262626" transform="translate(25.538437 324.443438) scale(0.1 -0.1)">
       <defs>
        <path id="LiberationSans-2212" d="M 316 1900 
L 316 2356 
L 3425 2356 
L 3425 1900 
L 316 1900 
z
" transform="scale(0.015625)"/>
       </defs>
       <use xlink:href="#LiberationSans-2212"/>
       <use xlink:href="#LiberationSans-31" transform="translate(58.398438 0)"/>
      </g>
     </g>
    </g>
    <g id="ytick_2">
     <g id="line2d_17">
      <path d="M 40.44 269.536364 
L 713.708 269.536364 
" clip-path="url(#pc858eddd5d)" style="fill: none; stroke: #cccccc; stroke-width: 0.8; stroke-linecap: round"/>
     </g>
     <g id="line2d_18"/>
     <g id="text_10">
      <!-- 0 -->
      <g style="fill: #262626" transform="translate(31.379062 273.159801) scale(0.1 -0.1)">
       <use xlink:href="#LiberationSans-30"/>
      </g>
     </g>
    </g>
    <g id="ytick_3">
     <g id="line2d_19">
      <path d="M 40.44 218.252727 
L 713.708 218.252727 
" clip-path="url(#pc858eddd5d)" style="fill: none; stroke: #cccccc; stroke-width: 0.8; stroke-linecap: round"/>
     </g>
     <g id="line2d_20"/>
     <g id="text_11">
      <!-- 1 -->
      <g style="fill: #262626" transform="translate(31.379062 221.876165) scale(0.1 -0.1)">
       <use xlink:href="#LiberationSans-31"/>
      </g>
     </g>
    </g>
    <g id="ytick_4">
     <g id="line2d_21">
      <path d="M 40.44 166.969091 
L 713.708 166.969091 
" clip-path="url(#pc858eddd5d)" style="fill: none; stroke: #cccccc; stroke-width: 0.8; stroke-linecap: round"/>
     </g>
     <g id="line2d_22"/>
     <g id="text_12">
      <!-- 2 -->
      <g style="fill: #262626" transform="translate(31.379062 170.592528) scale(0.1 -0.1)">
       <use xlink:href="#LiberationSans-32"/>
      </g>
     </g>
    </g>
    <g id="ytick_5">
     <g id="line2d_23">
      <path d="M 40.44 115.685455 
L 713.708 115.685455 
" clip-path="url(#pc858eddd5d)" style="fill: none; stroke: #cccccc; stroke-width: 0.8; stroke-linecap: round"/>
     </g>
     <g id="line2d_24"/>
     <g id="text_13">
      <!-- 3 -->
      <g style="fill: #262626" transform="translate(31.379062 119.308892) scale(0.1 -0.1)">
       <use xlink:href="#LiberationSans-33"/>
      </g>
     </g>
    </g>
    <g id="ytick_6">
     <g id="line2d_25">
      <path d="M 40.44 64.401818 
L 713.708 64.401818 
" clip-path="url(#pc858eddd5d)" style="fill: none; stroke: #cccccc; stroke-width: 0.8; stroke-linecap: round"/>
     </g>
     <g id="line2d_26"/>
     <g id="text_14">
      <!-- 4 -->
      <g style="fill: #262626" transform="translate(31.379062 68.025256) scale(0.1 -0.1)">
       <defs>
        <path id="LiberationSans-34" d="M 2753 997 
L 2753 0 
L 2222 0 
L 2222 997 
L 147 997 
L 147 1434 
L 2163 4403 
L 2753 4403 
L 2753 1441 
L 3372 1441 
L 3372 997 
L 2753 997 
z
M 2222 3769 
Q 2216 3750 2134 3603 
Q 2053 3456 2013 3397 
L 884 1734 
L 716 1503 
L 666 1441 
L 2222 1441 
L 2222 3769 
z
" transform="scale(0.015625)"/>
       </defs>
       <use xlink:href="#LiberationSans-34"/>
      </g>
     </g>
    </g>
    <g id="text_15">
     <!-- Coefficient Value -->
     <g style="fill: #262626" transform="translate(19.048437 224.600625) rotate(-90) scale(0.12 -0.12)">
      <defs>
       <path id="LiberationSans-43" d="M 2475 3981 
Q 1744 3981 1337 3511 
Q 931 3041 931 2222 
Q 931 1413 1354 920 
Q 1778 428 2500 428 
Q 3425 428 3891 1344 
L 4378 1100 
Q 4106 531 3614 234 
Q 3122 -63 2472 -63 
Q 1806 -63 1320 214 
Q 834 491 579 1005 
Q 325 1519 325 2222 
Q 325 3275 894 3872 
Q 1463 4469 2469 4469 
Q 3172 4469 3644 4194 
Q 4116 3919 4338 3378 
L 3772 3191 
Q 3619 3575 3280 3778 
Q 2941 3981 2475 3981 
z
" transform="scale(0.015625)"/>
       <path id="LiberationSans-66" d="M 1128 2972 
L 1128 0 
L 566 0 
L 566 2972 
L 91 2972 
L 91 3381 
L 566 3381 
L 566 3763 
Q 566 4225 769 4428 
Q 972 4631 1391 4631 
Q 1625 4631 1788 4594 
L 1788 4166 
Q 1647 4191 1538 4191 
Q 1322 4191 1225 4081 
Q 1128 3972 1128 3684 
L 1128 3381 
L 1788 3381 
L 1788 2972 
L 1128 2972 
z
" transform="scale(0.015625)"/>
       <path id="LiberationSans-63" d="M 859 1706 
Q 859 1031 1071 706 
Q 1284 381 1713 381 
Q 2013 381 2214 543 
Q 2416 706 2463 1044 
L 3031 1006 
Q 2966 519 2616 228 
Q 2266 -63 1728 -63 
Q 1019 -63 645 385 
Q 272 834 272 1694 
Q 272 2547 647 2995 
Q 1022 3444 1722 3444 
Q 2241 3444 2583 3175 
Q 2925 2906 3013 2434 
L 2434 2391 
Q 2391 2672 2212 2837 
Q 2034 3003 1706 3003 
Q 1259 3003 1059 2706 
Q 859 2409 859 1706 
z
" transform="scale(0.015625)"/>
       <path id="LiberationSans-56" d="M 2444 0 
L 1825 0 
L 28 4403 
L 656 4403 
L 1875 1303 
L 2138 525 
L 2400 1303 
L 3613 4403 
L 4241 4403 
L 2444 0 
z
" transform="scale(0.015625)"/>
       <path id="LiberationSans-6c" d="M 431 0 
L 431 4638 
L 994 4638 
L 994 0 
L 431 0 
z
" transform="scale(0.015625)"/>
       <path id="LiberationSans-75" d="M 981 3381 
L 981 1238 
Q 981 903 1047 718 
Q 1113 534 1256 453 
Q 1400 372 1678 372 
Q 2084 372 2318 650 
Q 2553 928 2553 1422 
L 2553 3381 
L 3116 3381 
L 3116 722 
Q 3116 131 3134 0 
L 2603 0 
Q 2600 16 2597 84 
Q 2594 153 2589 242 
Q 2584 331 2578 578 
L 2569 578 
Q 2375 228 2120 82 
Q 1866 -63 1488 -63 
Q 931 -63 673 214 
Q 416 491 416 1128 
L 416 3381 
L 981 3381 
z
" transform="scale(0.015625)"/>
      </defs>
      <use xlink:href="#LiberationSans-43"/>
      <use xlink:href="#LiberationSans-6f" transform="translate(72.216797 0)"/>
      <use xlink:href="#LiberationSans-65" transform="translate(127.832031 0)"/>
      <use xlink:href="#LiberationSans-66" transform="translate(183.447266 0)"/>
      <use xlink:href="#LiberationSans-66" transform="translate(209.480469 0)"/>
      <use xlink:href="#LiberationSans-69" transform="translate(237.263672 0)"/>
      <use xlink:href="#LiberationSans-63" transform="translate(259.480469 0)"/>
      <use xlink:href="#LiberationSans-69" transform="translate(309.480469 0)"/>
      <use xlink:href="#LiberationSans-65" transform="translate(331.697266 0)"/>
      <use xlink:href="#LiberationSans-6e" transform="translate(387.3125 0)"/>
      <use xlink:href="#LiberationSans-74" transform="translate(442.927734 0)"/>
      <use xlink:href="#LiberationSans-20" transform="translate(470.710938 0)"/>
      <use xlink:href="#LiberationSans-56" transform="translate(498.494141 0)"/>
      <use xlink:href="#LiberationSans-61" transform="translate(557.818359 0)"/>
      <use xlink:href="#LiberationSans-6c" transform="translate(613.433594 0)"/>
      <use xlink:href="#LiberationSans-75" transform="translate(635.650391 0)"/>
      <use xlink:href="#LiberationSans-65" transform="translate(691.265625 0)"/>
     </g>
    </g>
   </g>
   <g id="FillBetweenPolyCollection_1">
    <path d="M 71.043091 115.685455 
L 71.043091 423.387273 
L 91.445152 257.533982 
L 111.847212 189.134366 
L 132.249273 161.193549 
L 152.651333 142.346109 
L 173.053394 128.399865 
L 193.455455 117.793725 
L 213.857515 109.599438 
L 234.259576 103.187258 
L 254.661636 98.110897 
L 275.063697 94.045343 
L 295.465758 90.752036 
L 315.867818 88.052386 
L 336.269879 85.813835 
L 356.671939 83.935251 
L 377.074 82.341354 
L 397.476061 80.973306 
L 417.878121 79.786814 
L 438.280182 78.747546 
L 458.682242 77.828467 
L 479.084303 77.00906 
L 499.486364 76.272729 
L 519.888424 75.605754 
L 540.290485 74.998334 
L 560.692545 74.442342 
L 581.094606 73.929351 
L 601.496667 73.455433 
L 621.898727 73.014795 
L 642.300788 72.603933 
L 662.702848 72.219502 
L 683.104909 71.858317 
L 683.104909 43.885429 
L 683.104909 43.885429 
L 662.702848 43.772456 
L 642.300788 43.657777 
L 621.898727 43.542309 
L 601.496667 43.426809 
L 581.094606 43.311876 
L 560.692545 43.199923 
L 540.290485 43.091125 
L 519.888424 42.989361 
L 499.486364 42.897789 
L 479.084303 42.81994 
L 458.682242 42.762608 
L 438.280182 42.733812 
L 417.878121 42.743808 
L 397.476061 42.807611 
L 377.074 42.944225 
L 356.671939 43.179103 
L 336.269879 43.547767 
L 315.867818 44.094944 
L 295.465758 44.88258 
L 275.063697 45.990436 
L 254.661636 47.525055 
L 234.259576 49.623274 
L 213.857515 52.460611 
L 193.455455 56.253361 
L 173.053394 61.253857 
L 152.651333 67.717475 
L 132.249273 75.852407 
L 111.847212 86.567144 
L 91.445152 119.925545 
L 71.043091 115.685455 
z
" clip-path="url(#pc858eddd5d)" style="fill: #1f77b4; fill-opacity: 0.2; stroke: #1f77b4; stroke-opacity: 0.2"/>
   </g>
   <g id="FillBetweenPolyCollection_2">
    <path d="M 71.043091 115.685455 
L 71.043091 423.387273 
L 91.445152 328.08197 
L 111.847212 294.196871 
L 132.249273 301.202706 
L 152.651333 309.07505 
L 173.053394 315.384025 
L 193.455455 320.234168 
L 213.857515 323.923839 
L 234.259576 326.722178 
L 254.661636 328.844912 
L 275.063697 330.458132 
L 295.465758 331.68831 
L 315.867818 332.630266 
L 336.269879 333.354803 
L 356.671939 333.915304 
L 377.074 334.352296 
L 397.476061 334.695227 
L 417.878121 334.966644 
L 438.280182 335.182987 
L 458.682242 335.357262 
L 479.084303 335.499164 
L 499.486364 335.615593 
L 519.888424 335.712218 
L 540.290485 335.793219 
L 560.692545 335.861907 
L 581.094606 335.920563 
L 601.496667 335.971394 
L 621.898727 336.015504 
L 642.300788 336.054071 
L 662.702848 336.088713 
L 683.104909 336.118993 
L 683.104909 29.050924 
L 683.104909 29.050924 
L 662.702848 29.042228 
L 642.300788 29.030714 
L 621.898727 29.016973 
L 601.496667 28.999541 
L 581.094606 28.97755 
L 560.692545 28.95005 
L 540.290485 28.915144 
L 519.888424 28.871014 
L 499.486364 28.814814 
L 479.084303 28.742519 
L 458.682242 28.649542 
L 438.280182 28.529448 
L 417.878121 28.373472 
L 397.476061 28.170003 
L 377.074 27.903684 
L 356.671939 27.553985 
L 336.269879 27.093942 
L 315.867818 26.48613 
L 295.465758 25.681366 
L 275.063697 24.615062 
L 254.661636 23.200497 
L 234.259576 21.324132 
L 213.857515 18.839231 
L 193.455455 15.561507 
L 173.053394 11.277008 
L 152.651333 5.792799 
L 132.249273 -0.765047 
L 111.847212 -5.35239 
L 91.445152 34.374016 
L 71.043091 115.685455 
z
" clip-path="url(#pc858eddd5d)" style="fill: #2ca02c; fill-opacity: 0.2; stroke: #2ca02c; stroke-opacity: 0.2"/>
   </g>
   <g id="FillBetweenPolyCollection_3">
    <path d="M 71.043091 115.685455 
L 71.043091 423.387273 
L 91.445152 255.863225 
L 111.847212 348.108528 
L 132.249273 360.019518 
L 152.651333 364.991652 
L 173.053394 368.260975 
L 193.455455 370.640415 
L 213.857515 372.431541 
L 234.259576 373.804244 
L 254.661636 374.869994 
L 275.063697 375.706478 
L 295.465758 376.369887 
L 315.867818 376.901381 
L 336.269879 377.331658 
L 356.671939 377.683541 
L 377.074 377.974135 
L 397.476061 378.216852 
L 417.878121 378.421488 
L 438.280182 378.595788 
L 458.682242 378.74552 
L 479.084303 378.875456 
L 499.486364 378.989083 
L 519.888424 379.089323 
L 540.290485 379.17828 
L 560.692545 379.257826 
L 581.094606 379.329422 
L 601.496667 379.394121 
L 621.898727 379.453075 
L 642.300788 379.506823 
L 662.702848 379.55611 
L 683.104909 379.601601 
L 683.104909 72.112016 
L 683.104909 72.112016 
L 662.702848 72.073915 
L 642.300788 72.032327 
L 621.898727 71.986893 
L 601.496667 71.937023 
L 581.094606 71.882025 
L 560.692545 71.820899 
L 540.290485 71.752748 
L 519.888424 71.676265 
L 499.486364 71.58973 
L 479.084303 71.491042 
L 458.682242 71.377586 
L 438.280182 71.246182 
L 417.878121 71.092369 
L 397.476061 70.910839 
L 377.074 70.694157 
L 356.671939 70.433145 
L 336.269879 70.115468 
L 315.867818 69.725105 
L 295.465758 69.240465 
L 275.063697 68.633167 
L 254.661636 67.864986 
L 234.259576 66.884212 
L 213.857515 65.620115 
L 193.455455 63.972674 
L 173.053394 61.791972 
L 152.651333 58.815974 
L 132.249273 54.320123 
L 111.847212 43.316558 
L 91.445152 -46.532997 
L 71.043091 115.685455 
z
" clip-path="url(#pc858eddd5d)" style="fill: #d62728; fill-opacity: 0.2; stroke: #d62728; stroke-opacity: 0.2"/>
   </g>
   <g id="line2d_27">
    <path d="M 40.44 115.685455 
L 713.708 115.685455 
" clip-path="url(#pc858eddd5d)" style="fill: none; stroke: #000000; stroke-width: 2.5; stroke-linecap: round"/>
   </g>
   <g id="line2d_28">
    <path d="M 40.44 166.969091 
L 713.708 166.969091 
" clip-path="url(#pc858eddd5d)" style="fill: none; stroke: #000000; stroke-width: 2.5; stroke-linecap: round"/>
   </g>
   <g id="line2d_29">
    <path d="M 40.44 218.252727 
L 713.708 218.252727 
" clip-path="url(#pc858eddd5d)" style="fill: none; stroke: #000000; stroke-width: 2.5; stroke-linecap: round"/>
   </g>
   <g id="patch_3">
    <path d="M 40.44 320.82 
L 40.44 38.76 
" style="fill: none; stroke: #cccccc; stroke-linejoin: miter; stroke-linecap: square"/>
   </g>
   <g id="patch_4">
    <path d="M 713.708 320.82 
L 713.708 38.76 
" style="fill: none; stroke: #cccccc; stroke-linejoin: miter; stroke-linecap: square"/>
   </g>
   <g id="patch_5">
    <path d="M 40.44 320.82 
L 713.708 320.82 
" style="fill: none; stroke: #cccccc; stroke-linejoin: miter; stroke-linecap: square"/>
   </g>
   <g id="patch_6">
    <path d="M 40.44 38.76 
L 713.708 38.76 
" style="fill: none; stroke: #cccccc; stroke-linejoin: miter; stroke-linecap: square"/>
   </g>
   <g id="line2d_30">
    <path d="M 71.043091 269.536364 
L 91.445152 188.729763 
L 111.847212 137.850755 
L 132.249273 118.522978 
L 152.651333 105.031792 
L 173.053394 94.826861 
L 193.455455 87.023543 
L 213.857515 81.030024 
L 234.259576 76.405266 
L 254.661636 72.817976 
L 275.063697 70.017889 
L 295.465758 67.817308 
L 315.867818 66.073665 
L 336.269879 64.680801 
L 356.671939 63.557177 
L 377.074 62.642789 
L 397.476061 61.890459 
L 417.878121 61.265311 
L 438.280182 60.740679 
L 458.682242 60.295537 
L 479.084303 59.9145 
L 499.486364 59.585259 
L 519.888424 59.297558 
L 540.290485 59.04473 
L 560.692545 58.821133 
L 581.094606 58.620614 
L 601.496667 58.441121 
L 621.898727 58.278552 
L 642.300788 58.130855 
L 662.702848 57.995979 
L 683.104909 57.871873 
" clip-path="url(#pc858eddd5d)" style="fill: none; stroke: #1f77b4; stroke-width: 2; stroke-linecap: round"/>
   </g>
   <g id="line2d_31">
    <path d="M 71.043091 269.536364 
L 91.445152 181.227993 
L 111.847212 144.42224 
L 132.249273 150.21883 
L 152.651333 157.433924 
L 173.053394 163.330517 
L 193.455455 167.897838 
L 213.857515 171.381535 
L 234.259576 174.023155 
L 254.661636 176.022704 
L 275.063697 177.536597 
L 295.465758 178.684838 
L 315.867818 179.558198 
L 336.269879 180.224372 
L 356.671939 180.734645 
L 377.074 181.12799 
L 397.476061 181.432615 
L 417.878121 181.670058 
L 438.280182 181.856218 
L 458.682242 182.003402 
L 479.084303 182.120841 
L 499.486364 182.215203 
L 519.888424 182.291616 
L 540.290485 182.354182 
L 560.692545 182.405978 
L 581.094606 182.449057 
L 601.496667 182.485468 
L 621.898727 182.516238 
L 642.300788 182.542393 
L 662.702848 182.56547 
L 683.104909 182.584958 
" clip-path="url(#pc858eddd5d)" style="fill: none; stroke: #2ca02c; stroke-width: 2; stroke-linecap: round"/>
   </g>
   <g id="line2d_32">
    <path d="M 71.043091 269.536364 
L 91.445152 104.665114 
L 111.847212 195.712543 
L 132.249273 207.169821 
L 152.651333 211.903813 
L 173.053394 215.026474 
L 193.455455 217.306544 
L 213.857515 219.025828 
L 234.259576 220.344228 
L 254.661636 221.36749 
L 275.063697 222.169823 
L 295.465758 222.805176 
L 315.867818 223.313243 
L 336.269879 223.723563 
L 356.671939 224.058343 
L 377.074 224.334146 
L 397.476061 224.563845 
L 417.878121 224.756928 
L 438.280182 224.920985 
L 458.682242 225.061553 
L 479.084303 225.183249 
L 499.486364 225.289406 
L 519.888424 225.382794 
L 540.290485 225.465514 
L 560.692545 225.539363 
L 581.094606 225.605724 
L 601.496667 225.665572 
L 621.898727 225.719984 
L 642.300788 225.769575 
L 662.702848 225.815012 
L 683.104909 225.856808 
" clip-path="url(#pc858eddd5d)" style="fill: none; stroke: #d62728; stroke-width: 2; stroke-linecap: round"/>
   </g>
   <g id="text_16">
    <!-- Extended Kalman Filter (EKF): Parameter Convergence &amp; Credible Intervals ($\pm 3\sigma$) -->
    <g style="fill: #262626" transform="translate(65.874 23.76) scale(0.16 -0.16)">
     <defs>
      <path id="LiberationSans-Bold-45" d="M 428 0 
L 428 4403 
L 3891 4403 
L 3891 3691 
L 1350 3691 
L 1350 2584 
L 3700 2584 
L 3700 1872 
L 1350 1872 
L 1350 713 
L 4019 713 
L 4019 0 
L 428 0 
z
" transform="scale(0.015625)"/>
      <path id="LiberationSans-Bold-78" d="M 2559 0 
L 1772 1225 
L 978 0 
L 44 0 
L 1281 1747 
L 103 3381 
L 1050 3381 
L 1772 2275 
L 2491 3381 
L 3444 3381 
L 2266 1756 
L 3513 0 
L 2559 0 
z
" transform="scale(0.015625)"/>
      <path id="LiberationSans-Bold-74" d="M 1313 -56 
Q 925 -56 715 155 
Q 506 366 506 794 
L 506 2788 
L 78 2788 
L 78 3381 
L 550 3381 
L 825 4175 
L 1375 4175 
L 1375 3381 
L 2016 3381 
L 2016 2788 
L 1375 2788 
L 1375 1031 
Q 1375 784 1469 667 
Q 1563 550 1759 550 
Q 1841 550 1906 562 
Q 1972 575 2053 594 
L 2053 50 
Q 1891 -3 1709 -29 
Q 1528 -56 1313 -56 
z
" transform="scale(0.015625)"/>
      <path id="LiberationSans-Bold-65" d="M 1831 -63 
Q 1466 -63 1173 45 
Q 881 153 675 373 
Q 469 594 359 926 
Q 250 1259 250 1706 
Q 250 2191 379 2522 
Q 509 2853 729 3058 
Q 950 3263 1237 3353 
Q 1525 3444 1844 3444 
Q 2244 3444 2526 3305 
Q 2809 3166 2990 2916 
Q 3172 2666 3256 2317 
Q 3341 1969 3341 1547 
L 3341 1522 
L 1172 1522 
Q 1172 1309 1209 1126 
Q 1247 944 1331 811 
Q 1416 678 1550 601 
Q 1684 525 1875 525 
Q 2106 525 2253 623 
Q 2400 722 2463 928 
L 3291 856 
Q 3234 713 3132 550 
Q 3031 388 2862 252 
Q 2694 116 2442 26 
Q 2191 -63 1831 -63 
z
M 1831 2891 
Q 1697 2891 1580 2845 
Q 1463 2800 1377 2701 
Q 1291 2603 1237 2447 
Q 1184 2291 1178 2072 
L 2491 2072 
Q 2466 2481 2294 2686 
Q 2122 2891 1831 2891 
z
" transform="scale(0.015625)"/>
      <path id="LiberationSans-Bold-6e" d="M 2638 0 
L 2638 1897 
Q 2638 2094 2606 2258 
Q 2575 2422 2503 2539 
Q 2431 2656 2315 2722 
Q 2200 2788 2034 2788 
Q 1875 2788 1745 2717 
Q 1616 2647 1522 2517 
Q 1428 2388 1376 2208 
Q 1325 2028 1325 1813 
L 1325 0 
L 447 0 
L 447 2625 
Q 447 2734 445 2850 
Q 444 2966 439 3070 
Q 434 3175 431 3258 
Q 428 3341 422 3381 
L 1259 3381 
Q 1266 3344 1272 3261 
Q 1278 3178 1284 3078 
Q 1291 2978 1295 2878 
Q 1300 2778 1300 2709 
L 1313 2709 
Q 1491 3097 1759 3272 
Q 2028 3447 2400 3447 
Q 2706 3447 2917 3347 
Q 3128 3247 3261 3072 
Q 3394 2897 3453 2659 
Q 3513 2422 3513 2147 
L 3513 0 
L 2638 0 
z
" transform="scale(0.015625)"/>
      <path id="LiberationSans-Bold-64" d="M 2638 0 
Q 2631 25 2623 89 
Q 2616 153 2608 234 
Q 2600 316 2595 400 
Q 2591 484 2591 550 
L 2578 550 
Q 2425 222 2151 79 
Q 1878 -63 1497 -63 
Q 1178 -63 945 68 
Q 713 200 561 434 
Q 409 669 336 989 
Q 263 1309 263 1688 
Q 263 2072 339 2394 
Q 416 2716 575 2948 
Q 734 3181 979 3312 
Q 1225 3444 1563 3444 
Q 1728 3444 1881 3409 
Q 2034 3375 2165 3303 
Q 2297 3231 2403 3118 
Q 2509 3006 2584 2847 
L 2591 2847 
Q 2591 2878 2589 2939 
Q 2588 3000 2588 3078 
Q 2588 3156 2586 3240 
Q 2584 3325 2584 3403 
L 2584 4638 
L 3463 4638 
L 3463 738 
Q 3463 491 3472 298 
Q 3481 106 3488 0 
L 2638 0 
z
M 2597 1709 
Q 2597 2044 2534 2264 
Q 2472 2484 2370 2614 
Q 2269 2744 2139 2795 
Q 2009 2847 1875 2847 
Q 1706 2847 1576 2781 
Q 1447 2716 1358 2575 
Q 1269 2434 1223 2215 
Q 1178 1997 1178 1688 
Q 1178 538 1869 538 
Q 2000 538 2131 594 
Q 2263 650 2366 784 
Q 2469 919 2533 1145 
Q 2597 1372 2597 1709 
z
" transform="scale(0.015625)"/>
      <path id="LiberationSans-Bold-20" transform="scale(0.015625)"/>
      <path id="LiberationSans-Bold-4b" d="M 3475 0 
L 1894 2022 
L 1350 1606 
L 1350 0 
L 428 0 
L 428 4403 
L 1350 4403 
L 1350 2406 
L 3334 4403 
L 4409 4403 
L 2528 2541 
L 4563 0 
L 3475 0 
z
" transform="scale(0.015625)"/>
      <path id="LiberationSans-Bold-61" d="M 1228 -63 
Q 984 -63 792 4 
Q 600 72 465 201 
Q 331 331 259 522 
Q 188 713 188 956 
Q 188 1256 292 1461 
Q 397 1666 578 1792 
Q 759 1919 1003 1976 
Q 1247 2034 1522 2038 
L 2250 2050 
L 2250 2222 
Q 2250 2406 2217 2529 
Q 2184 2653 2121 2731 
Q 2059 2809 1967 2842 
Q 1875 2875 1756 2875 
Q 1647 2875 1561 2853 
Q 1475 2831 1412 2776 
Q 1350 2722 1311 2630 
Q 1272 2538 1256 2397 
L 341 2441 
Q 378 2663 478 2845 
Q 578 3028 754 3162 
Q 931 3297 1189 3370 
Q 1447 3444 1794 3444 
Q 2109 3444 2356 3366 
Q 2603 3288 2775 3133 
Q 2947 2978 3037 2753 
Q 3128 2528 3128 2231 
L 3128 1000 
Q 3128 881 3139 787 
Q 3150 694 3179 630 
Q 3209 566 3264 533 
Q 3319 500 3406 500 
Q 3506 500 3600 519 
L 3600 44 
Q 3522 25 3459 9 
Q 3397 -6 3334 -15 
Q 3272 -25 3201 -31 
Q 3131 -38 3038 -38 
Q 2706 -38 2548 125 
Q 2391 288 2359 603 
L 2341 603 
Q 2166 288 1892 112 
Q 1619 -63 1228 -63 
z
M 2250 1566 
L 1800 1559 
Q 1659 1553 1532 1536 
Q 1406 1519 1311 1464 
Q 1216 1409 1159 1306 
Q 1103 1203 1103 1025 
Q 1103 784 1214 667 
Q 1325 550 1509 550 
Q 1678 550 1815 622 
Q 1953 694 2048 811 
Q 2144 928 2197 1081 
Q 2250 1234 2250 1394 
L 2250 1566 
z
" transform="scale(0.015625)"/>
      <path id="LiberationSans-Bold-6c" d="M 447 0 
L 447 4638 
L 1325 4638 
L 1325 0 
L 447 0 
z
" transform="scale(0.015625)"/>
      <path id="LiberationSans-Bold-6d" d="M 2438 0 
L 2438 1897 
Q 2438 2094 2411 2258 
Q 2384 2422 2323 2539 
Q 2263 2656 2164 2722 
Q 2066 2788 1925 2788 
Q 1791 2788 1681 2717 
Q 1572 2647 1492 2517 
Q 1413 2388 1369 2208 
Q 1325 2028 1325 1813 
L 1325 0 
L 447 0 
L 447 2625 
Q 447 2734 445 2850 
Q 444 2966 439 3070 
Q 434 3175 431 3258 
Q 428 3341 422 3381 
L 1259 3381 
Q 1266 3344 1272 3261 
Q 1278 3178 1284 3078 
Q 1291 2978 1295 2878 
Q 1300 2778 1300 2709 
L 1313 2709 
Q 1475 3097 1717 3272 
Q 1959 3447 2297 3447 
Q 2684 3447 2920 3258 
Q 3156 3069 3238 2709 
L 3256 2709 
Q 3347 2919 3451 3059 
Q 3556 3200 3682 3286 
Q 3809 3372 3957 3409 
Q 4106 3447 4281 3447 
Q 4559 3447 4751 3347 
Q 4944 3247 5064 3072 
Q 5184 2897 5239 2659 
Q 5294 2422 5294 2147 
L 5294 0 
L 4422 0 
L 4422 1897 
Q 4422 2094 4395 2258 
Q 4369 2422 4308 2539 
Q 4247 2656 4148 2722 
Q 4050 2788 3909 2788 
Q 3778 2788 3670 2720 
Q 3563 2653 3483 2529 
Q 3403 2406 3359 2234 
Q 3316 2063 3309 1853 
L 3309 0 
L 2438 0 
z
" transform="scale(0.015625)"/>
      <path id="LiberationSans-Bold-46" d="M 1350 3691 
L 1350 2328 
L 3603 2328 
L 3603 1616 
L 1350 1616 
L 1350 0 
L 428 0 
L 428 4403 
L 3675 4403 
L 3675 3691 
L 1350 3691 
z
" transform="scale(0.015625)"/>
      <path id="LiberationSans-Bold-69" d="M 447 3991 
L 447 4638 
L 1325 4638 
L 1325 3991 
L 447 3991 
z
M 447 0 
L 447 3381 
L 1325 3381 
L 1325 0 
L 447 0 
z
" transform="scale(0.015625)"/>
      <path id="LiberationSans-Bold-72" d="M 447 0 
L 447 2588 
Q 447 2697 445 2819 
Q 444 2941 439 3052 
Q 434 3163 431 3252 
Q 428 3341 422 3381 
L 1259 3381 
Q 1266 3344 1272 3251 
Q 1278 3159 1284 3050 
Q 1291 2941 1295 2833 
Q 1300 2725 1300 2659 
L 1313 2659 
Q 1378 2844 1443 2989 
Q 1509 3134 1598 3236 
Q 1688 3338 1813 3392 
Q 1938 3447 2122 3447 
Q 2200 3447 2276 3433 
Q 2353 3419 2394 3400 
L 2394 2666 
Q 2309 2684 2223 2698 
Q 2138 2713 2019 2713 
Q 1691 2713 1508 2447 
Q 1325 2181 1325 1659 
L 1325 0 
L 447 0 
z
" transform="scale(0.015625)"/>
      <path id="LiberationSans-Bold-28" d="M 1247 -1328 
Q 1006 -981 831 -637 
Q 656 -294 542 68 
Q 428 431 373 823 
Q 319 1216 319 1659 
Q 319 2106 373 2495 
Q 428 2884 542 3245 
Q 656 3606 831 3948 
Q 1006 4291 1247 4638 
L 2125 4638 
Q 1875 4275 1697 3922 
Q 1519 3569 1405 3206 
Q 1291 2844 1237 2461 
Q 1184 2078 1184 1656 
Q 1184 1231 1237 848 
Q 1291 466 1405 103 
Q 1519 -259 1697 -611 
Q 1875 -963 2125 -1328 
L 1247 -1328 
z
" transform="scale(0.015625)"/>
      <path id="LiberationSans-Bold-29" d="M 6 -1328 
Q 256 -963 434 -611 
Q 613 -259 727 103 
Q 841 466 894 848 
Q 947 1231 947 1656 
Q 947 2078 894 2461 
Q 841 2844 727 3206 
Q 613 3569 434 3922 
Q 256 4275 6 4638 
L 884 4638 
Q 1125 4291 1300 3948 
Q 1475 3606 1589 3245 
Q 1703 2884 1758 2495 
Q 1813 2106 1813 1659 
Q 1813 1216 1758 823 
Q 1703 431 1589 68 
Q 1475 -294 1300 -637 
Q 1125 -981 884 -1328 
L 6 -1328 
z
" transform="scale(0.015625)"/>
      <path id="LiberationSans-Bold-3a" d="M 616 2350 
L 616 3231 
L 1516 3231 
L 1516 2350 
L 616 2350 
z
M 616 0 
L 616 878 
L 1516 878 
L 1516 0 
L 616 0 
z
" transform="scale(0.015625)"/>
      <path id="LiberationSans-Bold-50" d="M 4050 3009 
Q 4050 2725 3954 2461 
Q 3859 2197 3662 1994 
Q 3466 1791 3162 1670 
Q 2859 1550 2444 1550 
L 1350 1550 
L 1350 0 
L 428 0 
L 428 4403 
L 2406 4403 
Q 2828 4403 3137 4301 
Q 3447 4200 3650 4015 
Q 3853 3831 3951 3575 
Q 4050 3319 4050 3009 
z
M 3122 2994 
Q 3122 3334 2917 3511 
Q 2713 3688 2303 3688 
L 1350 3688 
L 1350 2259 
L 2328 2259 
Q 2534 2259 2682 2312 
Q 2831 2366 2929 2462 
Q 3028 2559 3075 2695 
Q 3122 2831 3122 2994 
z
" transform="scale(0.015625)"/>
      <path id="LiberationSans-Bold-43" d="M 2484 663 
Q 2744 663 2933 736 
Q 3122 809 3261 928 
Q 3400 1047 3492 1197 
Q 3584 1347 3644 1500 
L 4447 1197 
Q 4350 959 4194 731 
Q 4038 503 3803 328 
Q 3569 153 3245 45 
Q 2922 -63 2484 -63 
Q 1913 -63 1494 107 
Q 1075 278 801 583 
Q 528 888 395 1306 
Q 263 1725 263 2222 
Q 263 2738 395 3153 
Q 528 3569 797 3861 
Q 1066 4153 1477 4311 
Q 1888 4469 2444 4469 
Q 2875 4469 3198 4378 
Q 3522 4288 3758 4123 
Q 3994 3959 4148 3736 
Q 4303 3513 4391 3244 
L 3578 3022 
Q 3534 3163 3443 3292 
Q 3353 3422 3214 3522 
Q 3075 3622 2887 3683 
Q 2700 3744 2463 3744 
Q 2128 3744 1887 3636 
Q 1647 3528 1492 3328 
Q 1338 3128 1264 2848 
Q 1191 2569 1191 2222 
Q 1191 1878 1264 1592 
Q 1338 1306 1494 1100 
Q 1650 894 1895 778 
Q 2141 663 2484 663 
z
" transform="scale(0.015625)"/>
      <path id="LiberationSans-Bold-6f" d="M 3659 1694 
Q 3659 1306 3551 984 
Q 3444 663 3228 430 
Q 3013 197 2691 67 
Q 2369 -63 1941 -63 
Q 1528 -63 1212 65 
Q 897 194 683 425 
Q 469 656 359 979 
Q 250 1303 250 1694 
Q 250 2072 354 2392 
Q 459 2713 671 2947 
Q 884 3181 1206 3312 
Q 1528 3444 1959 3444 
Q 2416 3444 2737 3312 
Q 3059 3181 3264 2948 
Q 3469 2716 3564 2395 
Q 3659 2075 3659 1694 
z
M 2741 1694 
Q 2741 2297 2544 2569 
Q 2347 2841 1972 2841 
Q 1584 2841 1378 2566 
Q 1172 2291 1172 1694 
Q 1172 1391 1226 1172 
Q 1281 953 1381 812 
Q 1481 672 1622 605 
Q 1763 538 1931 538 
Q 2125 538 2276 605 
Q 2428 672 2531 812 
Q 2634 953 2687 1172 
Q 2741 1391 2741 1694 
z
" transform="scale(0.015625)"/>
      <path id="LiberationSans-Bold-76" d="M 1766 709 
L 2613 3381 
L 3531 3381 
L 2284 0 
L 1234 0 
L 25 3381 
L 953 3381 
L 1766 709 
z
" transform="scale(0.015625)"/>
      <path id="LiberationSans-Bold-67" d="M 1863 -1356 
Q 1528 -1356 1273 -1289 
Q 1019 -1222 839 -1101 
Q 659 -981 551 -814 
Q 444 -647 403 -447 
L 1281 -344 
Q 1328 -547 1483 -662 
Q 1638 -778 1888 -778 
Q 2044 -778 2173 -734 
Q 2303 -691 2395 -586 
Q 2488 -481 2539 -309 
Q 2591 -138 2591 116 
Q 2591 203 2591 293 
Q 2591 384 2594 459 
Q 2597 547 2597 628 
L 2591 628 
Q 2438 300 2161 153 
Q 1884 6 1503 6 
Q 1181 6 948 132 
Q 716 259 562 486 
Q 409 713 336 1027 
Q 263 1341 263 1719 
Q 263 2109 341 2426 
Q 419 2744 580 2972 
Q 741 3200 986 3323 
Q 1231 3447 1569 3447 
Q 1906 3447 2173 3303 
Q 2441 3159 2591 2838 
L 2606 2838 
Q 2606 2903 2611 2989 
Q 2616 3075 2622 3154 
Q 2628 3234 2636 3296 
Q 2644 3359 2650 3381 
L 3481 3381 
Q 3475 3269 3469 3066 
Q 3463 2863 3463 2600 
L 3463 103 
Q 3463 -266 3356 -539 
Q 3250 -813 3045 -994 
Q 2841 -1175 2542 -1265 
Q 2244 -1356 1863 -1356 
z
M 2597 1738 
Q 2597 2056 2534 2268 
Q 2472 2481 2372 2609 
Q 2272 2738 2142 2791 
Q 2013 2844 1881 2844 
Q 1713 2844 1583 2778 
Q 1453 2713 1362 2575 
Q 1272 2438 1225 2225 
Q 1178 2013 1178 1719 
Q 1178 1172 1353 894 
Q 1528 616 1875 616 
Q 2006 616 2136 667 
Q 2266 719 2369 848 
Q 2472 978 2534 1193 
Q 2597 1409 2597 1738 
z
" transform="scale(0.015625)"/>
      <path id="LiberationSans-Bold-63" d="M 1856 -63 
Q 1453 -63 1151 62 
Q 850 188 650 416 
Q 450 644 350 964 
Q 250 1284 250 1672 
Q 250 2094 359 2423 
Q 469 2753 675 2979 
Q 881 3206 1182 3325 
Q 1484 3444 1869 3444 
Q 2197 3444 2451 3356 
Q 2706 3269 2890 3117 
Q 3075 2966 3189 2759 
Q 3303 2553 3347 2316 
L 2463 2272 
Q 2425 2531 2275 2686 
Q 2125 2841 1850 2841 
Q 1497 2841 1334 2550 
Q 1172 2259 1172 1706 
Q 1172 538 1863 538 
Q 2113 538 2281 695 
Q 2450 853 2491 1166 
L 3372 1125 
Q 3341 891 3230 677 
Q 3119 463 2930 298 
Q 2741 134 2472 35 
Q 2203 -63 1856 -63 
z
" transform="scale(0.015625)"/>
      <path id="LiberationSans-Bold-26" d="M 281 1203 
Q 281 1450 361 1650 
Q 441 1850 581 2012 
Q 722 2175 915 2304 
Q 1109 2434 1338 2541 
Q 1238 2744 1172 2975 
Q 1106 3206 1106 3413 
Q 1106 3619 1168 3803 
Q 1231 3988 1372 4127 
Q 1513 4266 1738 4347 
Q 1963 4428 2284 4428 
Q 2538 4428 2745 4367 
Q 2953 4306 3103 4187 
Q 3253 4069 3336 3897 
Q 3419 3725 3419 3500 
Q 3419 3272 3316 3095 
Q 3213 2919 3042 2776 
Q 2872 2634 2650 2517 
Q 2428 2400 2194 2291 
Q 2353 2009 2543 1748 
Q 2734 1488 2956 1241 
Q 3131 1506 3250 1786 
Q 3369 2066 3450 2375 
L 4103 2156 
Q 3997 1791 3850 1469 
Q 3703 1147 3500 844 
Q 3641 725 3781 670 
Q 3922 616 4056 616 
Q 4156 616 4248 628 
Q 4341 641 4422 666 
L 4422 31 
Q 4250 -38 4013 -38 
Q 3853 -38 3706 -6 
Q 3559 25 3428 76 
Q 3297 128 3184 197 
Q 3072 266 2981 341 
Q 2878 263 2751 189 
Q 2625 116 2476 59 
Q 2328 3 2158 -30 
Q 1988 -63 1797 -63 
Q 1403 -63 1115 34 
Q 828 131 643 300 
Q 459 469 370 700 
Q 281 931 281 1203 
z
M 2719 3494 
Q 2719 3672 2600 3784 
Q 2481 3897 2278 3897 
Q 2038 3897 1911 3762 
Q 1784 3628 1784 3406 
Q 1784 3256 1832 3100 
Q 1881 2944 1953 2803 
Q 2113 2872 2253 2942 
Q 2394 3013 2497 3095 
Q 2600 3178 2659 3275 
Q 2719 3372 2719 3494 
z
M 2463 769 
Q 2222 1038 2006 1331 
Q 1791 1625 1613 1947 
Q 1353 1825 1214 1647 
Q 1075 1469 1075 1216 
Q 1075 1072 1123 947 
Q 1172 822 1265 730 
Q 1359 638 1501 584 
Q 1644 531 1831 531 
Q 2034 531 2198 606 
Q 2363 681 2463 769 
z
" transform="scale(0.015625)"/>
      <path id="LiberationSans-Bold-62" d="M 3647 1703 
Q 3647 1319 3570 995 
Q 3494 672 3334 436 
Q 3175 200 2929 68 
Q 2684 -63 2350 -63 
Q 2200 -63 2050 -31 
Q 1900 0 1765 72 
Q 1631 144 1518 259 
Q 1406 375 1325 544 
L 1319 544 
Q 1319 478 1314 393 
Q 1309 309 1303 229 
Q 1297 150 1289 87 
Q 1281 25 1275 0 
L 422 0 
Q 431 109 439 311 
Q 447 513 447 772 
L 447 4638 
L 1325 4638 
L 1325 3344 
Q 1325 3244 1323 3148 
Q 1322 3053 1319 2972 
Q 1316 2878 1313 2794 
L 1325 2794 
Q 1484 3144 1762 3294 
Q 2041 3444 2406 3444 
Q 2731 3444 2965 3314 
Q 3200 3184 3351 2951 
Q 3503 2719 3575 2400 
Q 3647 2081 3647 1703 
z
M 2731 1703 
Q 2731 2278 2562 2556 
Q 2394 2834 2041 2834 
Q 1906 2834 1775 2781 
Q 1644 2728 1541 2595 
Q 1438 2463 1375 2239 
Q 1313 2016 1313 1675 
Q 1313 1344 1375 1125 
Q 1438 906 1538 775 
Q 1638 644 1769 591 
Q 1900 538 2034 538 
Q 2369 538 2550 814 
Q 2731 1091 2731 1703 
z
" transform="scale(0.015625)"/>
      <path id="LiberationSans-Bold-49" d="M 428 0 
L 428 4403 
L 1350 4403 
L 1350 0 
L 428 0 
z
" transform="scale(0.015625)"/>
      <path id="LiberationSans-Bold-73" d="M 3297 988 
Q 3297 744 3195 550 
Q 3094 356 2900 220 
Q 2706 84 2425 10 
Q 2144 -63 1784 -63 
Q 1463 -63 1203 -16 
Q 944 31 748 139 
Q 553 247 422 419 
Q 291 591 225 844 
L 997 959 
Q 1034 819 1100 731 
Q 1166 644 1262 597 
Q 1359 550 1489 534 
Q 1619 519 1784 519 
Q 1934 519 2064 536 
Q 2194 553 2289 595 
Q 2384 638 2437 714 
Q 2491 791 2491 906 
Q 2491 1038 2414 1114 
Q 2338 1191 2205 1239 
Q 2072 1288 1892 1323 
Q 1713 1359 1509 1406 
Q 1297 1453 1090 1518 
Q 884 1584 721 1696 
Q 559 1809 459 1982 
Q 359 2156 359 2422 
Q 359 2663 453 2852 
Q 547 3041 728 3173 
Q 909 3306 1176 3376 
Q 1444 3447 1791 3447 
Q 2066 3447 2303 3395 
Q 2541 3344 2728 3233 
Q 2916 3122 3042 2950 
Q 3169 2778 3219 2534 
L 2441 2453 
Q 2419 2575 2362 2654 
Q 2306 2734 2223 2781 
Q 2141 2828 2031 2845 
Q 1922 2863 1791 2863 
Q 1478 2863 1322 2783 
Q 1166 2703 1166 2516 
Q 1166 2400 1230 2331 
Q 1294 2263 1411 2217 
Q 1528 2172 1689 2139 
Q 1850 2106 2041 2059 
Q 2275 2009 2501 1942 
Q 2728 1875 2904 1758 
Q 3081 1641 3189 1456 
Q 3297 1272 3297 988 
z
" transform="scale(0.015625)"/>
      <path id="DejaVuSans-b1" d="M 2944 4013 
L 2944 2803 
L 4684 2803 
L 4684 2272 
L 2944 2272 
L 2944 1063 
L 2419 1063 
L 2419 2272 
L 678 2272 
L 678 2803 
L 2419 2803 
L 2419 4013 
L 2944 4013 
z
M 678 531 
L 4684 531 
L 4684 0 
L 678 0 
L 678 531 
z
" transform="scale(0.015625)"/>
      <path id="DejaVuSans-33" d="M 2597 2516 
Q 3050 2419 3304 2112 
Q 3559 1806 3559 1356 
Q 3559 666 3084 287 
Q 2609 -91 1734 -91 
Q 1441 -91 1130 -33 
Q 819 25 488 141 
L 488 750 
Q 750 597 1062 519 
Q 1375 441 1716 441 
Q 2309 441 2620 675 
Q 2931 909 2931 1356 
Q 2931 1769 2642 2001 
Q 2353 2234 1838 2234 
L 1294 2234 
L 1294 2753 
L 1863 2753 
Q 2328 2753 2575 2939 
Q 2822 3125 2822 3475 
Q 2822 3834 2567 4026 
Q 2313 4219 1838 4219 
Q 1578 4219 1281 4162 
Q 984 4106 628 3988 
L 628 4550 
Q 988 4650 1302 4700 
Q 1616 4750 1894 4750 
Q 2613 4750 3031 4423 
Q 3450 4097 3450 3541 
Q 3450 3153 3228 2886 
Q 3006 2619 2597 2516 
z
" transform="scale(0.015625)"/>
      <path id="DejaVuSans-Oblique-3c3" d="M 2219 3044 
Q 1744 3044 1422 2700 
Q 1081 2341 969 1747 
Q 844 1119 1044 756 
Q 1241 397 1706 397 
Q 2166 397 2503 759 
Q 2844 1122 2966 1747 
Q 3075 2319 2881 2700 
Q 2700 3044 2219 3044 
z
M 2309 3503 
L 4219 3500 
L 4106 2925 
L 3463 2925 
Q 3706 2438 3575 1747 
Q 3406 888 2884 400 
Q 2359 -91 1609 -91 
Q 856 -91 525 400 
Q 194 888 363 1747 
Q 528 2609 1050 3097 
Q 1484 3503 2309 3503 
z
" transform="scale(0.015625)"/>
     </defs>
     <use xlink:href="#LiberationSans-Bold-45" transform="translate(0 0.78125)"/>
     <use xlink:href="#LiberationSans-Bold-78" transform="translate(66.699219 0.78125)"/>
     <use xlink:href="#LiberationSans-Bold-74" transform="translate(122.314453 0.78125)"/>
     <use xlink:href="#LiberationSans-Bold-65" transform="translate(155.615234 0.78125)"/>
     <use xlink:href="#LiberationSans-Bold-6e" transform="translate(211.230469 0.78125)"/>
     <use xlink:href="#LiberationSans-Bold-64" transform="translate(272.314453 0.78125)"/>
     <use xlink:href="#LiberationSans-Bold-65" transform="translate(333.398438 0.78125)"/>
     <use xlink:href="#LiberationSans-Bold-64" transform="translate(389.013672 0.78125)"/>
     <use xlink:href="#LiberationSans-Bold-20" transform="translate(450.097656 0.78125)"/>
     <use xlink:href="#LiberationSans-Bold-4b" transform="translate(477.880859 0.78125)"/>
     <use xlink:href="#LiberationSans-Bold-61" transform="translate(550.097656 0.78125)"/>
     <use xlink:href="#LiberationSans-Bold-6c" transform="translate(605.712891 0.78125)"/>
     <use xlink:href="#LiberationSans-Bold-6d" transform="translate(633.496094 0.78125)"/>
     <use xlink:href="#LiberationSans-Bold-61" transform="translate(722.412109 0.78125)"/>
     <use xlink:href="#LiberationSans-Bold-6e" transform="translate(778.027344 0.78125)"/>
     <use xlink:href="#LiberationSans-Bold-20" transform="translate(839.111328 0.78125)"/>
     <use xlink:href="#LiberationSans-Bold-46" transform="translate(866.894531 0.78125)"/>
     <use xlink:href="#LiberationSans-Bold-69" transform="translate(927.978516 0.78125)"/>
     <use xlink:href="#LiberationSans-Bold-6c" transform="translate(955.761719 0.78125)"/>
     <use xlink:href="#LiberationSans-Bold-74" transform="translate(983.544922 0.78125)"/>
     <use xlink:href="#LiberationSans-Bold-65" transform="translate(1016.845703 0.78125)"/>
     <use xlink:href="#LiberationSans-Bold-72" transform="translate(1072.460938 0.78125)"/>
     <use xlink:href="#LiberationSans-Bold-20" transform="translate(1111.376953 0.78125)"/>
     <use xlink:href="#LiberationSans-Bold-28" transform="translate(1139.160156 0.78125)"/>
     <use xlink:href="#LiberationSans-Bold-45" transform="translate(1172.460938 0.78125)"/>
     <use xlink:href="#LiberationSans-Bold-4b" transform="translate(1239.160156 0.78125)"/>
     <use xlink:href="#LiberationSans-Bold-46" transform="translate(1311.376953 0.78125)"/>
     <use xlink:href="#LiberationSans-Bold-29" transform="translate(1372.460938 0.78125)"/>
     <use xlink:href="#LiberationSans-Bold-3a" transform="translate(1405.761719 0.78125)"/>
     <use xlink:href="#LiberationSans-Bold-20" transform="translate(1439.0625 0.78125)"/>
     <use xlink:href="#LiberationSans-Bold-50" transform="translate(1466.845703 0.78125)"/>
     <use xlink:href="#LiberationSans-Bold-61" transform="translate(1533.544922 0.78125)"/>
     <use xlink:href="#LiberationSans-Bold-72" transform="translate(1589.160156 0.78125)"/>
     <use xlink:href="#LiberationSans-Bold-61" transform="translate(1628.076172 0.78125)"/>
     <use xlink:href="#LiberationSans-Bold-6d" transform="translate(1683.691406 0.78125)"/>
     <use xlink:href="#LiberationSans-Bold-65" transform="translate(1772.607422 0.78125)"/>
     <use xlink:href="#LiberationSans-Bold-74" transform="translate(1828.222656 0.78125)"/>
     <use xlink:href="#LiberationSans-Bold-65" transform="translate(1861.523438 0.78125)"/>
     <use xlink:href="#LiberationSans-Bold-72" transform="translate(1917.138672 0.78125)"/>
     <use xlink:href="#LiberationSans-Bold-20" transform="translate(1956.054688 0.78125)"/>
     <use xlink:href="#LiberationSans-Bold-43" transform="translate(1983.837891 0.78125)"/>
     <use xlink:href="#LiberationSans-Bold-6f" transform="translate(2056.054688 0.78125)"/>
     <use xlink:href="#LiberationSans-Bold-6e" transform="translate(2117.138672 0.78125)"/>
     <use xlink:href="#LiberationSans-Bold-76" transform="translate(2178.222656 0.78125)"/>
     <use xlink:href="#LiberationSans-Bold-65" transform="translate(2233.837891 0.78125)"/>
     <use xlink:href="#LiberationSans-Bold-72" transform="translate(2289.453125 0.78125)"/>
     <use xlink:href="#LiberationSans-Bold-67" transform="translate(2328.369141 0.78125)"/>
     <use xlink:href="#LiberationSans-Bold-65" transform="translate(2389.453125 0.78125)"/>
     <use xlink:href="#LiberationSans-Bold-6e" transform="translate(2445.068359 0.78125)"/>
     <use xlink:href="#LiberationSans-Bold-63" transform="translate(2506.152344 0.78125)"/>
     <use xlink:href="#LiberationSans-Bold-65" transform="translate(2561.767578 0.78125)"/>
     <use xlink:href="#LiberationSans-Bold-20" transform="translate(2617.382812 0.78125)"/>
     <use xlink:href="#LiberationSans-Bold-26" transform="translate(2645.166016 0.78125)"/>
     <use xlink:href="#LiberationSans-Bold-20" transform="translate(2717.382812 0.78125)"/>
     <use xlink:href="#LiberationSans-Bold-43" transform="translate(2745.166016 0.78125)"/>
     <use xlink:href="#LiberationSans-Bold-72" transform="translate(2817.382812 0.78125)"/>
     <use xlink:href="#LiberationSans-Bold-65" transform="translate(2856.298828 0.78125)"/>
     <use xlink:href="#LiberationSans-Bold-64" transform="translate(2911.914062 0.78125)"/>
     <use xlink:href="#LiberationSans-Bold-69" transform="translate(2972.998047 0.78125)"/>
     <use xlink:href="#LiberationSans-Bold-62" transform="translate(3000.78125 0.78125)"/>
     <use xlink:href="#LiberationSans-Bold-6c" transform="translate(3061.865234 0.78125)"/>
     <use xlink:href="#LiberationSans-Bold-65" transform="translate(3089.648438 0.78125)"/>
     <use xlink:href="#LiberationSans-Bold-20" transform="translate(3145.263672 0.78125)"/>
     <use xlink:href="#LiberationSans-Bold-49" transform="translate(3173.046875 0.78125)"/>
     <use xlink:href="#LiberationSans-Bold-6e" transform="translate(3200.830078 0.78125)"/>
     <use xlink:href="#LiberationSans-Bold-74" transform="translate(3261.914062 0.78125)"/>
     <use xlink:href="#LiberationSans-Bold-65" transform="translate(3295.214844 0.78125)"/>
     <use xlink:href="#LiberationSans-Bold-72" transform="translate(3350.830078 0.78125)"/>
     <use xlink:href="#LiberationSans-Bold-76" transform="translate(3389.746094 0.78125)"/>
     <use xlink:href="#LiberationSans-Bold-61" transform="translate(3445.361328 0.78125)"/>
     <use xlink:href="#LiberationSans-Bold-6c" transform="translate(3500.976562 0.78125)"/>
     <use xlink:href="#LiberationSans-Bold-73" transform="translate(3528.759766 0.78125)"/>
     <use xlink:href="#LiberationSans-Bold-20" transform="translate(3584.375 0.78125)"/>
     <use xlink:href="#LiberationSans-Bold-28" transform="translate(3612.158203 0.78125)"/>
     <use xlink:href="#DejaVuSans-b1" transform="translate(3645.458984 0.78125)"/>
     <use xlink:href="#DejaVuSans-33" transform="translate(3729.248047 0.78125)"/>
     <use xlink:href="#DejaVuSans-Oblique-3c3" transform="translate(3792.871094 0.78125)"/>
     <use xlink:href="#LiberationSans-Bold-29" transform="translate(3856.25 0.78125)"/>
    </g>
   </g>
   <g id="legend_1">
    <g id="patch_7">
     <path d="M 736.87336 214.948125 
L 853.189766 214.948125 
Q 855.389766 214.948125 855.389766 212.748125 
L 855.389766 150.831875 
Q 855.389766 148.631875 853.189766 148.631875 
L 736.87336 148.631875 
Q 734.67336 148.631875 734.67336 150.831875 
L 734.67336 212.748125 
Q 734.67336 214.948125 736.87336 214.948125 
z
" style="fill: #4d4d4d; opacity: 0.5; stroke: #4d4d4d; stroke-linejoin: miter"/>
    </g>
    <g id="patch_8">
     <path d="M 734.87336 212.948125 
L 851.189766 212.948125 
Q 853.389766 212.948125 853.389766 210.748125 
L 853.389766 148.831875 
Q 853.389766 146.631875 851.189766 146.631875 
L 734.87336 146.631875 
Q 732.67336 146.631875 732.67336 148.831875 
L 732.67336 210.748125 
Q 732.67336 212.948125 734.87336 212.948125 
z
" style="fill: #ffffff; stroke: #cccccc; stroke-linejoin: miter"/>
    </g>
    <g id="line2d_33">
     <path d="M 737.07336 155.153438 
L 748.07336 155.153438 
L 759.07336 155.153438 
" style="fill: none; stroke: #000000; stroke-width: 2.5; stroke-linecap: round"/>
    </g>
    <g id="text_17">
     <!-- True Value -->
     <g style="fill: #262626" transform="translate(767.87336 159.003438) scale(0.11 -0.11)">
      <defs>
       <path id="LiberationSans-54" d="M 2250 3916 
L 2250 0 
L 1656 0 
L 1656 3916 
L 144 3916 
L 144 4403 
L 3763 4403 
L 3763 3916 
L 2250 3916 
z
" transform="scale(0.015625)"/>
      </defs>
      <use xlink:href="#LiberationSans-54"/>
      <use xlink:href="#LiberationSans-72" transform="translate(57.333984 0)"/>
      <use xlink:href="#LiberationSans-75" transform="translate(90.634766 0)"/>
      <use xlink:href="#LiberationSans-65" transform="translate(146.25 0)"/>
      <use xlink:href="#LiberationSans-20" transform="translate(201.865234 0)"/>
      <use xlink:href="#LiberationSans-56" transform="translate(229.648438 0)"/>
      <use xlink:href="#LiberationSans-61" transform="translate(288.972656 0)"/>
      <use xlink:href="#LiberationSans-6c" transform="translate(344.587891 0)"/>
      <use xlink:href="#LiberationSans-75" transform="translate(366.804688 0)"/>
      <use xlink:href="#LiberationSans-65" transform="translate(422.419922 0)"/>
     </g>
    </g>
    <g id="line2d_34">
     <path d="M 737.07336 170.9075 
L 748.07336 170.9075 
L 759.07336 170.9075 
" style="fill: none; stroke: #1f77b4; stroke-width: 2; stroke-linecap: round"/>
    </g>
    <g id="text_18">
     <!-- Coeff 0 Estimate -->
     <g style="fill: #262626" transform="translate(767.87336 174.7575) scale(0.11 -0.11)">
      <defs>
       <path id="LiberationSans-45" d="M 525 0 
L 525 4403 
L 3866 4403 
L 3866 3916 
L 1122 3916 
L 1122 2503 
L 3678 2503 
L 3678 2022 
L 1122 2022 
L 1122 488 
L 3994 488 
L 3994 0 
L 525 0 
z
" transform="scale(0.015625)"/>
       <path id="LiberationSans-73" d="M 2969 934 
Q 2969 456 2608 196 
Q 2247 -63 1597 -63 
Q 966 -63 623 145 
Q 281 353 178 794 
L 675 891 
Q 747 619 972 492 
Q 1197 366 1597 366 
Q 2025 366 2223 497 
Q 2422 628 2422 891 
Q 2422 1091 2284 1216 
Q 2147 1341 1841 1422 
L 1438 1528 
Q 953 1653 748 1773 
Q 544 1894 428 2066 
Q 313 2238 313 2488 
Q 313 2950 642 3192 
Q 972 3434 1603 3434 
Q 2163 3434 2492 3237 
Q 2822 3041 2909 2606 
L 2403 2544 
Q 2356 2769 2151 2889 
Q 1947 3009 1603 3009 
Q 1222 3009 1040 2893 
Q 859 2778 859 2544 
Q 859 2400 934 2306 
Q 1009 2213 1156 2147 
Q 1303 2081 1775 1966 
Q 2222 1853 2419 1758 
Q 2616 1663 2730 1547 
Q 2844 1431 2906 1279 
Q 2969 1128 2969 934 
z
" transform="scale(0.015625)"/>
       <path id="LiberationSans-6d" d="M 2400 0 
L 2400 2144 
Q 2400 2634 2265 2821 
Q 2131 3009 1781 3009 
Q 1422 3009 1212 2734 
Q 1003 2459 1003 1959 
L 1003 0 
L 444 0 
L 444 2659 
Q 444 3250 425 3381 
L 956 3381 
Q 959 3366 962 3297 
Q 966 3228 970 3139 
Q 975 3050 981 2803 
L 991 2803 
Q 1172 3163 1406 3303 
Q 1641 3444 1978 3444 
Q 2363 3444 2586 3291 
Q 2809 3138 2897 2803 
L 2906 2803 
Q 3081 3144 3329 3294 
Q 3578 3444 3931 3444 
Q 4444 3444 4676 3166 
Q 4909 2888 4909 2253 
L 4909 0 
L 4353 0 
L 4353 2144 
Q 4353 2634 4218 2821 
Q 4084 3009 3734 3009 
Q 3366 3009 3161 2736 
Q 2956 2463 2956 1959 
L 2956 0 
L 2400 0 
z
" transform="scale(0.015625)"/>
      </defs>
      <use xlink:href="#LiberationSans-43"/>
      <use xlink:href="#LiberationSans-6f" transform="translate(72.216797 0)"/>
      <use xlink:href="#LiberationSans-65" transform="translate(127.832031 0)"/>
      <use xlink:href="#LiberationSans-66" transform="translate(183.447266 0)"/>
      <use xlink:href="#LiberationSans-66" transform="translate(209.480469 0)"/>
      <use xlink:href="#LiberationSans-20" transform="translate(237.263672 0)"/>
      <use xlink:href="#LiberationSans-30" transform="translate(265.046875 0)"/>
      <use xlink:href="#LiberationSans-20" transform="translate(320.662109 0)"/>
      <use xlink:href="#LiberationSans-45" transform="translate(348.445312 0)"/>
      <use xlink:href="#LiberationSans-73" transform="translate(415.144531 0)"/>
      <use xlink:href="#LiberationSans-74" transform="translate(465.144531 0)"/>
      <use xlink:href="#LiberationSans-69" transform="translate(492.927734 0)"/>
      <use xlink:href="#LiberationSans-6d" transform="translate(515.144531 0)"/>
      <use xlink:href="#LiberationSans-61" transform="translate(598.445312 0)"/>
      <use xlink:href="#LiberationSans-74" transform="translate(654.060547 0)"/>
      <use xlink:href="#LiberationSans-65" transform="translate(681.84375 0)"/>
     </g>
    </g>
    <g id="line2d_35">
     <path d="M 737.07336 186.661563 
L 748.07336 186.661563 
L 759.07336 186.661563 
" style="fill: none; stroke: #2ca02c; stroke-width: 2; stroke-linecap: round"/>
    </g>
    <g id="text_19">
     <!-- Coeff 1 Estimate -->
     <g style="fill: #262626" transform="translate(767.87336 190.511563) scale(0.11 -0.11)">
      <use xlink:href="#LiberationSans-43"/>
      <use xlink:href="#LiberationSans-6f" transform="translate(72.216797 0)"/>
      <use xlink:href="#LiberationSans-65" transform="translate(127.832031 0)"/>
      <use xlink:href="#LiberationSans-66" transform="translate(183.447266 0)"/>
      <use xlink:href="#LiberationSans-66" transform="translate(209.480469 0)"/>
      <use xlink:href="#LiberationSans-20" transform="translate(237.263672 0)"/>
      <use xlink:href="#LiberationSans-31" transform="translate(265.046875 0)"/>
      <use xlink:href="#LiberationSans-20" transform="translate(320.662109 0)"/>
      <use xlink:href="#LiberationSans-45" transform="translate(348.445312 0)"/>
      <use xlink:href="#LiberationSans-73" transform="translate(415.144531 0)"/>
      <use xlink:href="#LiberationSans-74" transform="translate(465.144531 0)"/>
      <use xlink:href="#LiberationSans-69" transform="translate(492.927734 0)"/>
      <use xlink:href="#LiberationSans-6d" transform="translate(515.144531 0)"/>
      <use xlink:href="#LiberationSans-61" transform="translate(598.445312 0)"/>
      <use xlink:href="#LiberationSans-74" transform="translate(654.060547 0)"/>
      <use xlink:href="#LiberationSans-65" transform="translate(681.84375 0)"/>
     </g>
    </g>
    <g id="line2d_36">
     <path d="M 737.07336 202.415625 
L 748.07336 202.415625 
L 759.07336 202.415625 
" style="fill: none; stroke: #d62728; stroke-width: 2; stroke-linecap: round"/>
    </g>
    <g id="text_20">
     <!-- Coeff 2 Estimate -->
     <g style="fill: #262626" transform="translate(767.87336 206.265625) scale(0.11 -0.11)">
      <use xlink:href="#LiberationSans-43"/>
      <use xlink:href="#LiberationSans-6f" transform="translate(72.216797 0)"/>
      <use xlink:href="#LiberationSans-65" transform="translate(127.832031 0)"/>
      <use xlink:href="#LiberationSans-66" transform="translate(183.447266 0)"/>
      <use xlink:href="#LiberationSans-66" transform="translate(209.480469 0)"/>
      <use xlink:href="#LiberationSans-20" transform="translate(237.263672 0)"/>
      <use xlink:href="#LiberationSans-32" transform="translate(265.046875 0)"/>
      <use xlink:href="#LiberationSans-20" transform="translate(320.662109 0)"/>
      <use xlink:href="#LiberationSans-45" transform="translate(348.445312 0)"/>
      <use xlink:href="#LiberationSans-73" transform="translate(415.144531 0)"/>
      <use xlink:href="#LiberationSans-74" transform="translate(465.144531 0)"/>
      <use xlink:href="#LiberationSans-69" transform="translate(492.927734 0)"/>
      <use xlink:href="#LiberationSans-6d" transform="translate(515.144531 0)"/>
      <use xlink:href="#LiberationSans-61" transform="translate(598.445312 0)"/>
      <use xlink:href="#LiberationSans-74" transform="translate(654.060547 0)"/>
      <use xlink:href="#LiberationSans-65" transform="translate(681.84375 0)"/>
     </g>
    </g>
   </g>
  </g>
 </g>
 <defs>
  <clipPath id="pc858eddd5d">
   <rect x="40.44" y="38.76" width="673.268" height="282.06"/>
  </clipPath>
 </defs>
</svg>
