<?xml version="1.0" encoding="utf-8" standalone="no"?>
<!DOCTYPE svg PUBLIC "-//W3C//DTD SVG 1.1//EN"
  "http://www.w3.org/Graphics/SVG/1.1/DTD/svg11.dtd">
<svg xmlns:xlink="http://www.w3.org/1999/xlink" width="576pt" height="288pt" viewBox="0 0 576 288" xmlns="http://www.w3.org/2000/svg" version="1.1">
 <metadata>
  <rdf:RDF xmlns:dc="http://purl.org/dc/elements/1.1/" xmlns:cc="http://creativecommons.org/ns#" xmlns:rdf="http://www.w3.org/1999/02/22-rdf-syntax-ns#">
   <cc:Work>
    <dc:type rdf:resource="http://purl.org/dc/dcmitype/StillImage"/>
    <dc:date>2026-05-07T19:47:39.636093</dc:date>
    <dc:format>image/svg+xml</dc:format>
    <dc:creator>
     <cc:Agent>
      <dc:title>Matplotlib v3.10.9, https://matplotlib.org/</dc:title>
     </cc:Agent>
    </dc:creator>
   </cc:Work>
  </rdf:RDF>
 </metadata>
 <defs>
  <style type="text/css">*{stroke-linejoin: round; stroke-linecap: butt}</style>
 </defs>
 <g id="figure_1">
  <g id="patch_1">
   <path d="M 0 288 
L 576 288 
L 576 0 
L 0 0 
z
" style="fill: #ffffff"/>
  </g>
  <g id="axes_1">
   <g id="patch_2">
    <path d="M 72 256.32 
L 518.4 256.32 
L 518.4 34.56 
L 72 34.56 
z
" style="fill: #ffffff"/>
   </g>
   <g id="matplotlib.axis_1">
    <g id="xtick_1">
     <g id="line2d_1">
      <path d="M 110.73719 256.32 
L 110.73719 34.56 
" clip-path="url(#pde97d8c36d)" style="fill: none; stroke: #cccccc; stroke-width: 0.8; stroke-linecap: round"/>
     </g>
     <g id="line2d_2"/>
     <g id="text_1">
      <!-- −0.50 -->
      <g style="fill: #262626" transform="translate(98.086409 267.066875) scale(0.1 -0.1)">
       <defs>
        <path id="LiberationSans-2212" d="M 316 1900 
L 316 2356 
L 3425 2356 
L 3425 1900 
L 316 1900 
z
" transform="scale(0.015625)"/>
        <path id="LiberationSans-30" d="M 3309 2203 
Q 3309 1100 2920 518 
Q 2531 -63 1772 -63 
Q 1013 -63 631 515 
Q 250 1094 250 2203 
Q 250 3338 620 3903 
Q 991 4469 1791 4469 
Q 2569 4469 2939 3897 
Q 3309 3325 3309 2203 
z
M 2738 2203 
Q 2738 3156 2517 3584 
Q 2297 4013 1791 4013 
Q 1272 4013 1045 3591 
Q 819 3169 819 2203 
Q 819 1266 1048 831 
Q 1278 397 1778 397 
Q 2275 397 2506 840 
Q 2738 1284 2738 2203 
z
" transform="scale(0.015625)"/>
        <path id="LiberationSans-2e" d="M 584 0 
L 584 684 
L 1194 684 
L 1194 0 
L 584 0 
z
" transform="scale(0.015625)"/>
        <path id="LiberationSans-35" d="M 3291 1434 
Q 3291 738 2877 337 
Q 2463 -63 1728 -63 
Q 1113 -63 734 206 
Q 356 475 256 984 
L 825 1050 
Q 1003 397 1741 397 
Q 2194 397 2450 670 
Q 2706 944 2706 1422 
Q 2706 1838 2448 2094 
Q 2191 2350 1753 2350 
Q 1525 2350 1328 2278 
Q 1131 2206 934 2034 
L 384 2034 
L 531 4403 
L 3034 4403 
L 3034 3925 
L 1044 3925 
L 959 2528 
Q 1325 2809 1869 2809 
Q 2519 2809 2905 2428 
Q 3291 2047 3291 1434 
z
" transform="scale(0.015625)"/>
       </defs>
       <use xlink:href="#LiberationSans-2212"/>
       <use xlink:href="#LiberationSans-30" transform="translate(58.398438 0)"/>
       <use xlink:href="#LiberationSans-2e" transform="translate(114.013672 0)"/>
       <use xlink:href="#LiberationSans-35" transform="translate(141.796875 0)"/>
       <use xlink:href="#LiberationSans-30" transform="translate(197.412109 0)"/>
      </g>
     </g>
    </g>
    <g id="xtick_2">
     <g id="line2d_3">
      <path d="M 172.224793 256.32 
L 172.224793 34.56 
" clip-path="url(#pde97d8c36d)" style="fill: none; stroke: #cccccc; stroke-width: 0.8; stroke-linecap: round"/>
     </g>
     <g id="line2d_4"/>
     <g id="text_2">
      <!-- −0.25 -->
      <g style="fill: #262626" transform="translate(159.574012 267.066875) scale(0.1 -0.1)">
       <defs>
        <path id="LiberationSans-32" d="M 322 0 
L 322 397 
Q 481 763 711 1042 
Q 941 1322 1194 1548 
Q 1447 1775 1695 1969 
Q 1944 2163 2144 2356 
Q 2344 2550 2467 2762 
Q 2591 2975 2591 3244 
Q 2591 3606 2378 3806 
Q 2166 4006 1788 4006 
Q 1428 4006 1195 3811 
Q 963 3616 922 3263 
L 347 3316 
Q 409 3844 795 4156 
Q 1181 4469 1788 4469 
Q 2453 4469 2811 4155 
Q 3169 3841 3169 3263 
Q 3169 3006 3051 2753 
Q 2934 2500 2703 2247 
Q 2472 1994 1819 1463 
Q 1459 1169 1246 933 
Q 1034 697 941 478 
L 3238 478 
L 3238 0 
L 322 0 
z
" transform="scale(0.015625)"/>
       </defs>
       <use xlink:href="#LiberationSans-2212"/>
       <use xlink:href="#LiberationSans-30" transform="translate(58.398438 0)"/>
       <use xlink:href="#LiberationSans-2e" transform="translate(114.013672 0)"/>
       <use xlink:href="#LiberationSans-32" transform="translate(141.796875 0)"/>
       <use xlink:href="#LiberationSans-35" transform="translate(197.412109 0)"/>
      </g>
     </g>
    </g>
    <g id="xtick_3">
     <g id="line2d_5">
      <path d="M 233.712397 256.32 
L 233.712397 34.56 
" clip-path="url(#pde97d8c36d)" style="fill: none; stroke: #cccccc; stroke-width: 0.8; stroke-linecap: round"/>
     </g>
     <g id="line2d_6"/>
     <g id="text_3">
      <!-- 0.00 -->
      <g style="fill: #262626" transform="translate(223.981928 267.066875) scale(0.1 -0.1)">
       <use xlink:href="#LiberationSans-30"/>
       <use xlink:href="#LiberationSans-2e" transform="translate(55.615234 0)"/>
       <use xlink:href="#LiberationSans-30" transform="translate(83.398438 0)"/>
       <use xlink:href="#LiberationSans-30" transform="translate(139.013672 0)"/>
      </g>
     </g>
    </g>
    <g id="xtick_4">
     <g id="line2d_7">
      <path d="M 295.2 256.32 
L 295.2 34.56 
" clip-path="url(#pde97d8c36d)" style="fill: none; stroke: #cccccc; stroke-width: 0.8; stroke-linecap: round"/>
     </g>
     <g id="line2d_8"/>
     <g id="text_4">
      <!-- 0.25 -->
      <g style="fill: #262626" transform="translate(285.469531 267.066875) scale(0.1 -0.1)">
       <use xlink:href="#LiberationSans-30"/>
       <use xlink:href="#LiberationSans-2e" transform="translate(55.615234 0)"/>
       <use xlink:href="#LiberationSans-32" transform="translate(83.398438 0)"/>
       <use xlink:href="#LiberationSans-35" transform="translate(139.013672 0)"/>
      </g>
     </g>
    </g>
    <g id="xtick_5">
     <g id="line2d_9">
      <path d="M 356.687603 256.32 
L 356.687603 34.56 
" clip-path="url(#pde97d8c36d)" style="fill: none; stroke: #cccccc; stroke-width: 0.8; stroke-linecap: round"/>
     </g>
     <g id="line2d_10"/>
     <g id="text_5">
      <!-- 0.50 -->
      <g style="fill: #262626" transform="translate(346.957135 267.066875) scale(0.1 -0.1)">
       <use xlink:href="#LiberationSans-30"/>
       <use xlink:href="#LiberationSans-2e" transform="translate(55.615234 0)"/>
       <use xlink:href="#LiberationSans-35" transform="translate(83.398438 0)"/>
       <use xlink:href="#LiberationSans-30" transform="translate(139.013672 0)"/>
      </g>
     </g>
    </g>
    <g id="xtick_6">
     <g id="line2d_11">
      <path d="M 418.175207 256.32 
L 418.175207 34.56 
" clip-path="url(#pde97d8c36d)" style="fill: none; stroke: #cccccc; stroke-width: 0.8; stroke-linecap: round"/>
     </g>
     <g id="line2d_12"/>
     <g id="text_6">
      <!-- 0.75 -->
      <g style="fill: #262626" transform="translate(408.444738 267.066875) scale(0.1 -0.1)">
       <defs>
        <path id="LiberationSans-37" d="M 3238 3947 
Q 2563 2916 2284 2331 
Q 2006 1747 1867 1178 
Q 1728 609 1728 0 
L 1141 0 
Q 1141 844 1498 1776 
Q 1856 2709 2694 3925 
L 328 3925 
L 328 4403 
L 3238 4403 
L 3238 3947 
z
" transform="scale(0.015625)"/>
       </defs>
       <use xlink:href="#LiberationSans-30"/>
       <use xlink:href="#LiberationSans-2e" transform="translate(55.615234 0)"/>
       <use xlink:href="#LiberationSans-37" transform="translate(83.398438 0)"/>
       <use xlink:href="#LiberationSans-35" transform="translate(139.013672 0)"/>
      </g>
     </g>
    </g>
    <g id="xtick_7">
     <g id="line2d_13">
      <path d="M 479.66281 256.32 
L 479.66281 34.56 
" clip-path="url(#pde97d8c36d)" style="fill: none; stroke: #cccccc; stroke-width: 0.8; stroke-linecap: round"/>
     </g>
     <g id="line2d_14"/>
     <g id="text_7">
      <!-- 1.00 -->
      <g style="fill: #262626" transform="translate(469.932341 267.066875) scale(0.1 -0.1)">
       <defs>
        <path id="LiberationSans-31" d="M 488 0 
L 488 478 
L 1609 478 
L 1609 3866 
L 616 3156 
L 616 3688 
L 1656 4403 
L 2175 4403 
L 2175 478 
L 3247 478 
L 3247 0 
L 488 0 
z
" transform="scale(0.015625)"/>
       </defs>
       <use xlink:href="#LiberationSans-31"/>
       <use xlink:href="#LiberationSans-2e" transform="translate(55.615234 0)"/>
       <use xlink:href="#LiberationSans-30" transform="translate(83.398438 0)"/>
       <use xlink:href="#LiberationSans-30" transform="translate(139.013672 0)"/>
      </g>
     </g>
    </g>
    <g id="text_8">
     <!-- Measurement Point (x) -->
     <g style="fill: #262626" transform="translate(234.515625 281.838125) scale(0.12 -0.12)">
      <defs>
       <path id="LiberationSans-4d" d="M 4269 0 
L 4269 2938 
Q 4269 3425 4297 3875 
Q 4144 3316 4022 3000 
L 2884 0 
L 2466 0 
L 1313 3000 
L 1138 3531 
L 1034 3875 
L 1044 3528 
L 1056 2938 
L 1056 0 
L 525 0 
L 525 4403 
L 1309 4403 
L 2481 1350 
Q 2544 1166 2601 955 
Q 2659 744 2678 650 
Q 2703 775 2783 1029 
Q 2863 1284 2891 1350 
L 4041 4403 
L 4806 4403 
L 4806 0 
L 4269 0 
z
" transform="scale(0.015625)"/>
       <path id="LiberationSans-65" d="M 863 1572 
Q 863 991 1103 675 
Q 1344 359 1806 359 
Q 2172 359 2392 506 
Q 2613 653 2691 878 
L 3184 738 
Q 2881 -63 1806 -63 
Q 1056 -63 664 384 
Q 272 831 272 1713 
Q 272 2550 664 2997 
Q 1056 3444 1784 3444 
Q 3275 3444 3275 1647 
L 3275 1572 
L 863 1572 
z
M 2694 2003 
Q 2647 2538 2422 2783 
Q 2197 3028 1775 3028 
Q 1366 3028 1127 2754 
Q 888 2481 869 2003 
L 2694 2003 
z
" transform="scale(0.015625)"/>
       <path id="LiberationSans-61" d="M 1294 -63 
Q 784 -63 528 206 
Q 272 475 272 944 
Q 272 1469 617 1750 
Q 963 2031 1731 2050 
L 2491 2063 
L 2491 2247 
Q 2491 2659 2316 2837 
Q 2141 3016 1766 3016 
Q 1388 3016 1216 2887 
Q 1044 2759 1009 2478 
L 422 2531 
Q 566 3444 1778 3444 
Q 2416 3444 2737 3151 
Q 3059 2859 3059 2306 
L 3059 850 
Q 3059 600 3125 473 
Q 3191 347 3375 347 
Q 3456 347 3559 369 
L 3559 19 
Q 3347 -31 3125 -31 
Q 2813 -31 2670 133 
Q 2528 297 2509 647 
L 2491 647 
Q 2275 259 1989 98 
Q 1703 -63 1294 -63 
z
M 1422 359 
Q 1731 359 1972 500 
Q 2213 641 2352 886 
Q 2491 1131 2491 1391 
L 2491 1669 
L 1875 1656 
Q 1478 1650 1273 1575 
Q 1069 1500 959 1344 
Q 850 1188 850 934 
Q 850 659 998 509 
Q 1147 359 1422 359 
z
" transform="scale(0.015625)"/>
       <path id="LiberationSans-73" d="M 2969 934 
Q 2969 456 2608 196 
Q 2247 -63 1597 -63 
Q 966 -63 623 145 
Q 281 353 178 794 
L 675 891 
Q 747 619 972 492 
Q 1197 366 1597 366 
Q 2025 366 2223 497 
Q 2422 628 2422 891 
Q 2422 1091 2284 1216 
Q 2147 1341 1841 1422 
L 1438 1528 
Q 953 1653 748 1773 
Q 544 1894 428 2066 
Q 313 2238 313 2488 
Q 313 2950 642 3192 
Q 972 3434 1603 3434 
Q 2163 3434 2492 3237 
Q 2822 3041 2909 2606 
L 2403 2544 
Q 2356 2769 2151 2889 
Q 1947 3009 1603 3009 
Q 1222 3009 1040 2893 
Q 859 2778 859 2544 
Q 859 2400 934 2306 
Q 1009 2213 1156 2147 
Q 1303 2081 1775 1966 
Q 2222 1853 2419 1758 
Q 2616 1663 2730 1547 
Q 2844 1431 2906 1279 
Q 2969 1128 2969 934 
z
" transform="scale(0.015625)"/>
       <path id="LiberationSans-75" d="M 981 3381 
L 981 1238 
Q 981 903 1047 718 
Q 1113 534 1256 453 
Q 1400 372 1678 372 
Q 2084 372 2318 650 
Q 2553 928 2553 1422 
L 2553 3381 
L 3116 3381 
L 3116 722 
Q 3116 131 3134 0 
L 2603 0 
Q 2600 16 2597 84 
Q 2594 153 2589 242 
Q 2584 331 2578 578 
L 2569 578 
Q 2375 228 2120 82 
Q 1866 -63 1488 -63 
Q 931 -63 673 214 
Q 416 491 416 1128 
L 416 3381 
L 981 3381 
z
" transform="scale(0.015625)"/>
       <path id="LiberationSans-72" d="M 444 0 
L 444 2594 
Q 444 2950 425 3381 
L 956 3381 
Q 981 2806 981 2691 
L 994 2691 
Q 1128 3125 1303 3284 
Q 1478 3444 1797 3444 
Q 1909 3444 2025 3413 
L 2025 2897 
Q 1913 2928 1725 2928 
Q 1375 2928 1190 2626 
Q 1006 2325 1006 1763 
L 1006 0 
L 444 0 
z
" transform="scale(0.015625)"/>
       <path id="LiberationSans-6d" d="M 2400 0 
L 2400 2144 
Q 2400 2634 2265 2821 
Q 2131 3009 1781 3009 
Q 1422 3009 1212 2734 
Q 1003 2459 1003 1959 
L 1003 0 
L 444 0 
L 444 2659 
Q 444 3250 425 3381 
L 956 3381 
Q 959 3366 962 3297 
Q 966 3228 970 3139 
Q 975 3050 981 2803 
L 991 2803 
Q 1172 3163 1406 3303 
Q 1641 3444 1978 3444 
Q 2363 3444 2586 3291 
Q 2809 3138 2897 2803 
L 2906 2803 
Q 3081 3144 3329 3294 
Q 3578 3444 3931 3444 
Q 4444 3444 4676 3166 
Q 4909 2888 4909 2253 
L 4909 0 
L 4353 0 
L 4353 2144 
Q 4353 2634 4218 2821 
Q 4084 3009 3734 3009 
Q 3366 3009 3161 2736 
Q 2956 2463 2956 1959 
L 2956 0 
L 2400 0 
z
" transform="scale(0.015625)"/>
       <path id="LiberationSans-6e" d="M 2578 0 
L 2578 2144 
Q 2578 2478 2512 2662 
Q 2447 2847 2303 2928 
Q 2159 3009 1881 3009 
Q 1475 3009 1240 2731 
Q 1006 2453 1006 1959 
L 1006 0 
L 444 0 
L 444 2659 
Q 444 3250 425 3381 
L 956 3381 
Q 959 3366 962 3297 
Q 966 3228 970 3139 
Q 975 3050 981 2803 
L 991 2803 
Q 1184 3153 1439 3298 
Q 1694 3444 2072 3444 
Q 2628 3444 2886 3167 
Q 3144 2891 3144 2253 
L 3144 0 
L 2578 0 
z
" transform="scale(0.015625)"/>
       <path id="LiberationSans-74" d="M 1731 25 
Q 1453 -50 1163 -50 
Q 488 -50 488 716 
L 488 2972 
L 97 2972 
L 97 3381 
L 509 3381 
L 675 4138 
L 1050 4138 
L 1050 3381 
L 1675 3381 
L 1675 2972 
L 1050 2972 
L 1050 838 
Q 1050 594 1129 495 
Q 1209 397 1406 397 
Q 1519 397 1731 441 
L 1731 25 
z
" transform="scale(0.015625)"/>
       <path id="LiberationSans-20" transform="scale(0.015625)"/>
       <path id="LiberationSans-50" d="M 3931 3078 
Q 3931 2453 3523 2084 
Q 3116 1716 2416 1716 
L 1122 1716 
L 1122 0 
L 525 0 
L 525 4403 
L 2378 4403 
Q 3119 4403 3525 4056 
Q 3931 3709 3931 3078 
z
M 3331 3072 
Q 3331 3925 2306 3925 
L 1122 3925 
L 1122 2188 
L 2331 2188 
Q 3331 2188 3331 3072 
z
" transform="scale(0.015625)"/>
       <path id="LiberationSans-6f" d="M 3291 1694 
Q 3291 806 2900 371 
Q 2509 -63 1766 -63 
Q 1025 -63 647 389 
Q 269 841 269 1694 
Q 269 3444 1784 3444 
Q 2559 3444 2925 3017 
Q 3291 2591 3291 1694 
z
M 2700 1694 
Q 2700 2394 2492 2711 
Q 2284 3028 1794 3028 
Q 1300 3028 1079 2704 
Q 859 2381 859 1694 
Q 859 1025 1076 689 
Q 1294 353 1759 353 
Q 2266 353 2483 678 
Q 2700 1003 2700 1694 
z
" transform="scale(0.015625)"/>
       <path id="LiberationSans-69" d="M 428 4100 
L 428 4638 
L 991 4638 
L 991 4100 
L 428 4100 
z
M 428 0 
L 428 3381 
L 991 3381 
L 991 0 
L 428 0 
z
" transform="scale(0.015625)"/>
       <path id="LiberationSans-28" d="M 397 1663 
Q 397 2566 680 3284 
Q 963 4003 1550 4638 
L 2094 4638 
Q 1509 3988 1236 3256 
Q 963 2525 963 1656 
Q 963 791 1233 62 
Q 1503 -666 2094 -1325 
L 1550 -1325 
Q 959 -688 678 32 
Q 397 753 397 1650 
L 397 1663 
z
" transform="scale(0.015625)"/>
       <path id="LiberationSans-78" d="M 2503 0 
L 1594 1388 
L 678 0 
L 72 0 
L 1275 1738 
L 128 3381 
L 750 3381 
L 1594 2066 
L 2431 3381 
L 3059 3381 
L 1913 1744 
L 3131 0 
L 2503 0 
z
" transform="scale(0.015625)"/>
       <path id="LiberationSans-29" d="M 1734 1650 
Q 1734 747 1451 28 
Q 1169 -691 581 -1325 
L 38 -1325 
Q 625 -669 897 57 
Q 1169 784 1169 1656 
Q 1169 2528 895 3256 
Q 622 3984 38 4638 
L 581 4638 
Q 1172 4000 1453 3279 
Q 1734 2559 1734 1663 
L 1734 1650 
z
" transform="scale(0.015625)"/>
      </defs>
      <use xlink:href="#LiberationSans-4d"/>
      <use xlink:href="#LiberationSans-65" transform="translate(83.300781 0)"/>
      <use xlink:href="#LiberationSans-61" transform="translate(138.916016 0)"/>
      <use xlink:href="#LiberationSans-73" transform="translate(194.53125 0)"/>
      <use xlink:href="#LiberationSans-75" transform="translate(244.53125 0)"/>
      <use xlink:href="#LiberationSans-72" transform="translate(300.146484 0)"/>
      <use xlink:href="#LiberationSans-65" transform="translate(333.447266 0)"/>
      <use xlink:href="#LiberationSans-6d" transform="translate(389.0625 0)"/>
      <use xlink:href="#LiberationSans-65" transform="translate(472.363281 0)"/>
      <use xlink:href="#LiberationSans-6e" transform="translate(527.978516 0)"/>
      <use xlink:href="#LiberationSans-74" transform="translate(583.59375 0)"/>
      <use xlink:href="#LiberationSans-20" transform="translate(611.376953 0)"/>
      <use xlink:href="#LiberationSans-50" transform="translate(639.160156 0)"/>
      <use xlink:href="#LiberationSans-6f" transform="translate(705.859375 0)"/>
      <use xlink:href="#LiberationSans-69" transform="translate(761.474609 0)"/>
      <use xlink:href="#LiberationSans-6e" transform="translate(783.691406 0)"/>
      <use xlink:href="#LiberationSans-74" transform="translate(839.306641 0)"/>
      <use xlink:href="#LiberationSans-20" transform="translate(867.089844 0)"/>
      <use xlink:href="#LiberationSans-28" transform="translate(894.873047 0)"/>
      <use xlink:href="#LiberationSans-78" transform="translate(928.173828 0)"/>
      <use xlink:href="#LiberationSans-29" transform="translate(978.173828 0)"/>
     </g>
    </g>
   </g>
   <g id="matplotlib.axis_2">
    <g id="ytick_1">
     <g id="line2d_15">
      <path d="M 72 235.072697 
L 518.4 235.072697 
" clip-path="url(#pde97d8c36d)" style="fill: none; stroke: #cccccc; stroke-width: 0.8; stroke-linecap: round"/>
     </g>
     <g id="line2d_16"/>
     <g id="text_9">
      <!-- 1 -->
      <g style="fill: #262626" transform="translate(62.939062 238.696134) scale(0.1 -0.1)">
       <use xlink:href="#LiberationSans-31"/>
      </g>
     </g>
    </g>
    <g id="ytick_2">
     <g id="line2d_17">
      <path d="M 72 201.570763 
L 518.4 201.570763 
" clip-path="url(#pde97d8c36d)" style="fill: none; stroke: #cccccc; stroke-width: 0.8; stroke-linecap: round"/>
     </g>
     <g id="line2d_18"/>
     <g id="text_10">
      <!-- 2 -->
      <g style="fill: #262626" transform="translate(62.939062 205.194201) scale(0.1 -0.1)">
       <use xlink:href="#LiberationSans-32"/>
      </g>
     </g>
    </g>
    <g id="ytick_3">
     <g id="line2d_19">
      <path d="M 72 168.068829 
L 518.4 168.068829 
" clip-path="url(#pde97d8c36d)" style="fill: none; stroke: #cccccc; stroke-width: 0.8; stroke-linecap: round"/>
     </g>
     <g id="line2d_20"/>
     <g id="text_11">
      <!-- 3 -->
      <g style="fill: #262626" transform="translate(62.939062 171.692267) scale(0.1 -0.1)">
       <defs>
        <path id="LiberationSans-33" d="M 3278 1216 
Q 3278 606 2890 271 
Q 2503 -63 1784 -63 
Q 1116 -63 717 239 
Q 319 541 244 1131 
L 825 1184 
Q 938 403 1784 403 
Q 2209 403 2451 612 
Q 2694 822 2694 1234 
Q 2694 1594 2417 1795 
Q 2141 1997 1619 1997 
L 1300 1997 
L 1300 2484 
L 1606 2484 
Q 2069 2484 2323 2686 
Q 2578 2888 2578 3244 
Q 2578 3597 2370 3801 
Q 2163 4006 1753 4006 
Q 1381 4006 1151 3815 
Q 922 3625 884 3278 
L 319 3322 
Q 381 3863 767 4166 
Q 1153 4469 1759 4469 
Q 2422 4469 2789 4161 
Q 3156 3853 3156 3303 
Q 3156 2881 2920 2617 
Q 2684 2353 2234 2259 
L 2234 2247 
Q 2728 2194 3003 1916 
Q 3278 1638 3278 1216 
z
" transform="scale(0.015625)"/>
       </defs>
       <use xlink:href="#LiberationSans-33"/>
      </g>
     </g>
    </g>
    <g id="ytick_4">
     <g id="line2d_21">
      <path d="M 72 134.566896 
L 518.4 134.566896 
" clip-path="url(#pde97d8c36d)" style="fill: none; stroke: #cccccc; stroke-width: 0.8; stroke-linecap: round"/>
     </g>
     <g id="line2d_22"/>
     <g id="text_12">
      <!-- 4 -->
      <g style="fill: #262626" transform="translate(62.939062 138.190333) scale(0.1 -0.1)">
       <defs>
        <path id="LiberationSans-34" d="M 2753 997 
L 2753 0 
L 2222 0 
L 2222 997 
L 147 997 
L 147 1434 
L 2163 4403 
L 2753 4403 
L 2753 1441 
L 3372 1441 
L 3372 997 
L 2753 997 
z
M 2222 3769 
Q 2216 3750 2134 3603 
Q 2053 3456 2013 3397 
L 884 1734 
L 716 1503 
L 666 1441 
L 2222 1441 
L 2222 3769 
z
" transform="scale(0.015625)"/>
       </defs>
       <use xlink:href="#LiberationSans-34"/>
      </g>
     </g>
    </g>
    <g id="ytick_5">
     <g id="line2d_23">
      <path d="M 72 101.064962 
L 518.4 101.064962 
" clip-path="url(#pde97d8c36d)" style="fill: none; stroke: #cccccc; stroke-width: 0.8; stroke-linecap: round"/>
     </g>
     <g id="line2d_24"/>
     <g id="text_13">
      <!-- 5 -->
      <g style="fill: #262626" transform="translate(62.939062 104.688399) scale(0.1 -0.1)">
       <use xlink:href="#LiberationSans-35"/>
      </g>
     </g>
    </g>
    <g id="ytick_6">
     <g id="line2d_25">
      <path d="M 72 67.563028 
L 518.4 67.563028 
" clip-path="url(#pde97d8c36d)" style="fill: none; stroke: #cccccc; stroke-width: 0.8; stroke-linecap: round"/>
     </g>
     <g id="line2d_26"/>
     <g id="text_14">
      <!-- 6 -->
      <g style="fill: #262626" transform="translate(62.939062 71.186466) scale(0.1 -0.1)">
       <defs>
        <path id="LiberationSans-36" d="M 3278 1441 
Q 3278 744 2900 340 
Q 2522 -63 1856 -63 
Q 1113 -63 719 490 
Q 325 1044 325 2100 
Q 325 3244 734 3856 
Q 1144 4469 1900 4469 
Q 2897 4469 3156 3572 
L 2619 3475 
Q 2453 4013 1894 4013 
Q 1413 4013 1148 3564 
Q 884 3116 884 2266 
Q 1038 2550 1316 2698 
Q 1594 2847 1953 2847 
Q 2563 2847 2920 2465 
Q 3278 2084 3278 1441 
z
M 2706 1416 
Q 2706 1894 2472 2153 
Q 2238 2413 1819 2413 
Q 1425 2413 1183 2183 
Q 941 1953 941 1550 
Q 941 1041 1192 716 
Q 1444 391 1838 391 
Q 2244 391 2475 664 
Q 2706 938 2706 1416 
z
" transform="scale(0.015625)"/>
       </defs>
       <use xlink:href="#LiberationSans-36"/>
      </g>
     </g>
    </g>
    <g id="text_15">
     <!-- Measurement Value (y) -->
     <g style="fill: #262626" transform="translate(56.449062 207.351562) rotate(-90) scale(0.12 -0.12)">
      <defs>
       <path id="LiberationSans-56" d="M 2444 0 
L 1825 0 
L 28 4403 
L 656 4403 
L 1875 1303 
L 2138 525 
L 2400 1303 
L 3613 4403 
L 4241 4403 
L 2444 0 
z
" transform="scale(0.015625)"/>
       <path id="LiberationSans-6c" d="M 431 0 
L 431 4638 
L 994 4638 
L 994 0 
L 431 0 
z
" transform="scale(0.015625)"/>
       <path id="LiberationSans-79" d="M 597 -1328 
Q 366 -1328 209 -1294 
L 209 -872 
Q 328 -891 472 -891 
Q 997 -891 1303 -119 
L 1356 16 
L 16 3381 
L 616 3381 
L 1328 1513 
Q 1344 1469 1366 1408 
Q 1388 1347 1506 1000 
Q 1625 653 1634 613 
L 1853 1228 
L 2594 3381 
L 3188 3381 
L 1888 0 
Q 1678 -541 1497 -805 
Q 1316 -1069 1095 -1198 
Q 875 -1328 597 -1328 
z
" transform="scale(0.015625)"/>
      </defs>
      <use xlink:href="#LiberationSans-4d"/>
      <use xlink:href="#LiberationSans-65" transform="translate(83.300781 0)"/>
      <use xlink:href="#LiberationSans-61" transform="translate(138.916016 0)"/>
      <use xlink:href="#LiberationSans-73" transform="translate(194.53125 0)"/>
      <use xlink:href="#LiberationSans-75" transform="translate(244.53125 0)"/>
      <use xlink:href="#LiberationSans-72" transform="translate(300.146484 0)"/>
      <use xlink:href="#LiberationSans-65" transform="translate(333.447266 0)"/>
      <use xlink:href="#LiberationSans-6d" transform="translate(389.0625 0)"/>
      <use xlink:href="#LiberationSans-65" transform="translate(472.363281 0)"/>
      <use xlink:href="#LiberationSans-6e" transform="translate(527.978516 0)"/>
      <use xlink:href="#LiberationSans-74" transform="translate(583.59375 0)"/>
      <use xlink:href="#LiberationSans-20" transform="translate(611.376953 0)"/>
      <use xlink:href="#LiberationSans-56" transform="translate(639.160156 0)"/>
      <use xlink:href="#LiberationSans-61" transform="translate(698.484375 0)"/>
      <use xlink:href="#LiberationSans-6c" transform="translate(754.099609 0)"/>
      <use xlink:href="#LiberationSans-75" transform="translate(776.316406 0)"/>
      <use xlink:href="#LiberationSans-65" transform="translate(831.931641 0)"/>
      <use xlink:href="#LiberationSans-20" transform="translate(887.546875 0)"/>
      <use xlink:href="#LiberationSans-28" transform="translate(915.330078 0)"/>
      <use xlink:href="#LiberationSans-79" transform="translate(948.630859 0)"/>
      <use xlink:href="#LiberationSans-29" transform="translate(998.630859 0)"/>
     </g>
    </g>
   </g>
   <g id="line2d_27">
    <path d="M 92.290909 240.37019 
L 100.423538 241.86658 
L 108.556167 243.143191 
L 116.688796 244.200021 
L 124.821425 245.037071 
L 132.954054 245.654342 
L 141.086682 246.051833 
L 149.219311 246.229544 
L 157.35194 246.187475 
L 165.484569 245.925626 
L 173.617198 245.443997 
L 181.749827 244.742589 
L 189.882456 243.8214 
L 198.015085 242.680432 
L 206.147714 241.319684 
L 214.280343 239.739155 
L 222.412971 237.938848 
L 230.5456 235.91876 
L 238.678229 233.678892 
L 246.810858 231.219244 
L 254.943487 228.539817 
L 263.076116 225.640609 
L 271.208745 222.521622 
L 279.341374 219.182855 
L 287.474003 215.624308 
L 296.419894 211.456061 
L 305.365786 207.02188 
L 314.311678 202.321765 
L 323.25757 197.355716 
L 332.203461 192.123734 
L 341.149353 186.625819 
L 350.095245 180.861969 
L 359.041137 174.832186 
L 367.987029 168.53647 
L 376.93292 161.97482 
L 385.878812 155.147236 
L 394.824704 148.053718 
L 403.770596 140.694267 
L 412.716488 133.068882 
L 422.475642 124.446984 
L 432.234797 115.508603 
L 441.993952 106.253739 
L 451.753106 96.682392 
L 461.512261 86.794562 
L 471.271416 76.590249 
L 481.03057 66.069453 
L 490.789725 55.232174 
L 498.109091 46.896523 
L 498.109091 46.896523 
" clip-path="url(#pde97d8c36d)" style="fill: none; stroke: #000000; stroke-width: 2.5; stroke-linecap: round"/>
   </g>
   <g id="patch_3">
    <path d="M 72 256.32 
L 72 34.56 
" style="fill: none; stroke: #cccccc; stroke-linejoin: miter; stroke-linecap: square"/>
   </g>
   <g id="patch_4">
    <path d="M 518.4 256.32 
L 518.4 34.56 
" style="fill: none; stroke: #cccccc; stroke-linejoin: miter; stroke-linecap: square"/>
   </g>
   <g id="patch_5">
    <path d="M 72 256.32 
L 518.4 256.32 
" style="fill: none; stroke: #cccccc; stroke-linejoin: miter; stroke-linecap: square"/>
   </g>
   <g id="patch_6">
    <path d="M 72 34.56 
L 518.4 34.56 
" style="fill: none; stroke: #cccccc; stroke-linejoin: miter; stroke-linecap: square"/>
   </g>
   <g id="PathCollection_1">
    <defs>
     <path id="mf6a6f07d80" d="M 0 3.872983 
C 1.027127 3.872983 2.012324 3.464901 2.738613 2.738613 
C 3.464901 2.012324 3.872983 1.027127 3.872983 0 
C 3.872983 -1.027127 3.464901 -2.012324 2.738613 -2.738613 
C 2.012324 -3.464901 1.027127 -3.872983 0 -3.872983 
C -1.027127 -3.872983 -2.012324 -3.464901 -2.738613 -2.738613 
C -3.464901 -2.012324 -3.872983 -1.027127 -3.872983 0 
C -3.872983 1.027127 -3.464901 2.012324 -2.738613 2.738613 
C -2.012324 3.464901 -1.027127 3.872983 0 3.872983 
z
" style="stroke: #000000; stroke-opacity: 0.7"/>
    </defs>
    <g clip-path="url(#pde97d8c36d)">
     <use xlink:href="#mf6a6f07d80" x="233.712397" y="244.289648" style="fill: #d62728; fill-opacity: 0.7; stroke: #000000; stroke-opacity: 0.7"/>
     <use xlink:href="#mf6a6f07d80" x="110.73719" y="234.814062" style="fill: #d62728; fill-opacity: 0.7; stroke: #000000; stroke-opacity: 0.7"/>
     <use xlink:href="#mf6a6f07d80" x="405.877686" y="130.984534" style="fill: #d62728; fill-opacity: 0.7; stroke: #000000; stroke-opacity: 0.7"/>
     <use xlink:href="#mf6a6f07d80" x="479.66281" y="44.64" style="fill: #d62728; fill-opacity: 0.7; stroke: #000000; stroke-opacity: 0.7"/>
    </g>
   </g>
   <g id="text_16">
    <!-- System Measurements vs. True State -->
    <g style="fill: #262626" transform="translate(154.25375 19.56) scale(0.16 -0.16)">
     <defs>
      <path id="LiberationSans-Bold-53" d="M 4019 1269 
Q 4019 969 3909 723 
Q 3800 478 3570 303 
Q 3341 128 2983 32 
Q 2625 -63 2131 -63 
Q 1694 -63 1359 15 
Q 1025 94 786 247 
Q 547 400 398 626 
Q 250 853 184 1147 
L 1075 1294 
Q 1113 1147 1184 1025 
Q 1256 903 1382 814 
Q 1509 725 1698 676 
Q 1888 628 2156 628 
Q 2625 628 2873 770 
Q 3122 913 3122 1216 
Q 3122 1397 3022 1512 
Q 2922 1628 2756 1703 
Q 2591 1778 2375 1828 
Q 2159 1878 1925 1925 
Q 1738 1969 1550 2016 
Q 1363 2063 1192 2128 
Q 1022 2194 875 2284 
Q 728 2375 620 2508 
Q 513 2641 452 2819 
Q 391 2997 391 3238 
Q 391 3566 522 3800 
Q 653 4034 886 4182 
Q 1119 4331 1441 4400 
Q 1763 4469 2144 4469 
Q 2575 4469 2883 4401 
Q 3191 4334 3398 4196 
Q 3606 4059 3726 3851 
Q 3847 3644 3903 3366 
L 3009 3244 
Q 2941 3528 2730 3672 
Q 2519 3816 2125 3816 
Q 1881 3816 1720 3773 
Q 1559 3731 1464 3659 
Q 1369 3588 1328 3492 
Q 1288 3397 1288 3291 
Q 1288 3128 1366 3023 
Q 1444 2919 1584 2848 
Q 1725 2778 1920 2729 
Q 2116 2681 2350 2631 
Q 2556 2588 2759 2539 
Q 2963 2491 3147 2425 
Q 3331 2359 3490 2265 
Q 3650 2172 3767 2036 
Q 3884 1900 3951 1712 
Q 4019 1525 4019 1269 
z
" transform="scale(0.015625)"/>
      <path id="LiberationSans-Bold-79" d="M 1825 753 
L 2606 3381 
L 3525 3381 
L 2188 -178 
Q 1934 -794 1663 -1050 
Q 1366 -1328 884 -1328 
Q 569 -1328 331 -1288 
L 331 -663 
Q 497 -688 630 -688 
Q 763 -688 863 -659 
Q 963 -631 1044 -566 
Q 1203 -434 1331 -116 
L 1388 34 
L 50 3381 
L 978 3381 
L 1825 753 
z
" transform="scale(0.015625)"/>
      <path id="LiberationSans-Bold-73" d="M 3297 988 
Q 3297 744 3195 550 
Q 3094 356 2900 220 
Q 2706 84 2425 10 
Q 2144 -63 1784 -63 
Q 1463 -63 1203 -16 
Q 944 31 748 139 
Q 553 247 422 419 
Q 291 591 225 844 
L 997 959 
Q 1034 819 1100 731 
Q 1166 644 1262 597 
Q 1359 550 1489 534 
Q 1619 519 1784 519 
Q 1934 519 2064 536 
Q 2194 553 2289 595 
Q 2384 638 2437 714 
Q 2491 791 2491 906 
Q 2491 1038 2414 1114 
Q 2338 1191 2205 1239 
Q 2072 1288 1892 1323 
Q 1713 1359 1509 1406 
Q 1297 1453 1090 1518 
Q 884 1584 721 1696 
Q 559 1809 459 1982 
Q 359 2156 359 2422 
Q 359 2663 453 2852 
Q 547 3041 728 3173 
Q 909 3306 1176 3376 
Q 1444 3447 1791 3447 
Q 2066 3447 2303 3395 
Q 2541 3344 2728 3233 
Q 2916 3122 3042 2950 
Q 3169 2778 3219 2534 
L 2441 2453 
Q 2419 2575 2362 2654 
Q 2306 2734 2223 2781 
Q 2141 2828 2031 2845 
Q 1922 2863 1791 2863 
Q 1478 2863 1322 2783 
Q 1166 2703 1166 2516 
Q 1166 2400 1230 2331 
Q 1294 2263 1411 2217 
Q 1528 2172 1689 2139 
Q 1850 2106 2041 2059 
Q 2275 2009 2501 1942 
Q 2728 1875 2904 1758 
Q 3081 1641 3189 1456 
Q 3297 1272 3297 988 
z
" transform="scale(0.015625)"/>
      <path id="LiberationSans-Bold-74" d="M 1313 -56 
Q 925 -56 715 155 
Q 506 366 506 794 
L 506 2788 
L 78 2788 
L 78 3381 
L 550 3381 
L 825 4175 
L 1375 4175 
L 1375 3381 
L 2016 3381 
L 2016 2788 
L 1375 2788 
L 1375 1031 
Q 1375 784 1469 667 
Q 1563 550 1759 550 
Q 1841 550 1906 562 
Q 1972 575 2053 594 
L 2053 50 
Q 1891 -3 1709 -29 
Q 1528 -56 1313 -56 
z
" transform="scale(0.015625)"/>
      <path id="LiberationSans-Bold-65" d="M 1831 -63 
Q 1466 -63 1173 45 
Q 881 153 675 373 
Q 469 594 359 926 
Q 250 1259 250 1706 
Q 250 2191 379 2522 
Q 509 2853 729 3058 
Q 950 3263 1237 3353 
Q 1525 3444 1844 3444 
Q 2244 3444 2526 3305 
Q 2809 3166 2990 2916 
Q 3172 2666 3256 2317 
Q 3341 1969 3341 1547 
L 3341 1522 
L 1172 1522 
Q 1172 1309 1209 1126 
Q 1247 944 1331 811 
Q 1416 678 1550 601 
Q 1684 525 1875 525 
Q 2106 525 2253 623 
Q 2400 722 2463 928 
L 3291 856 
Q 3234 713 3132 550 
Q 3031 388 2862 252 
Q 2694 116 2442 26 
Q 2191 -63 1831 -63 
z
M 1831 2891 
Q 1697 2891 1580 2845 
Q 1463 2800 1377 2701 
Q 1291 2603 1237 2447 
Q 1184 2291 1178 2072 
L 2491 2072 
Q 2466 2481 2294 2686 
Q 2122 2891 1831 2891 
z
" transform="scale(0.015625)"/>
      <path id="LiberationSans-Bold-6d" d="M 2438 0 
L 2438 1897 
Q 2438 2094 2411 2258 
Q 2384 2422 2323 2539 
Q 2263 2656 2164 2722 
Q 2066 2788 1925 2788 
Q 1791 2788 1681 2717 
Q 1572 2647 1492 2517 
Q 1413 2388 1369 2208 
Q 1325 2028 1325 1813 
L 1325 0 
L 447 0 
L 447 2625 
Q 447 2734 445 2850 
Q 444 2966 439 3070 
Q 434 3175 431 3258 
Q 428 3341 422 3381 
L 1259 3381 
Q 1266 3344 1272 3261 
Q 1278 3178 1284 3078 
Q 1291 2978 1295 2878 
Q 1300 2778 1300 2709 
L 1313 2709 
Q 1475 3097 1717 3272 
Q 1959 3447 2297 3447 
Q 2684 3447 2920 3258 
Q 3156 3069 3238 2709 
L 3256 2709 
Q 3347 2919 3451 3059 
Q 3556 3200 3682 3286 
Q 3809 3372 3957 3409 
Q 4106 3447 4281 3447 
Q 4559 3447 4751 3347 
Q 4944 3247 5064 3072 
Q 5184 2897 5239 2659 
Q 5294 2422 5294 2147 
L 5294 0 
L 4422 0 
L 4422 1897 
Q 4422 2094 4395 2258 
Q 4369 2422 4308 2539 
Q 4247 2656 4148 2722 
Q 4050 2788 3909 2788 
Q 3778 2788 3670 2720 
Q 3563 2653 3483 2529 
Q 3403 2406 3359 2234 
Q 3316 2063 3309 1853 
L 3309 0 
L 2438 0 
z
" transform="scale(0.015625)"/>
      <path id="LiberationSans-Bold-20" transform="scale(0.015625)"/>
      <path id="LiberationSans-Bold-4d" d="M 4084 0 
L 4084 2669 
Q 4084 2828 4089 2997 
Q 4094 3166 4100 3306 
Q 4109 3472 4116 3628 
Q 4050 3381 3991 3159 
Q 3966 3066 3937 2966 
Q 3909 2866 3882 2772 
Q 3856 2678 3831 2597 
Q 3806 2516 3788 2456 
L 2994 0 
L 2338 0 
L 1544 2456 
Q 1525 2516 1501 2597 
Q 1478 2678 1451 2772 
Q 1425 2866 1397 2966 
Q 1369 3066 1341 3159 
Q 1278 3381 1209 3628 
Q 1219 3447 1228 3272 
Q 1234 3122 1240 2956 
Q 1247 2791 1247 2669 
L 1247 0 
L 428 0 
L 428 4403 
L 1663 4403 
L 2450 1941 
Q 2481 1844 2517 1703 
Q 2553 1563 2588 1431 
Q 2625 1278 2669 1113 
Q 2713 1275 2753 1425 
Q 2772 1491 2790 1559 
Q 2809 1628 2828 1693 
Q 2847 1759 2865 1818 
Q 2884 1878 2900 1925 
L 3675 4403 
L 4903 4403 
L 4903 0 
L 4084 0 
z
" transform="scale(0.015625)"/>
      <path id="LiberationSans-Bold-61" d="M 1228 -63 
Q 984 -63 792 4 
Q 600 72 465 201 
Q 331 331 259 522 
Q 188 713 188 956 
Q 188 1256 292 1461 
Q 397 1666 578 1792 
Q 759 1919 1003 1976 
Q 1247 2034 1522 2038 
L 2250 2050 
L 2250 2222 
Q 2250 2406 2217 2529 
Q 2184 2653 2121 2731 
Q 2059 2809 1967 2842 
Q 1875 2875 1756 2875 
Q 1647 2875 1561 2853 
Q 1475 2831 1412 2776 
Q 1350 2722 1311 2630 
Q 1272 2538 1256 2397 
L 341 2441 
Q 378 2663 478 2845 
Q 578 3028 754 3162 
Q 931 3297 1189 3370 
Q 1447 3444 1794 3444 
Q 2109 3444 2356 3366 
Q 2603 3288 2775 3133 
Q 2947 2978 3037 2753 
Q 3128 2528 3128 2231 
L 3128 1000 
Q 3128 881 3139 787 
Q 3150 694 3179 630 
Q 3209 566 3264 533 
Q 3319 500 3406 500 
Q 3506 500 3600 519 
L 3600 44 
Q 3522 25 3459 9 
Q 3397 -6 3334 -15 
Q 3272 -25 3201 -31 
Q 3131 -38 3038 -38 
Q 2706 -38 2548 125 
Q 2391 288 2359 603 
L 2341 603 
Q 2166 288 1892 112 
Q 1619 -63 1228 -63 
z
M 2250 1566 
L 1800 1559 
Q 1659 1553 1532 1536 
Q 1406 1519 1311 1464 
Q 1216 1409 1159 1306 
Q 1103 1203 1103 1025 
Q 1103 784 1214 667 
Q 1325 550 1509 550 
Q 1678 550 1815 622 
Q 1953 694 2048 811 
Q 2144 928 2197 1081 
Q 2250 1234 2250 1394 
L 2250 1566 
z
" transform="scale(0.015625)"/>
      <path id="LiberationSans-Bold-75" d="M 1275 3381 
L 1275 1484 
Q 1275 1288 1306 1123 
Q 1338 959 1409 842 
Q 1481 725 1595 659 
Q 1709 594 1875 594 
Q 2034 594 2164 664 
Q 2294 734 2387 864 
Q 2481 994 2532 1173 
Q 2584 1353 2584 1569 
L 2584 3381 
L 3463 3381 
L 3463 756 
Q 3463 650 3464 533 
Q 3466 416 3470 311 
Q 3475 206 3479 123 
Q 3484 41 3488 0 
L 2650 0 
Q 2647 38 2639 120 
Q 2631 203 2626 303 
Q 2622 403 2617 503 
Q 2613 603 2613 672 
L 2597 672 
Q 2422 288 2151 112 
Q 1881 -63 1509 -63 
Q 1206 -63 993 37 
Q 781 138 648 311 
Q 516 484 456 721 
Q 397 959 397 1234 
L 397 3381 
L 1275 3381 
z
" transform="scale(0.015625)"/>
      <path id="LiberationSans-Bold-72" d="M 447 0 
L 447 2588 
Q 447 2697 445 2819 
Q 444 2941 439 3052 
Q 434 3163 431 3252 
Q 428 3341 422 3381 
L 1259 3381 
Q 1266 3344 1272 3251 
Q 1278 3159 1284 3050 
Q 1291 2941 1295 2833 
Q 1300 2725 1300 2659 
L 1313 2659 
Q 1378 2844 1443 2989 
Q 1509 3134 1598 3236 
Q 1688 3338 1813 3392 
Q 1938 3447 2122 3447 
Q 2200 3447 2276 3433 
Q 2353 3419 2394 3400 
L 2394 2666 
Q 2309 2684 2223 2698 
Q 2138 2713 2019 2713 
Q 1691 2713 1508 2447 
Q 1325 2181 1325 1659 
L 1325 0 
L 447 0 
z
" transform="scale(0.015625)"/>
      <path id="LiberationSans-Bold-6e" d="M 2638 0 
L 2638 1897 
Q 2638 2094 2606 2258 
Q 2575 2422 2503 2539 
Q 2431 2656 2315 2722 
Q 2200 2788 2034 2788 
Q 1875 2788 1745 2717 
Q 1616 2647 1522 2517 
Q 1428 2388 1376 2208 
Q 1325 2028 1325 1813 
L 1325 0 
L 447 0 
L 447 2625 
Q 447 2734 445 2850 
Q 444 2966 439 3070 
Q 434 3175 431 3258 
Q 428 3341 422 3381 
L 1259 3381 
Q 1266 3344 1272 3261 
Q 1278 3178 1284 3078 
Q 1291 2978 1295 2878 
Q 1300 2778 1300 2709 
L 1313 2709 
Q 1491 3097 1759 3272 
Q 2028 3447 2400 3447 
Q 2706 3447 2917 3347 
Q 3128 3247 3261 3072 
Q 3394 2897 3453 2659 
Q 3513 2422 3513 2147 
L 3513 0 
L 2638 0 
z
" transform="scale(0.015625)"/>
      <path id="LiberationSans-Bold-76" d="M 1766 709 
L 2613 3381 
L 3531 3381 
L 2284 0 
L 1234 0 
L 25 3381 
L 953 3381 
L 1766 709 
z
" transform="scale(0.015625)"/>
      <path id="LiberationSans-Bold-2e" d="M 434 0 
L 434 953 
L 1338 953 
L 1338 0 
L 434 0 
z
" transform="scale(0.015625)"/>
      <path id="LiberationSans-Bold-54" d="M 2416 3691 
L 2416 0 
L 1494 0 
L 1494 3691 
L 72 3691 
L 72 4403 
L 3841 4403 
L 3841 3691 
L 2416 3691 
z
" transform="scale(0.015625)"/>
     </defs>
     <use xlink:href="#LiberationSans-Bold-53"/>
     <use xlink:href="#LiberationSans-Bold-79" transform="translate(66.699219 0)"/>
     <use xlink:href="#LiberationSans-Bold-73" transform="translate(122.314453 0)"/>
     <use xlink:href="#LiberationSans-Bold-74" transform="translate(177.929688 0)"/>
     <use xlink:href="#LiberationSans-Bold-65" transform="translate(211.230469 0)"/>
     <use xlink:href="#LiberationSans-Bold-6d" transform="translate(266.845703 0)"/>
     <use xlink:href="#LiberationSans-Bold-20" transform="translate(355.761719 0)"/>
     <use xlink:href="#LiberationSans-Bold-4d" transform="translate(383.544922 0)"/>
     <use xlink:href="#LiberationSans-Bold-65" transform="translate(466.845703 0)"/>
     <use xlink:href="#LiberationSans-Bold-61" transform="translate(522.460938 0)"/>
     <use xlink:href="#LiberationSans-Bold-73" transform="translate(578.076172 0)"/>
     <use xlink:href="#LiberationSans-Bold-75" transform="translate(633.691406 0)"/>
     <use xlink:href="#LiberationSans-Bold-72" transform="translate(694.775391 0)"/>
     <use xlink:href="#LiberationSans-Bold-65" transform="translate(733.691406 0)"/>
     <use xlink:href="#LiberationSans-Bold-6d" transform="translate(789.306641 0)"/>
     <use xlink:href="#LiberationSans-Bold-65" transform="translate(878.222656 0)"/>
     <use xlink:href="#LiberationSans-Bold-6e" transform="translate(933.837891 0)"/>
     <use xlink:href="#LiberationSans-Bold-74" transform="translate(994.921875 0)"/>
     <use xlink:href="#LiberationSans-Bold-73" transform="translate(1028.222656 0)"/>
     <use xlink:href="#LiberationSans-Bold-20" transform="translate(1083.837891 0)"/>
     <use xlink:href="#LiberationSans-Bold-76" transform="translate(1111.621094 0)"/>
     <use xlink:href="#LiberationSans-Bold-73" transform="translate(1167.236328 0)"/>
     <use xlink:href="#LiberationSans-Bold-2e" transform="translate(1222.851562 0)"/>
     <use xlink:href="#LiberationSans-Bold-20" transform="translate(1250.634766 0)"/>
     <use xlink:href="#LiberationSans-Bold-54" transform="translate(1278.417969 0)"/>
     <use xlink:href="#LiberationSans-Bold-72" transform="translate(1334.001953 0)"/>
     <use xlink:href="#LiberationSans-Bold-75" transform="translate(1372.917969 0)"/>
     <use xlink:href="#LiberationSans-Bold-65" transform="translate(1434.001953 0)"/>
     <use xlink:href="#LiberationSans-Bold-20" transform="translate(1489.617188 0)"/>
     <use xlink:href="#LiberationSans-Bold-53" transform="translate(1517.400391 0)"/>
     <use xlink:href="#LiberationSans-Bold-74" transform="translate(1584.099609 0)"/>
     <use xlink:href="#LiberationSans-Bold-61" transform="translate(1617.400391 0)"/>
     <use xlink:href="#LiberationSans-Bold-74" transform="translate(1673.015625 0)"/>
     <use xlink:href="#LiberationSans-Bold-65" transform="translate(1706.316406 0)"/>
    </g>
   </g>
   <g id="legend_1">
    <g id="patch_7">
     <path d="M 81.7 76.868125 
L 228.972813 76.868125 
Q 231.172812 76.868125 231.172812 74.668125 
L 231.172812 44.26 
Q 231.172812 42.06 228.972813 42.06 
L 81.7 42.06 
Q 79.5 42.06 79.5 44.26 
L 79.5 74.668125 
Q 79.5 76.868125 81.7 76.868125 
z
" style="fill: #4d4d4d; opacity: 0.5; stroke: #4d4d4d; stroke-linejoin: miter"/>
    </g>
    <g id="patch_8">
     <path d="M 79.7 74.868125 
L 226.972813 74.868125 
Q 229.172812 74.868125 229.172812 72.668125 
L 229.172812 42.26 
Q 229.172812 40.06 226.972813 40.06 
L 79.7 40.06 
Q 77.5 40.06 77.5 42.26 
L 77.5 72.668125 
Q 77.5 74.868125 79.7 74.868125 
z
" style="fill: #ffffff; stroke: #cccccc; stroke-linejoin: miter"/>
    </g>
    <g id="line2d_28">
     <path d="M 81.9 48.581563 
L 92.9 48.581563 
L 103.9 48.581563 
" style="fill: none; stroke: #000000; stroke-width: 2.5; stroke-linecap: round"/>
    </g>
    <g id="text_17">
     <!-- True Polynomial Model -->
     <g style="fill: #262626" transform="translate(112.7 52.431563) scale(0.11 -0.11)">
      <defs>
       <path id="LiberationSans-54" d="M 2250 3916 
L 2250 0 
L 1656 0 
L 1656 3916 
L 144 3916 
L 144 4403 
L 3763 4403 
L 3763 3916 
L 2250 3916 
z
" transform="scale(0.015625)"/>
       <path id="LiberationSans-64" d="M 2566 544 
Q 2409 219 2151 78 
Q 1894 -63 1513 -63 
Q 872 -63 570 368 
Q 269 800 269 1675 
Q 269 3444 1513 3444 
Q 1897 3444 2153 3303 
Q 2409 3163 2566 2856 
L 2572 2856 
L 2566 3234 
L 2566 4638 
L 3128 4638 
L 3128 697 
Q 3128 169 3147 0 
L 2609 0 
Q 2600 50 2589 231 
Q 2578 413 2578 544 
L 2566 544 
z
M 859 1694 
Q 859 984 1046 678 
Q 1234 372 1656 372 
Q 2134 372 2350 703 
Q 2566 1034 2566 1731 
Q 2566 2403 2350 2715 
Q 2134 3028 1663 3028 
Q 1238 3028 1048 2714 
Q 859 2400 859 1694 
z
" transform="scale(0.015625)"/>
      </defs>
      <use xlink:href="#LiberationSans-54"/>
      <use xlink:href="#LiberationSans-72" transform="translate(57.333984 0)"/>
      <use xlink:href="#LiberationSans-75" transform="translate(90.634766 0)"/>
      <use xlink:href="#LiberationSans-65" transform="translate(146.25 0)"/>
      <use xlink:href="#LiberationSans-20" transform="translate(201.865234 0)"/>
      <use xlink:href="#LiberationSans-50" transform="translate(229.648438 0)"/>
      <use xlink:href="#LiberationSans-6f" transform="translate(296.347656 0)"/>
      <use xlink:href="#LiberationSans-6c" transform="translate(351.962891 0)"/>
      <use xlink:href="#LiberationSans-79" transform="translate(374.179688 0)"/>
      <use xlink:href="#LiberationSans-6e" transform="translate(424.179688 0)"/>
      <use xlink:href="#LiberationSans-6f" transform="translate(479.794922 0)"/>
      <use xlink:href="#LiberationSans-6d" transform="translate(535.410156 0)"/>
      <use xlink:href="#LiberationSans-69" transform="translate(618.710938 0)"/>
      <use xlink:href="#LiberationSans-61" transform="translate(640.927734 0)"/>
      <use xlink:href="#LiberationSans-6c" transform="translate(696.542969 0)"/>
      <use xlink:href="#LiberationSans-20" transform="translate(718.759766 0)"/>
      <use xlink:href="#LiberationSans-4d" transform="translate(746.542969 0)"/>
      <use xlink:href="#LiberationSans-6f" transform="translate(829.84375 0)"/>
      <use xlink:href="#LiberationSans-64" transform="translate(885.458984 0)"/>
      <use xlink:href="#LiberationSans-65" transform="translate(941.074219 0)"/>
      <use xlink:href="#LiberationSans-6c" transform="translate(996.689453 0)"/>
     </g>
    </g>
    <g id="PathCollection_2">
     <g>
      <use xlink:href="#mf6a6f07d80" x="92.9" y="65.298125" style="fill: #d62728; fill-opacity: 0.7; stroke: #000000; stroke-opacity: 0.7"/>
     </g>
    </g>
    <g id="text_18">
     <!-- Measurements -->
     <g style="fill: #262626" transform="translate(112.7 68.185625) scale(0.11 -0.11)">
      <use xlink:href="#LiberationSans-4d"/>
      <use xlink:href="#LiberationSans-65" transform="translate(83.300781 0)"/>
      <use xlink:href="#LiberationSans-61" transform="translate(138.916016 0)"/>
      <use xlink:href="#LiberationSans-73" transform="translate(194.53125 0)"/>
      <use xlink:href="#LiberationSans-75" transform="translate(244.53125 0)"/>
      <use xlink:href="#LiberationSans-72" transform="translate(300.146484 0)"/>
      <use xlink:href="#LiberationSans-65" transform="translate(333.447266 0)"/>
      <use xlink:href="#LiberationSans-6d" transform="translate(389.0625 0)"/>
      <use xlink:href="#LiberationSans-65" transform="translate(472.363281 0)"/>
      <use xlink:href="#LiberationSans-6e" transform="translate(527.978516 0)"/>
      <use xlink:href="#LiberationSans-74" transform="translate(583.59375 0)"/>
      <use xlink:href="#LiberationSans-73" transform="translate(611.376953 0)"/>
     </g>
    </g>
   </g>
  </g>
 </g>
 <defs>
  <clipPath id="pde97d8c36d">
   <rect x="72" y="34.56" width="446.4" height="221.76"/>
  </clipPath>
 </defs>
</svg>
