<?xml version="1.0" encoding="utf-8" standalone="no"?>
<!DOCTYPE svg PUBLIC "-//W3C//DTD SVG 1.1//EN"
  "http://www.w3.org/Graphics/SVG/1.1/DTD/svg11.dtd">
<svg xmlns:xlink="http://www.w3.org/1999/xlink" width="864pt" height="288pt" viewBox="0 0 864 288" xmlns="http://www.w3.org/2000/svg" version="1.1">
 <metadata>
  <rdf:RDF xmlns:dc="http://purl.org/dc/elements/1.1/" xmlns:cc="http://creativecommons.org/ns#" xmlns:rdf="http://www.w3.org/1999/02/22-rdf-syntax-ns#">
   <cc:Work>
    <dc:type rdf:resource="http://purl.org/dc/dcmitype/StillImage"/>
    <dc:date>2026-05-07T19:53:55.946313</dc:date>
    <dc:format>image/svg+xml</dc:format>
    <dc:creator>
     <cc:Agent>
      <dc:title>Matplotlib v3.10.9, https://matplotlib.org/</dc:title>
     </cc:Agent>
    </dc:creator>
   </cc:Work>
  </rdf:RDF>
 </metadata>
 <defs>
  <style type="text/css">*{stroke-linejoin: round; stroke-linecap: butt}</style>
 </defs>
 <g id="figure_1">
  <g id="patch_1">
   <path d="M 0 288 
L 864 288 
L 864 0 
L 0 0 
z
" style="fill: #ffffff"/>
  </g>
  <g id="axes_1">
   <g id="patch_2">
    <path d="M 43.05 248.82 
L 853.2 248.82 
L 853.2 37.32 
L 43.05 37.32 
z
" style="fill: #ffffff"/>
   </g>
   <g id="matplotlib.axis_1">
    <g id="xtick_1">
     <g id="line2d_1">
      <path d="M 79.875 248.82 
L 79.875 37.32 
" clip-path="url(#pee67a9c0f3)" style="fill: none; stroke: #cccccc; stroke-width: 0.8; stroke-linecap: round"/>
     </g>
     <g id="line2d_2"/>
     <g id="text_1">
      <!-- 0 -->
      <g style="fill: #262626" transform="translate(77.094531 259.566875) scale(0.1 -0.1)">
       <defs>
        <path id="LiberationSans-30" d="M 3309 2203 
Q 3309 1100 2920 518 
Q 2531 -63 1772 -63 
Q 1013 -63 631 515 
Q 250 1094 250 2203 
Q 250 3338 620 3903 
Q 991 4469 1791 4469 
Q 2569 4469 2939 3897 
Q 3309 3325 3309 2203 
z
M 2738 2203 
Q 2738 3156 2517 3584 
Q 2297 4013 1791 4013 
Q 1272 4013 1045 3591 
Q 819 3169 819 2203 
Q 819 1266 1048 831 
Q 1278 397 1778 397 
Q 2275 397 2506 840 
Q 2738 1284 2738 2203 
z
" transform="scale(0.015625)"/>
       </defs>
       <use xlink:href="#LiberationSans-30"/>
      </g>
     </g>
    </g>
    <g id="xtick_2">
     <g id="line2d_3">
      <path d="M 202.625 248.82 
L 202.625 37.32 
" clip-path="url(#pee67a9c0f3)" style="fill: none; stroke: #cccccc; stroke-width: 0.8; stroke-linecap: round"/>
     </g>
     <g id="line2d_4"/>
     <g id="text_2">
      <!-- 5 -->
      <g style="fill: #262626" transform="translate(199.844531 259.566875) scale(0.1 -0.1)">
       <defs>
        <path id="LiberationSans-35" d="M 3291 1434 
Q 3291 738 2877 337 
Q 2463 -63 1728 -63 
Q 1113 -63 734 206 
Q 356 475 256 984 
L 825 1050 
Q 1003 397 1741 397 
Q 2194 397 2450 670 
Q 2706 944 2706 1422 
Q 2706 1838 2448 2094 
Q 2191 2350 1753 2350 
Q 1525 2350 1328 2278 
Q 1131 2206 934 2034 
L 384 2034 
L 531 4403 
L 3034 4403 
L 3034 3925 
L 1044 3925 
L 959 2528 
Q 1325 2809 1869 2809 
Q 2519 2809 2905 2428 
Q 3291 2047 3291 1434 
z
" transform="scale(0.015625)"/>
       </defs>
       <use xlink:href="#LiberationSans-35"/>
      </g>
     </g>
    </g>
    <g id="xtick_3">
     <g id="line2d_5">
      <path d="M 325.375 248.82 
L 325.375 37.32 
" clip-path="url(#pee67a9c0f3)" style="fill: none; stroke: #cccccc; stroke-width: 0.8; stroke-linecap: round"/>
     </g>
     <g id="line2d_6"/>
     <g id="text_3">
      <!-- 10 -->
      <g style="fill: #262626" transform="translate(319.814063 259.566875) scale(0.1 -0.1)">
       <defs>
        <path id="LiberationSans-31" d="M 488 0 
L 488 478 
L 1609 478 
L 1609 3866 
L 616 3156 
L 616 3688 
L 1656 4403 
L 2175 4403 
L 2175 478 
L 3247 478 
L 3247 0 
L 488 0 
z
" transform="scale(0.015625)"/>
       </defs>
       <use xlink:href="#LiberationSans-31"/>
       <use xlink:href="#LiberationSans-30" transform="translate(55.615234 0)"/>
      </g>
     </g>
    </g>
    <g id="xtick_4">
     <g id="line2d_7">
      <path d="M 448.125 248.82 
L 448.125 37.32 
" clip-path="url(#pee67a9c0f3)" style="fill: none; stroke: #cccccc; stroke-width: 0.8; stroke-linecap: round"/>
     </g>
     <g id="line2d_8"/>
     <g id="text_4">
      <!-- 15 -->
      <g style="fill: #262626" transform="translate(442.564063 259.566875) scale(0.1 -0.1)">
       <use xlink:href="#LiberationSans-31"/>
       <use xlink:href="#LiberationSans-35" transform="translate(55.615234 0)"/>
      </g>
     </g>
    </g>
    <g id="xtick_5">
     <g id="line2d_9">
      <path d="M 570.875 248.82 
L 570.875 37.32 
" clip-path="url(#pee67a9c0f3)" style="fill: none; stroke: #cccccc; stroke-width: 0.8; stroke-linecap: round"/>
     </g>
     <g id="line2d_10"/>
     <g id="text_5">
      <!-- 20 -->
      <g style="fill: #262626" transform="translate(565.314063 259.566875) scale(0.1 -0.1)">
       <defs>
        <path id="LiberationSans-32" d="M 322 0 
L 322 397 
Q 481 763 711 1042 
Q 941 1322 1194 1548 
Q 1447 1775 1695 1969 
Q 1944 2163 2144 2356 
Q 2344 2550 2467 2762 
Q 2591 2975 2591 3244 
Q 2591 3606 2378 3806 
Q 2166 4006 1788 4006 
Q 1428 4006 1195 3811 
Q 963 3616 922 3263 
L 347 3316 
Q 409 3844 795 4156 
Q 1181 4469 1788 4469 
Q 2453 4469 2811 4155 
Q 3169 3841 3169 3263 
Q 3169 3006 3051 2753 
Q 2934 2500 2703 2247 
Q 2472 1994 1819 1463 
Q 1459 1169 1246 933 
Q 1034 697 941 478 
L 3238 478 
L 3238 0 
L 322 0 
z
" transform="scale(0.015625)"/>
       </defs>
       <use xlink:href="#LiberationSans-32"/>
       <use xlink:href="#LiberationSans-30" transform="translate(55.615234 0)"/>
      </g>
     </g>
    </g>
    <g id="xtick_6">
     <g id="line2d_11">
      <path d="M 693.625 248.82 
L 693.625 37.32 
" clip-path="url(#pee67a9c0f3)" style="fill: none; stroke: #cccccc; stroke-width: 0.8; stroke-linecap: round"/>
     </g>
     <g id="line2d_12"/>
     <g id="text_6">
      <!-- 25 -->
      <g style="fill: #262626" transform="translate(688.064063 259.566875) scale(0.1 -0.1)">
       <use xlink:href="#LiberationSans-32"/>
       <use xlink:href="#LiberationSans-35" transform="translate(55.615234 0)"/>
      </g>
     </g>
    </g>
    <g id="xtick_7">
     <g id="line2d_13">
      <path d="M 816.375 248.82 
L 816.375 37.32 
" clip-path="url(#pee67a9c0f3)" style="fill: none; stroke: #cccccc; stroke-width: 0.8; stroke-linecap: round"/>
     </g>
     <g id="line2d_14"/>
     <g id="text_7">
      <!-- 30 -->
      <g style="fill: #262626" transform="translate(810.814063 259.566875) scale(0.1 -0.1)">
       <defs>
        <path id="LiberationSans-33" d="M 3278 1216 
Q 3278 606 2890 271 
Q 2503 -63 1784 -63 
Q 1116 -63 717 239 
Q 319 541 244 1131 
L 825 1184 
Q 938 403 1784 403 
Q 2209 403 2451 612 
Q 2694 822 2694 1234 
Q 2694 1594 2417 1795 
Q 2141 1997 1619 1997 
L 1300 1997 
L 1300 2484 
L 1606 2484 
Q 2069 2484 2323 2686 
Q 2578 2888 2578 3244 
Q 2578 3597 2370 3801 
Q 2163 4006 1753 4006 
Q 1381 4006 1151 3815 
Q 922 3625 884 3278 
L 319 3322 
Q 381 3863 767 4166 
Q 1153 4469 1759 4469 
Q 2422 4469 2789 4161 
Q 3156 3853 3156 3303 
Q 3156 2881 2920 2617 
Q 2684 2353 2234 2259 
L 2234 2247 
Q 2728 2194 3003 1916 
Q 3278 1638 3278 1216 
z
" transform="scale(0.015625)"/>
       </defs>
       <use xlink:href="#LiberationSans-33"/>
       <use xlink:href="#LiberationSans-30" transform="translate(55.615234 0)"/>
      </g>
     </g>
    </g>
    <g id="text_8">
     <!-- Iteration Step -->
     <g style="fill: #262626" transform="translate(412.438125 274.338125) scale(0.12 -0.12)">
      <defs>
       <path id="LiberationSans-49" d="M 591 0 
L 591 4403 
L 1188 4403 
L 1188 0 
L 591 0 
z
" transform="scale(0.015625)"/>
       <path id="LiberationSans-74" d="M 1731 25 
Q 1453 -50 1163 -50 
Q 488 -50 488 716 
L 488 2972 
L 97 2972 
L 97 3381 
L 509 3381 
L 675 4138 
L 1050 4138 
L 1050 3381 
L 1675 3381 
L 1675 2972 
L 1050 2972 
L 1050 838 
Q 1050 594 1129 495 
Q 1209 397 1406 397 
Q 1519 397 1731 441 
L 1731 25 
z
" transform="scale(0.015625)"/>
       <path id="LiberationSans-65" d="M 863 1572 
Q 863 991 1103 675 
Q 1344 359 1806 359 
Q 2172 359 2392 506 
Q 2613 653 2691 878 
L 3184 738 
Q 2881 -63 1806 -63 
Q 1056 -63 664 384 
Q 272 831 272 1713 
Q 272 2550 664 2997 
Q 1056 3444 1784 3444 
Q 3275 3444 3275 1647 
L 3275 1572 
L 863 1572 
z
M 2694 2003 
Q 2647 2538 2422 2783 
Q 2197 3028 1775 3028 
Q 1366 3028 1127 2754 
Q 888 2481 869 2003 
L 2694 2003 
z
" transform="scale(0.015625)"/>
       <path id="LiberationSans-72" d="M 444 0 
L 444 2594 
Q 444 2950 425 3381 
L 956 3381 
Q 981 2806 981 2691 
L 994 2691 
Q 1128 3125 1303 3284 
Q 1478 3444 1797 3444 
Q 1909 3444 2025 3413 
L 2025 2897 
Q 1913 2928 1725 2928 
Q 1375 2928 1190 2626 
Q 1006 2325 1006 1763 
L 1006 0 
L 444 0 
z
" transform="scale(0.015625)"/>
       <path id="LiberationSans-61" d="M 1294 -63 
Q 784 -63 528 206 
Q 272 475 272 944 
Q 272 1469 617 1750 
Q 963 2031 1731 2050 
L 2491 2063 
L 2491 2247 
Q 2491 2659 2316 2837 
Q 2141 3016 1766 3016 
Q 1388 3016 1216 2887 
Q 1044 2759 1009 2478 
L 422 2531 
Q 566 3444 1778 3444 
Q 2416 3444 2737 3151 
Q 3059 2859 3059 2306 
L 3059 850 
Q 3059 600 3125 473 
Q 3191 347 3375 347 
Q 3456 347 3559 369 
L 3559 19 
Q 3347 -31 3125 -31 
Q 2813 -31 2670 133 
Q 2528 297 2509 647 
L 2491 647 
Q 2275 259 1989 98 
Q 1703 -63 1294 -63 
z
M 1422 359 
Q 1731 359 1972 500 
Q 2213 641 2352 886 
Q 2491 1131 2491 1391 
L 2491 1669 
L 1875 1656 
Q 1478 1650 1273 1575 
Q 1069 1500 959 1344 
Q 850 1188 850 934 
Q 850 659 998 509 
Q 1147 359 1422 359 
z
" transform="scale(0.015625)"/>
       <path id="LiberationSans-69" d="M 428 4100 
L 428 4638 
L 991 4638 
L 991 4100 
L 428 4100 
z
M 428 0 
L 428 3381 
L 991 3381 
L 991 0 
L 428 0 
z
" transform="scale(0.015625)"/>
       <path id="LiberationSans-6f" d="M 3291 1694 
Q 3291 806 2900 371 
Q 2509 -63 1766 -63 
Q 1025 -63 647 389 
Q 269 841 269 1694 
Q 269 3444 1784 3444 
Q 2559 3444 2925 3017 
Q 3291 2591 3291 1694 
z
M 2700 1694 
Q 2700 2394 2492 2711 
Q 2284 3028 1794 3028 
Q 1300 3028 1079 2704 
Q 859 2381 859 1694 
Q 859 1025 1076 689 
Q 1294 353 1759 353 
Q 2266 353 2483 678 
Q 2700 1003 2700 1694 
z
" transform="scale(0.015625)"/>
       <path id="LiberationSans-6e" d="M 2578 0 
L 2578 2144 
Q 2578 2478 2512 2662 
Q 2447 2847 2303 2928 
Q 2159 3009 1881 3009 
Q 1475 3009 1240 2731 
Q 1006 2453 1006 1959 
L 1006 0 
L 444 0 
L 444 2659 
Q 444 3250 425 3381 
L 956 3381 
Q 959 3366 962 3297 
Q 966 3228 970 3139 
Q 975 3050 981 2803 
L 991 2803 
Q 1184 3153 1439 3298 
Q 1694 3444 2072 3444 
Q 2628 3444 2886 3167 
Q 3144 2891 3144 2253 
L 3144 0 
L 2578 0 
z
" transform="scale(0.015625)"/>
       <path id="LiberationSans-20" transform="scale(0.015625)"/>
       <path id="LiberationSans-53" d="M 3975 1216 
Q 3975 606 3498 271 
Q 3022 -63 2156 -63 
Q 547 -63 291 1056 
L 869 1172 
Q 969 775 1294 589 
Q 1619 403 2178 403 
Q 2756 403 3070 601 
Q 3384 800 3384 1184 
Q 3384 1400 3286 1534 
Q 3188 1669 3009 1756 
Q 2831 1844 2584 1903 
Q 2338 1963 2038 2031 
Q 1516 2147 1245 2262 
Q 975 2378 819 2520 
Q 663 2663 580 2853 
Q 497 3044 497 3291 
Q 497 3856 930 4162 
Q 1363 4469 2169 4469 
Q 2919 4469 3316 4239 
Q 3713 4009 3872 3456 
L 3284 3353 
Q 3188 3703 2916 3861 
Q 2644 4019 2163 4019 
Q 1634 4019 1356 3844 
Q 1078 3669 1078 3322 
Q 1078 3119 1186 2986 
Q 1294 2853 1497 2761 
Q 1700 2669 2306 2534 
Q 2509 2488 2711 2439 
Q 2913 2391 3097 2323 
Q 3281 2256 3442 2165 
Q 3603 2075 3722 1944 
Q 3841 1813 3908 1634 
Q 3975 1456 3975 1216 
z
" transform="scale(0.015625)"/>
       <path id="LiberationSans-70" d="M 3291 1706 
Q 3291 -63 2047 -63 
Q 1266 -63 997 525 
L 981 525 
Q 994 500 994 -6 
L 994 -1328 
L 431 -1328 
L 431 2691 
Q 431 3213 413 3381 
L 956 3381 
Q 959 3369 965 3292 
Q 972 3216 980 3056 
Q 988 2897 988 2838 
L 1000 2838 
Q 1150 3150 1397 3295 
Q 1644 3441 2047 3441 
Q 2672 3441 2981 3022 
Q 3291 2603 3291 1706 
z
M 2700 1694 
Q 2700 2400 2509 2703 
Q 2319 3006 1903 3006 
Q 1569 3006 1380 2865 
Q 1191 2725 1092 2426 
Q 994 2128 994 1650 
Q 994 984 1206 668 
Q 1419 353 1897 353 
Q 2316 353 2508 661 
Q 2700 969 2700 1694 
z
" transform="scale(0.015625)"/>
      </defs>
      <use xlink:href="#LiberationSans-49"/>
      <use xlink:href="#LiberationSans-74" transform="translate(27.783203 0)"/>
      <use xlink:href="#LiberationSans-65" transform="translate(55.566406 0)"/>
      <use xlink:href="#LiberationSans-72" transform="translate(111.181641 0)"/>
      <use xlink:href="#LiberationSans-61" transform="translate(144.482422 0)"/>
      <use xlink:href="#LiberationSans-74" transform="translate(200.097656 0)"/>
      <use xlink:href="#LiberationSans-69" transform="translate(227.880859 0)"/>
      <use xlink:href="#LiberationSans-6f" transform="translate(250.097656 0)"/>
      <use xlink:href="#LiberationSans-6e" transform="translate(305.712891 0)"/>
      <use xlink:href="#LiberationSans-20" transform="translate(361.328125 0)"/>
      <use xlink:href="#LiberationSans-53" transform="translate(389.111328 0)"/>
      <use xlink:href="#LiberationSans-74" transform="translate(455.810547 0)"/>
      <use xlink:href="#LiberationSans-65" transform="translate(483.59375 0)"/>
      <use xlink:href="#LiberationSans-70" transform="translate(539.208984 0)"/>
     </g>
    </g>
   </g>
   <g id="matplotlib.axis_2">
    <g id="ytick_1">
     <g id="line2d_15">
      <path d="M 43.05 239.206364 
L 853.2 239.206364 
" clip-path="url(#pee67a9c0f3)" style="fill: none; stroke: #cccccc; stroke-width: 0.8; stroke-linecap: round"/>
     </g>
     <g id="line2d_16"/>
     <g id="text_9">
      <!-- 0.0 -->
      <g style="fill: #262626" transform="translate(25.65 242.829801) scale(0.1 -0.1)">
       <defs>
        <path id="LiberationSans-2e" d="M 584 0 
L 584 684 
L 1194 684 
L 1194 0 
L 584 0 
z
" transform="scale(0.015625)"/>
       </defs>
       <use xlink:href="#LiberationSans-30"/>
       <use xlink:href="#LiberationSans-2e" transform="translate(55.615234 0)"/>
       <use xlink:href="#LiberationSans-30" transform="translate(83.398438 0)"/>
      </g>
     </g>
    </g>
    <g id="ytick_2">
     <g id="line2d_17">
      <path d="M 43.05 214.998948 
L 853.2 214.998948 
" clip-path="url(#pee67a9c0f3)" style="fill: none; stroke: #cccccc; stroke-width: 0.8; stroke-linecap: round"/>
     </g>
     <g id="line2d_18"/>
     <g id="text_10">
      <!-- 0.5 -->
      <g style="fill: #262626" transform="translate(25.65 218.622385) scale(0.1 -0.1)">
       <use xlink:href="#LiberationSans-30"/>
       <use xlink:href="#LiberationSans-2e" transform="translate(55.615234 0)"/>
       <use xlink:href="#LiberationSans-35" transform="translate(83.398438 0)"/>
      </g>
     </g>
    </g>
    <g id="ytick_3">
     <g id="line2d_19">
      <path d="M 43.05 190.791532 
L 853.2 190.791532 
" clip-path="url(#pee67a9c0f3)" style="fill: none; stroke: #cccccc; stroke-width: 0.8; stroke-linecap: round"/>
     </g>
     <g id="line2d_20"/>
     <g id="text_11">
      <!-- 1.0 -->
      <g style="fill: #262626" transform="translate(25.65 194.414969) scale(0.1 -0.1)">
       <use xlink:href="#LiberationSans-31"/>
       <use xlink:href="#LiberationSans-2e" transform="translate(55.615234 0)"/>
       <use xlink:href="#LiberationSans-30" transform="translate(83.398438 0)"/>
      </g>
     </g>
    </g>
    <g id="ytick_4">
     <g id="line2d_21">
      <path d="M 43.05 166.584116 
L 853.2 166.584116 
" clip-path="url(#pee67a9c0f3)" style="fill: none; stroke: #cccccc; stroke-width: 0.8; stroke-linecap: round"/>
     </g>
     <g id="line2d_22"/>
     <g id="text_12">
      <!-- 1.5 -->
      <g style="fill: #262626" transform="translate(25.65 170.207553) scale(0.1 -0.1)">
       <use xlink:href="#LiberationSans-31"/>
       <use xlink:href="#LiberationSans-2e" transform="translate(55.615234 0)"/>
       <use xlink:href="#LiberationSans-35" transform="translate(83.398438 0)"/>
      </g>
     </g>
    </g>
    <g id="ytick_5">
     <g id="line2d_23">
      <path d="M 43.05 142.3767 
L 853.2 142.3767 
" clip-path="url(#pee67a9c0f3)" style="fill: none; stroke: #cccccc; stroke-width: 0.8; stroke-linecap: round"/>
     </g>
     <g id="line2d_24"/>
     <g id="text_13">
      <!-- 2.0 -->
      <g style="fill: #262626" transform="translate(25.65 146.000137) scale(0.1 -0.1)">
       <use xlink:href="#LiberationSans-32"/>
       <use xlink:href="#LiberationSans-2e" transform="translate(55.615234 0)"/>
       <use xlink:href="#LiberationSans-30" transform="translate(83.398438 0)"/>
      </g>
     </g>
    </g>
    <g id="ytick_6">
     <g id="line2d_25">
      <path d="M 43.05 118.169284 
L 853.2 118.169284 
" clip-path="url(#pee67a9c0f3)" style="fill: none; stroke: #cccccc; stroke-width: 0.8; stroke-linecap: round"/>
     </g>
     <g id="line2d_26"/>
     <g id="text_14">
      <!-- 2.5 -->
      <g style="fill: #262626" transform="translate(25.65 121.792721) scale(0.1 -0.1)">
       <use xlink:href="#LiberationSans-32"/>
       <use xlink:href="#LiberationSans-2e" transform="translate(55.615234 0)"/>
       <use xlink:href="#LiberationSans-35" transform="translate(83.398438 0)"/>
      </g>
     </g>
    </g>
    <g id="ytick_7">
     <g id="line2d_27">
      <path d="M 43.05 93.961868 
L 853.2 93.961868 
" clip-path="url(#pee67a9c0f3)" style="fill: none; stroke: #cccccc; stroke-width: 0.8; stroke-linecap: round"/>
     </g>
     <g id="line2d_28"/>
     <g id="text_15">
      <!-- 3.0 -->
      <g style="fill: #262626" transform="translate(25.65 97.585305) scale(0.1 -0.1)">
       <use xlink:href="#LiberationSans-33"/>
       <use xlink:href="#LiberationSans-2e" transform="translate(55.615234 0)"/>
       <use xlink:href="#LiberationSans-30" transform="translate(83.398438 0)"/>
      </g>
     </g>
    </g>
    <g id="ytick_8">
     <g id="line2d_29">
      <path d="M 43.05 69.754452 
L 853.2 69.754452 
" clip-path="url(#pee67a9c0f3)" style="fill: none; stroke: #cccccc; stroke-width: 0.8; stroke-linecap: round"/>
     </g>
     <g id="line2d_30"/>
     <g id="text_16">
      <!-- 3.5 -->
      <g style="fill: #262626" transform="translate(25.65 73.377889) scale(0.1 -0.1)">
       <use xlink:href="#LiberationSans-33"/>
       <use xlink:href="#LiberationSans-2e" transform="translate(55.615234 0)"/>
       <use xlink:href="#LiberationSans-35" transform="translate(83.398438 0)"/>
      </g>
     </g>
    </g>
    <g id="ytick_9">
     <g id="line2d_31">
      <path d="M 43.05 45.547036 
L 853.2 45.547036 
" clip-path="url(#pee67a9c0f3)" style="fill: none; stroke: #cccccc; stroke-width: 0.8; stroke-linecap: round"/>
     </g>
     <g id="line2d_32"/>
     <g id="text_17">
      <!-- 4.0 -->
      <g style="fill: #262626" transform="translate(25.65 49.170473) scale(0.1 -0.1)">
       <defs>
        <path id="LiberationSans-34" d="M 2753 997 
L 2753 0 
L 2222 0 
L 2222 997 
L 147 997 
L 147 1434 
L 2163 4403 
L 2753 4403 
L 2753 1441 
L 3372 1441 
L 3372 997 
L 2753 997 
z
M 2222 3769 
Q 2216 3750 2134 3603 
Q 2053 3456 2013 3397 
L 884 1734 
L 716 1503 
L 666 1441 
L 2222 1441 
L 2222 3769 
z
" transform="scale(0.015625)"/>
       </defs>
       <use xlink:href="#LiberationSans-34"/>
       <use xlink:href="#LiberationSans-2e" transform="translate(55.615234 0)"/>
       <use xlink:href="#LiberationSans-30" transform="translate(83.398438 0)"/>
      </g>
     </g>
    </g>
    <g id="text_18">
     <!-- Residual Value (Prediction Error) -->
     <g style="fill: #262626" transform="translate(19.16 230.325938) rotate(-90) scale(0.12 -0.12)">
      <defs>
       <path id="LiberationSans-52" d="M 3638 0 
L 2494 1828 
L 1122 1828 
L 1122 0 
L 525 0 
L 525 4403 
L 2597 4403 
Q 3341 4403 3745 4070 
Q 4150 3738 4150 3144 
Q 4150 2653 3864 2318 
Q 3578 1984 3075 1897 
L 4325 0 
L 3638 0 
z
M 3550 3138 
Q 3550 3522 3289 3723 
Q 3028 3925 2538 3925 
L 1122 3925 
L 1122 2300 
L 2563 2300 
Q 3034 2300 3292 2520 
Q 3550 2741 3550 3138 
z
" transform="scale(0.015625)"/>
       <path id="LiberationSans-73" d="M 2969 934 
Q 2969 456 2608 196 
Q 2247 -63 1597 -63 
Q 966 -63 623 145 
Q 281 353 178 794 
L 675 891 
Q 747 619 972 492 
Q 1197 366 1597 366 
Q 2025 366 2223 497 
Q 2422 628 2422 891 
Q 2422 1091 2284 1216 
Q 2147 1341 1841 1422 
L 1438 1528 
Q 953 1653 748 1773 
Q 544 1894 428 2066 
Q 313 2238 313 2488 
Q 313 2950 642 3192 
Q 972 3434 1603 3434 
Q 2163 3434 2492 3237 
Q 2822 3041 2909 2606 
L 2403 2544 
Q 2356 2769 2151 2889 
Q 1947 3009 1603 3009 
Q 1222 3009 1040 2893 
Q 859 2778 859 2544 
Q 859 2400 934 2306 
Q 1009 2213 1156 2147 
Q 1303 2081 1775 1966 
Q 2222 1853 2419 1758 
Q 2616 1663 2730 1547 
Q 2844 1431 2906 1279 
Q 2969 1128 2969 934 
z
" transform="scale(0.015625)"/>
       <path id="LiberationSans-64" d="M 2566 544 
Q 2409 219 2151 78 
Q 1894 -63 1513 -63 
Q 872 -63 570 368 
Q 269 800 269 1675 
Q 269 3444 1513 3444 
Q 1897 3444 2153 3303 
Q 2409 3163 2566 2856 
L 2572 2856 
L 2566 3234 
L 2566 4638 
L 3128 4638 
L 3128 697 
Q 3128 169 3147 0 
L 2609 0 
Q 2600 50 2589 231 
Q 2578 413 2578 544 
L 2566 544 
z
M 859 1694 
Q 859 984 1046 678 
Q 1234 372 1656 372 
Q 2134 372 2350 703 
Q 2566 1034 2566 1731 
Q 2566 2403 2350 2715 
Q 2134 3028 1663 3028 
Q 1238 3028 1048 2714 
Q 859 2400 859 1694 
z
" transform="scale(0.015625)"/>
       <path id="LiberationSans-75" d="M 981 3381 
L 981 1238 
Q 981 903 1047 718 
Q 1113 534 1256 453 
Q 1400 372 1678 372 
Q 2084 372 2318 650 
Q 2553 928 2553 1422 
L 2553 3381 
L 3116 3381 
L 3116 722 
Q 3116 131 3134 0 
L 2603 0 
Q 2600 16 2597 84 
Q 2594 153 2589 242 
Q 2584 331 2578 578 
L 2569 578 
Q 2375 228 2120 82 
Q 1866 -63 1488 -63 
Q 931 -63 673 214 
Q 416 491 416 1128 
L 416 3381 
L 981 3381 
z
" transform="scale(0.015625)"/>
       <path id="LiberationSans-6c" d="M 431 0 
L 431 4638 
L 994 4638 
L 994 0 
L 431 0 
z
" transform="scale(0.015625)"/>
       <path id="LiberationSans-56" d="M 2444 0 
L 1825 0 
L 28 4403 
L 656 4403 
L 1875 1303 
L 2138 525 
L 2400 1303 
L 3613 4403 
L 4241 4403 
L 2444 0 
z
" transform="scale(0.015625)"/>
       <path id="LiberationSans-28" d="M 397 1663 
Q 397 2566 680 3284 
Q 963 4003 1550 4638 
L 2094 4638 
Q 1509 3988 1236 3256 
Q 963 2525 963 1656 
Q 963 791 1233 62 
Q 1503 -666 2094 -1325 
L 1550 -1325 
Q 959 -688 678 32 
Q 397 753 397 1650 
L 397 1663 
z
" transform="scale(0.015625)"/>
       <path id="LiberationSans-50" d="M 3931 3078 
Q 3931 2453 3523 2084 
Q 3116 1716 2416 1716 
L 1122 1716 
L 1122 0 
L 525 0 
L 525 4403 
L 2378 4403 
Q 3119 4403 3525 4056 
Q 3931 3709 3931 3078 
z
M 3331 3072 
Q 3331 3925 2306 3925 
L 1122 3925 
L 1122 2188 
L 2331 2188 
Q 3331 2188 3331 3072 
z
" transform="scale(0.015625)"/>
       <path id="LiberationSans-63" d="M 859 1706 
Q 859 1031 1071 706 
Q 1284 381 1713 381 
Q 2013 381 2214 543 
Q 2416 706 2463 1044 
L 3031 1006 
Q 2966 519 2616 228 
Q 2266 -63 1728 -63 
Q 1019 -63 645 385 
Q 272 834 272 1694 
Q 272 2547 647 2995 
Q 1022 3444 1722 3444 
Q 2241 3444 2583 3175 
Q 2925 2906 3013 2434 
L 2434 2391 
Q 2391 2672 2212 2837 
Q 2034 3003 1706 3003 
Q 1259 3003 1059 2706 
Q 859 2409 859 1706 
z
" transform="scale(0.015625)"/>
       <path id="LiberationSans-45" d="M 525 0 
L 525 4403 
L 3866 4403 
L 3866 3916 
L 1122 3916 
L 1122 2503 
L 3678 2503 
L 3678 2022 
L 1122 2022 
L 1122 488 
L 3994 488 
L 3994 0 
L 525 0 
z
" transform="scale(0.015625)"/>
       <path id="LiberationSans-29" d="M 1734 1650 
Q 1734 747 1451 28 
Q 1169 -691 581 -1325 
L 38 -1325 
Q 625 -669 897 57 
Q 1169 784 1169 1656 
Q 1169 2528 895 3256 
Q 622 3984 38 4638 
L 581 4638 
Q 1172 4000 1453 3279 
Q 1734 2559 1734 1663 
L 1734 1650 
z
" transform="scale(0.015625)"/>
      </defs>
      <use xlink:href="#LiberationSans-52"/>
      <use xlink:href="#LiberationSans-65" transform="translate(72.216797 0)"/>
      <use xlink:href="#LiberationSans-73" transform="translate(127.832031 0)"/>
      <use xlink:href="#LiberationSans-69" transform="translate(177.832031 0)"/>
      <use xlink:href="#LiberationSans-64" transform="translate(200.048828 0)"/>
      <use xlink:href="#LiberationSans-75" transform="translate(255.664062 0)"/>
      <use xlink:href="#LiberationSans-61" transform="translate(311.279297 0)"/>
      <use xlink:href="#LiberationSans-6c" transform="translate(366.894531 0)"/>
      <use xlink:href="#LiberationSans-20" transform="translate(389.111328 0)"/>
      <use xlink:href="#LiberationSans-56" transform="translate(416.894531 0)"/>
      <use xlink:href="#LiberationSans-61" transform="translate(476.21875 0)"/>
      <use xlink:href="#LiberationSans-6c" transform="translate(531.833984 0)"/>
      <use xlink:href="#LiberationSans-75" transform="translate(554.050781 0)"/>
      <use xlink:href="#LiberationSans-65" transform="translate(609.666016 0)"/>
      <use xlink:href="#LiberationSans-20" transform="translate(665.28125 0)"/>
      <use xlink:href="#LiberationSans-28" transform="translate(693.064453 0)"/>
      <use xlink:href="#LiberationSans-50" transform="translate(726.365234 0)"/>
      <use xlink:href="#LiberationSans-72" transform="translate(793.064453 0)"/>
      <use xlink:href="#LiberationSans-65" transform="translate(826.365234 0)"/>
      <use xlink:href="#LiberationSans-64" transform="translate(881.980469 0)"/>
      <use xlink:href="#LiberationSans-69" transform="translate(937.595703 0)"/>
      <use xlink:href="#LiberationSans-63" transform="translate(959.8125 0)"/>
      <use xlink:href="#LiberationSans-74" transform="translate(1009.8125 0)"/>
      <use xlink:href="#LiberationSans-69" transform="translate(1037.595703 0)"/>
      <use xlink:href="#LiberationSans-6f" transform="translate(1059.8125 0)"/>
      <use xlink:href="#LiberationSans-6e" transform="translate(1115.427734 0)"/>
      <use xlink:href="#LiberationSans-20" transform="translate(1171.042969 0)"/>
      <use xlink:href="#LiberationSans-45" transform="translate(1198.826172 0)"/>
      <use xlink:href="#LiberationSans-72" transform="translate(1265.525391 0)"/>
      <use xlink:href="#LiberationSans-72" transform="translate(1298.826172 0)"/>
      <use xlink:href="#LiberationSans-6f" transform="translate(1332.126953 0)"/>
      <use xlink:href="#LiberationSans-72" transform="translate(1387.742188 0)"/>
      <use xlink:href="#LiberationSans-29" transform="translate(1421.042969 0)"/>
     </g>
    </g>
   </g>
   <g id="line2d_33">
    <path d="M 43.05 239.206364 
L 853.2 239.206364 
" clip-path="url(#pee67a9c0f3)" style="fill: none; stroke: #000000; stroke-width: 1.5; stroke-linecap: round"/>
   </g>
   <g id="line2d_34">
    <path d="M 79.875 46.933636 
L 104.425 161.005759 
L 128.975 219.281385 
L 153.525 224.670875 
L 178.075 227.554995 
L 202.625 229.613158 
L 227.175 231.111597 
L 251.725 232.203497 
L 276.275 233.000986 
L 300.825 233.587629 
L 325.375 234.024573 
L 349.925 234.355536 
L 374.475 234.611172 
L 399.025 234.812756 
L 423.575 234.974917 
L 448.125 235.107796 
L 472.675 235.218473 
L 497.225 235.311991 
L 521.775 235.391982 
L 546.325 235.461128 
L 570.875 235.521448 
L 595.425 235.574486 
L 619.975 235.621444 
L 644.525 235.663279 
L 669.075 235.700752 
L 693.625 235.734483 
L 718.175 235.764984 
L 742.725 235.792673 
L 767.275 235.817911 
L 791.825 235.840995 
L 816.375 235.862172 
" clip-path="url(#pee67a9c0f3)" style="fill: none; stroke: #1f77b4; stroke-opacity: 0.8; stroke-width: 2; stroke-linecap: round"/>
   </g>
   <g id="patch_3">
    <path d="M 43.05 248.82 
L 43.05 37.32 
" style="fill: none; stroke: #cccccc; stroke-linejoin: miter; stroke-linecap: square"/>
   </g>
   <g id="patch_4">
    <path d="M 853.2 248.82 
L 853.2 37.32 
" style="fill: none; stroke: #cccccc; stroke-linejoin: miter; stroke-linecap: square"/>
   </g>
   <g id="patch_5">
    <path d="M 43.05 248.82 
L 853.2 248.82 
" style="fill: none; stroke: #cccccc; stroke-linejoin: miter; stroke-linecap: square"/>
   </g>
   <g id="patch_6">
    <path d="M 43.05 37.32 
L 853.2 37.32 
" style="fill: none; stroke: #cccccc; stroke-linejoin: miter; stroke-linecap: square"/>
   </g>
   <g id="line2d_35">
    <path d="M 79.875 46.933636 
L 104.425 210.161773 
L 128.975 222.105277 
L 153.525 225.136384 
L 178.075 226.187518 
L 202.625 226.756538 
L 227.175 227.150732 
L 251.725 227.455503 
L 276.275 227.704258 
L 300.825 227.913798 
L 325.375 228.094191 
L 349.925 228.251927 
L 374.475 228.391652 
L 399.025 228.516708 
L 423.575 228.629611 
L 448.125 228.73225 
L 472.675 228.826272 
L 497.225 228.912789 
L 521.775 228.992819 
L 546.325 229.067184 
L 570.875 229.136563 
L 595.425 229.201535 
L 619.975 229.262538 
L 644.525 229.320007 
L 669.075 229.374328 
L 693.625 229.425696 
L 718.175 229.474498 
L 742.725 229.52088 
L 767.275 229.565082 
L 791.825 229.607252 
L 816.375 229.64763 
" clip-path="url(#pee67a9c0f3)" style="fill: none; stroke: #ff7f0e; stroke-opacity: 0.8; stroke-width: 2; stroke-linecap: round"/>
   </g>
   <g id="text_19">
    <!-- Measurement Residuals: EKF vs UKF -->
    <g style="fill: #262626" transform="translate(305.87125 22.32) scale(0.16 -0.16)">
     <defs>
      <path id="LiberationSans-Bold-4d" d="M 4084 0 
L 4084 2669 
Q 4084 2828 4089 2997 
Q 4094 3166 4100 3306 
Q 4109 3472 4116 3628 
Q 4050 3381 3991 3159 
Q 3966 3066 3937 2966 
Q 3909 2866 3882 2772 
Q 3856 2678 3831 2597 
Q 3806 2516 3788 2456 
L 2994 0 
L 2338 0 
L 1544 2456 
Q 1525 2516 1501 2597 
Q 1478 2678 1451 2772 
Q 1425 2866 1397 2966 
Q 1369 3066 1341 3159 
Q 1278 3381 1209 3628 
Q 1219 3447 1228 3272 
Q 1234 3122 1240 2956 
Q 1247 2791 1247 2669 
L 1247 0 
L 428 0 
L 428 4403 
L 1663 4403 
L 2450 1941 
Q 2481 1844 2517 1703 
Q 2553 1563 2588 1431 
Q 2625 1278 2669 1113 
Q 2713 1275 2753 1425 
Q 2772 1491 2790 1559 
Q 2809 1628 2828 1693 
Q 2847 1759 2865 1818 
Q 2884 1878 2900 1925 
L 3675 4403 
L 4903 4403 
L 4903 0 
L 4084 0 
z
" transform="scale(0.015625)"/>
      <path id="LiberationSans-Bold-65" d="M 1831 -63 
Q 1466 -63 1173 45 
Q 881 153 675 373 
Q 469 594 359 926 
Q 250 1259 250 1706 
Q 250 2191 379 2522 
Q 509 2853 729 3058 
Q 950 3263 1237 3353 
Q 1525 3444 1844 3444 
Q 2244 3444 2526 3305 
Q 2809 3166 2990 2916 
Q 3172 2666 3256 2317 
Q 3341 1969 3341 1547 
L 3341 1522 
L 1172 1522 
Q 1172 1309 1209 1126 
Q 1247 944 1331 811 
Q 1416 678 1550 601 
Q 1684 525 1875 525 
Q 2106 525 2253 623 
Q 2400 722 2463 928 
L 3291 856 
Q 3234 713 3132 550 
Q 3031 388 2862 252 
Q 2694 116 2442 26 
Q 2191 -63 1831 -63 
z
M 1831 2891 
Q 1697 2891 1580 2845 
Q 1463 2800 1377 2701 
Q 1291 2603 1237 2447 
Q 1184 2291 1178 2072 
L 2491 2072 
Q 2466 2481 2294 2686 
Q 2122 2891 1831 2891 
z
" transform="scale(0.015625)"/>
      <path id="LiberationSans-Bold-61" d="M 1228 -63 
Q 984 -63 792 4 
Q 600 72 465 201 
Q 331 331 259 522 
Q 188 713 188 956 
Q 188 1256 292 1461 
Q 397 1666 578 1792 
Q 759 1919 1003 1976 
Q 1247 2034 1522 2038 
L 2250 2050 
L 2250 2222 
Q 2250 2406 2217 2529 
Q 2184 2653 2121 2731 
Q 2059 2809 1967 2842 
Q 1875 2875 1756 2875 
Q 1647 2875 1561 2853 
Q 1475 2831 1412 2776 
Q 1350 2722 1311 2630 
Q 1272 2538 1256 2397 
L 341 2441 
Q 378 2663 478 2845 
Q 578 3028 754 3162 
Q 931 3297 1189 3370 
Q 1447 3444 1794 3444 
Q 2109 3444 2356 3366 
Q 2603 3288 2775 3133 
Q 2947 2978 3037 2753 
Q 3128 2528 3128 2231 
L 3128 1000 
Q 3128 881 3139 787 
Q 3150 694 3179 630 
Q 3209 566 3264 533 
Q 3319 500 3406 500 
Q 3506 500 3600 519 
L 3600 44 
Q 3522 25 3459 9 
Q 3397 -6 3334 -15 
Q 3272 -25 3201 -31 
Q 3131 -38 3038 -38 
Q 2706 -38 2548 125 
Q 2391 288 2359 603 
L 2341 603 
Q 2166 288 1892 112 
Q 1619 -63 1228 -63 
z
M 2250 1566 
L 1800 1559 
Q 1659 1553 1532 1536 
Q 1406 1519 1311 1464 
Q 1216 1409 1159 1306 
Q 1103 1203 1103 1025 
Q 1103 784 1214 667 
Q 1325 550 1509 550 
Q 1678 550 1815 622 
Q 1953 694 2048 811 
Q 2144 928 2197 1081 
Q 2250 1234 2250 1394 
L 2250 1566 
z
" transform="scale(0.015625)"/>
      <path id="LiberationSans-Bold-73" d="M 3297 988 
Q 3297 744 3195 550 
Q 3094 356 2900 220 
Q 2706 84 2425 10 
Q 2144 -63 1784 -63 
Q 1463 -63 1203 -16 
Q 944 31 748 139 
Q 553 247 422 419 
Q 291 591 225 844 
L 997 959 
Q 1034 819 1100 731 
Q 1166 644 1262 597 
Q 1359 550 1489 534 
Q 1619 519 1784 519 
Q 1934 519 2064 536 
Q 2194 553 2289 595 
Q 2384 638 2437 714 
Q 2491 791 2491 906 
Q 2491 1038 2414 1114 
Q 2338 1191 2205 1239 
Q 2072 1288 1892 1323 
Q 1713 1359 1509 1406 
Q 1297 1453 1090 1518 
Q 884 1584 721 1696 
Q 559 1809 459 1982 
Q 359 2156 359 2422 
Q 359 2663 453 2852 
Q 547 3041 728 3173 
Q 909 3306 1176 3376 
Q 1444 3447 1791 3447 
Q 2066 3447 2303 3395 
Q 2541 3344 2728 3233 
Q 2916 3122 3042 2950 
Q 3169 2778 3219 2534 
L 2441 2453 
Q 2419 2575 2362 2654 
Q 2306 2734 2223 2781 
Q 2141 2828 2031 2845 
Q 1922 2863 1791 2863 
Q 1478 2863 1322 2783 
Q 1166 2703 1166 2516 
Q 1166 2400 1230 2331 
Q 1294 2263 1411 2217 
Q 1528 2172 1689 2139 
Q 1850 2106 2041 2059 
Q 2275 2009 2501 1942 
Q 2728 1875 2904 1758 
Q 3081 1641 3189 1456 
Q 3297 1272 3297 988 
z
" transform="scale(0.015625)"/>
      <path id="LiberationSans-Bold-75" d="M 1275 3381 
L 1275 1484 
Q 1275 1288 1306 1123 
Q 1338 959 1409 842 
Q 1481 725 1595 659 
Q 1709 594 1875 594 
Q 2034 594 2164 664 
Q 2294 734 2387 864 
Q 2481 994 2532 1173 
Q 2584 1353 2584 1569 
L 2584 3381 
L 3463 3381 
L 3463 756 
Q 3463 650 3464 533 
Q 3466 416 3470 311 
Q 3475 206 3479 123 
Q 3484 41 3488 0 
L 2650 0 
Q 2647 38 2639 120 
Q 2631 203 2626 303 
Q 2622 403 2617 503 
Q 2613 603 2613 672 
L 2597 672 
Q 2422 288 2151 112 
Q 1881 -63 1509 -63 
Q 1206 -63 993 37 
Q 781 138 648 311 
Q 516 484 456 721 
Q 397 959 397 1234 
L 397 3381 
L 1275 3381 
z
" transform="scale(0.015625)"/>
      <path id="LiberationSans-Bold-72" d="M 447 0 
L 447 2588 
Q 447 2697 445 2819 
Q 444 2941 439 3052 
Q 434 3163 431 3252 
Q 428 3341 422 3381 
L 1259 3381 
Q 1266 3344 1272 3251 
Q 1278 3159 1284 3050 
Q 1291 2941 1295 2833 
Q 1300 2725 1300 2659 
L 1313 2659 
Q 1378 2844 1443 2989 
Q 1509 3134 1598 3236 
Q 1688 3338 1813 3392 
Q 1938 3447 2122 3447 
Q 2200 3447 2276 3433 
Q 2353 3419 2394 3400 
L 2394 2666 
Q 2309 2684 2223 2698 
Q 2138 2713 2019 2713 
Q 1691 2713 1508 2447 
Q 1325 2181 1325 1659 
L 1325 0 
L 447 0 
z
" transform="scale(0.015625)"/>
      <path id="LiberationSans-Bold-6d" d="M 2438 0 
L 2438 1897 
Q 2438 2094 2411 2258 
Q 2384 2422 2323 2539 
Q 2263 2656 2164 2722 
Q 2066 2788 1925 2788 
Q 1791 2788 1681 2717 
Q 1572 2647 1492 2517 
Q 1413 2388 1369 2208 
Q 1325 2028 1325 1813 
L 1325 0 
L 447 0 
L 447 2625 
Q 447 2734 445 2850 
Q 444 2966 439 3070 
Q 434 3175 431 3258 
Q 428 3341 422 3381 
L 1259 3381 
Q 1266 3344 1272 3261 
Q 1278 3178 1284 3078 
Q 1291 2978 1295 2878 
Q 1300 2778 1300 2709 
L 1313 2709 
Q 1475 3097 1717 3272 
Q 1959 3447 2297 3447 
Q 2684 3447 2920 3258 
Q 3156 3069 3238 2709 
L 3256 2709 
Q 3347 2919 3451 3059 
Q 3556 3200 3682 3286 
Q 3809 3372 3957 3409 
Q 4106 3447 4281 3447 
Q 4559 3447 4751 3347 
Q 4944 3247 5064 3072 
Q 5184 2897 5239 2659 
Q 5294 2422 5294 2147 
L 5294 0 
L 4422 0 
L 4422 1897 
Q 4422 2094 4395 2258 
Q 4369 2422 4308 2539 
Q 4247 2656 4148 2722 
Q 4050 2788 3909 2788 
Q 3778 2788 3670 2720 
Q 3563 2653 3483 2529 
Q 3403 2406 3359 2234 
Q 3316 2063 3309 1853 
L 3309 0 
L 2438 0 
z
" transform="scale(0.015625)"/>
      <path id="LiberationSans-Bold-6e" d="M 2638 0 
L 2638 1897 
Q 2638 2094 2606 2258 
Q 2575 2422 2503 2539 
Q 2431 2656 2315 2722 
Q 2200 2788 2034 2788 
Q 1875 2788 1745 2717 
Q 1616 2647 1522 2517 
Q 1428 2388 1376 2208 
Q 1325 2028 1325 1813 
L 1325 0 
L 447 0 
L 447 2625 
Q 447 2734 445 2850 
Q 444 2966 439 3070 
Q 434 3175 431 3258 
Q 428 3341 422 3381 
L 1259 3381 
Q 1266 3344 1272 3261 
Q 1278 3178 1284 3078 
Q 1291 2978 1295 2878 
Q 1300 2778 1300 2709 
L 1313 2709 
Q 1491 3097 1759 3272 
Q 2028 3447 2400 3447 
Q 2706 3447 2917 3347 
Q 3128 3247 3261 3072 
Q 3394 2897 3453 2659 
Q 3513 2422 3513 2147 
L 3513 0 
L 2638 0 
z
" transform="scale(0.015625)"/>
      <path id="LiberationSans-Bold-74" d="M 1313 -56 
Q 925 -56 715 155 
Q 506 366 506 794 
L 506 2788 
L 78 2788 
L 78 3381 
L 550 3381 
L 825 4175 
L 1375 4175 
L 1375 3381 
L 2016 3381 
L 2016 2788 
L 1375 2788 
L 1375 1031 
Q 1375 784 1469 667 
Q 1563 550 1759 550 
Q 1841 550 1906 562 
Q 1972 575 2053 594 
L 2053 50 
Q 1891 -3 1709 -29 
Q 1528 -56 1313 -56 
z
" transform="scale(0.015625)"/>
      <path id="LiberationSans-Bold-20" transform="scale(0.015625)"/>
      <path id="LiberationSans-Bold-52" d="M 3453 0 
L 2431 1672 
L 1350 1672 
L 1350 0 
L 428 0 
L 428 4403 
L 2628 4403 
Q 3041 4403 3348 4311 
Q 3656 4219 3862 4048 
Q 4069 3878 4170 3636 
Q 4272 3394 4272 3091 
Q 4272 2844 4198 2639 
Q 4125 2434 3995 2275 
Q 3866 2116 3687 2008 
Q 3509 1900 3300 1850 
L 4491 0 
L 3453 0 
z
M 3344 3053 
Q 3344 3375 3133 3531 
Q 2922 3688 2531 3688 
L 1350 3688 
L 1350 2388 
L 2556 2388 
Q 2763 2388 2911 2436 
Q 3059 2484 3154 2573 
Q 3250 2663 3297 2784 
Q 3344 2906 3344 3053 
z
" transform="scale(0.015625)"/>
      <path id="LiberationSans-Bold-69" d="M 447 3991 
L 447 4638 
L 1325 4638 
L 1325 3991 
L 447 3991 
z
M 447 0 
L 447 3381 
L 1325 3381 
L 1325 0 
L 447 0 
z
" transform="scale(0.015625)"/>
      <path id="LiberationSans-Bold-64" d="M 2638 0 
Q 2631 25 2623 89 
Q 2616 153 2608 234 
Q 2600 316 2595 400 
Q 2591 484 2591 550 
L 2578 550 
Q 2425 222 2151 79 
Q 1878 -63 1497 -63 
Q 1178 -63 945 68 
Q 713 200 561 434 
Q 409 669 336 989 
Q 263 1309 263 1688 
Q 263 2072 339 2394 
Q 416 2716 575 2948 
Q 734 3181 979 3312 
Q 1225 3444 1563 3444 
Q 1728 3444 1881 3409 
Q 2034 3375 2165 3303 
Q 2297 3231 2403 3118 
Q 2509 3006 2584 2847 
L 2591 2847 
Q 2591 2878 2589 2939 
Q 2588 3000 2588 3078 
Q 2588 3156 2586 3240 
Q 2584 3325 2584 3403 
L 2584 4638 
L 3463 4638 
L 3463 738 
Q 3463 491 3472 298 
Q 3481 106 3488 0 
L 2638 0 
z
M 2597 1709 
Q 2597 2044 2534 2264 
Q 2472 2484 2370 2614 
Q 2269 2744 2139 2795 
Q 2009 2847 1875 2847 
Q 1706 2847 1576 2781 
Q 1447 2716 1358 2575 
Q 1269 2434 1223 2215 
Q 1178 1997 1178 1688 
Q 1178 538 1869 538 
Q 2000 538 2131 594 
Q 2263 650 2366 784 
Q 2469 919 2533 1145 
Q 2597 1372 2597 1709 
z
" transform="scale(0.015625)"/>
      <path id="LiberationSans-Bold-6c" d="M 447 0 
L 447 4638 
L 1325 4638 
L 1325 0 
L 447 0 
z
" transform="scale(0.015625)"/>
      <path id="LiberationSans-Bold-3a" d="M 616 2350 
L 616 3231 
L 1516 3231 
L 1516 2350 
L 616 2350 
z
M 616 0 
L 616 878 
L 1516 878 
L 1516 0 
L 616 0 
z
" transform="scale(0.015625)"/>
      <path id="LiberationSans-Bold-45" d="M 428 0 
L 428 4403 
L 3891 4403 
L 3891 3691 
L 1350 3691 
L 1350 2584 
L 3700 2584 
L 3700 1872 
L 1350 1872 
L 1350 713 
L 4019 713 
L 4019 0 
L 428 0 
z
" transform="scale(0.015625)"/>
      <path id="LiberationSans-Bold-4b" d="M 3475 0 
L 1894 2022 
L 1350 1606 
L 1350 0 
L 428 0 
L 428 4403 
L 1350 4403 
L 1350 2406 
L 3334 4403 
L 4409 4403 
L 2528 2541 
L 4563 0 
L 3475 0 
z
" transform="scale(0.015625)"/>
      <path id="LiberationSans-Bold-46" d="M 1350 3691 
L 1350 2328 
L 3603 2328 
L 3603 1616 
L 1350 1616 
L 1350 0 
L 428 0 
L 428 4403 
L 3675 4403 
L 3675 3691 
L 1350 3691 
z
" transform="scale(0.015625)"/>
      <path id="LiberationSans-Bold-76" d="M 1766 709 
L 2613 3381 
L 3531 3381 
L 2284 0 
L 1234 0 
L 25 3381 
L 953 3381 
L 1766 709 
z
" transform="scale(0.015625)"/>
      <path id="LiberationSans-Bold-55" d="M 2259 -63 
Q 1847 -63 1503 35 
Q 1159 134 911 342 
Q 663 550 523 875 
Q 384 1200 384 1650 
L 384 4403 
L 1306 4403 
L 1306 1722 
Q 1306 1444 1375 1242 
Q 1444 1041 1572 911 
Q 1700 781 1881 720 
Q 2063 659 2284 659 
Q 2509 659 2698 723 
Q 2888 788 3023 922 
Q 3159 1056 3234 1262 
Q 3309 1469 3309 1753 
L 3309 4403 
L 4231 4403 
L 4231 1697 
Q 4231 1244 4084 912 
Q 3938 581 3675 364 
Q 3413 147 3052 42 
Q 2691 -63 2259 -63 
z
" transform="scale(0.015625)"/>
     </defs>
     <use xlink:href="#LiberationSans-Bold-4d"/>
     <use xlink:href="#LiberationSans-Bold-65" transform="translate(83.300781 0)"/>
     <use xlink:href="#LiberationSans-Bold-61" transform="translate(138.916016 0)"/>
     <use xlink:href="#LiberationSans-Bold-73" transform="translate(194.53125 0)"/>
     <use xlink:href="#LiberationSans-Bold-75" transform="translate(250.146484 0)"/>
     <use xlink:href="#LiberationSans-Bold-72" transform="translate(311.230469 0)"/>
     <use xlink:href="#LiberationSans-Bold-65" transform="translate(350.146484 0)"/>
     <use xlink:href="#LiberationSans-Bold-6d" transform="translate(405.761719 0)"/>
     <use xlink:href="#LiberationSans-Bold-65" transform="translate(494.677734 0)"/>
     <use xlink:href="#LiberationSans-Bold-6e" transform="translate(550.292969 0)"/>
     <use xlink:href="#LiberationSans-Bold-74" transform="translate(611.376953 0)"/>
     <use xlink:href="#LiberationSans-Bold-20" transform="translate(644.677734 0)"/>
     <use xlink:href="#LiberationSans-Bold-52" transform="translate(672.460938 0)"/>
     <use xlink:href="#LiberationSans-Bold-65" transform="translate(744.677734 0)"/>
     <use xlink:href="#LiberationSans-Bold-73" transform="translate(800.292969 0)"/>
     <use xlink:href="#LiberationSans-Bold-69" transform="translate(855.908203 0)"/>
     <use xlink:href="#LiberationSans-Bold-64" transform="translate(883.691406 0)"/>
     <use xlink:href="#LiberationSans-Bold-75" transform="translate(944.775391 0)"/>
     <use xlink:href="#LiberationSans-Bold-61" transform="translate(1005.859375 0)"/>
     <use xlink:href="#LiberationSans-Bold-6c" transform="translate(1061.474609 0)"/>
     <use xlink:href="#LiberationSans-Bold-73" transform="translate(1089.257812 0)"/>
     <use xlink:href="#LiberationSans-Bold-3a" transform="translate(1144.873047 0)"/>
     <use xlink:href="#LiberationSans-Bold-20" transform="translate(1178.173828 0)"/>
     <use xlink:href="#LiberationSans-Bold-45" transform="translate(1205.957031 0)"/>
     <use xlink:href="#LiberationSans-Bold-4b" transform="translate(1272.65625 0)"/>
     <use xlink:href="#LiberationSans-Bold-46" transform="translate(1344.873047 0)"/>
     <use xlink:href="#LiberationSans-Bold-20" transform="translate(1405.957031 0)"/>
     <use xlink:href="#LiberationSans-Bold-76" transform="translate(1433.740234 0)"/>
     <use xlink:href="#LiberationSans-Bold-73" transform="translate(1489.355469 0)"/>
     <use xlink:href="#LiberationSans-Bold-20" transform="translate(1544.970703 0)"/>
     <use xlink:href="#LiberationSans-Bold-55" transform="translate(1572.753906 0)"/>
     <use xlink:href="#LiberationSans-Bold-4b" transform="translate(1644.970703 0)"/>
     <use xlink:href="#LiberationSans-Bold-46" transform="translate(1717.1875 0)"/>
    </g>
   </g>
   <g id="legend_1">
    <g id="patch_7">
     <path d="M 708.382656 95.382187 
L 847.5 95.382187 
Q 849.7 95.382187 849.7 93.182187 
L 849.7 47.02 
Q 849.7 44.82 847.5 44.82 
L 708.382656 44.82 
Q 706.182656 44.82 706.182656 47.02 
L 706.182656 93.182187 
Q 706.182656 95.382187 708.382656 95.382187 
z
" style="fill: #4d4d4d; opacity: 0.5; stroke: #4d4d4d; stroke-linejoin: miter"/>
    </g>
    <g id="patch_8">
     <path d="M 706.382656 93.382187 
L 845.5 93.382187 
Q 847.7 93.382187 847.7 91.182187 
L 847.7 45.02 
Q 847.7 42.82 845.5 42.82 
L 706.382656 42.82 
Q 704.182656 42.82 704.182656 45.02 
L 704.182656 91.182187 
Q 704.182656 93.382187 706.382656 93.382187 
z
" style="fill: #ffffff; stroke: #cccccc; stroke-linejoin: miter"/>
    </g>
    <g id="line2d_36">
     <path d="M 708.582656 51.341562 
L 719.582656 51.341562 
L 730.582656 51.341562 
" style="fill: none; stroke: #000000; stroke-width: 1.5; stroke-linecap: round"/>
    </g>
    <g id="text_20">
     <!-- Zero Error Reference -->
     <g style="fill: #262626" transform="translate(739.382656 55.191562) scale(0.11 -0.11)">
      <defs>
       <path id="LiberationSans-5a" d="M 3709 0 
L 203 0 
L 203 447 
L 2884 3916 
L 431 3916 
L 431 4403 
L 3563 4403 
L 3563 3969 
L 881 488 
L 3709 488 
L 3709 0 
z
" transform="scale(0.015625)"/>
       <path id="LiberationSans-66" d="M 1128 2972 
L 1128 0 
L 566 0 
L 566 2972 
L 91 2972 
L 91 3381 
L 566 3381 
L 566 3763 
Q 566 4225 769 4428 
Q 972 4631 1391 4631 
Q 1625 4631 1788 4594 
L 1788 4166 
Q 1647 4191 1538 4191 
Q 1322 4191 1225 4081 
Q 1128 3972 1128 3684 
L 1128 3381 
L 1788 3381 
L 1788 2972 
L 1128 2972 
z
" transform="scale(0.015625)"/>
      </defs>
      <use xlink:href="#LiberationSans-5a"/>
      <use xlink:href="#LiberationSans-65" transform="translate(61.083984 0)"/>
      <use xlink:href="#LiberationSans-72" transform="translate(116.699219 0)"/>
      <use xlink:href="#LiberationSans-6f" transform="translate(150 0)"/>
      <use xlink:href="#LiberationSans-20" transform="translate(205.615234 0)"/>
      <use xlink:href="#LiberationSans-45" transform="translate(233.398438 0)"/>
      <use xlink:href="#LiberationSans-72" transform="translate(300.097656 0)"/>
      <use xlink:href="#LiberationSans-72" transform="translate(333.398438 0)"/>
      <use xlink:href="#LiberationSans-6f" transform="translate(366.699219 0)"/>
      <use xlink:href="#LiberationSans-72" transform="translate(422.314453 0)"/>
      <use xlink:href="#LiberationSans-20" transform="translate(455.615234 0)"/>
      <use xlink:href="#LiberationSans-52" transform="translate(483.398438 0)"/>
      <use xlink:href="#LiberationSans-65" transform="translate(555.615234 0)"/>
      <use xlink:href="#LiberationSans-66" transform="translate(611.230469 0)"/>
      <use xlink:href="#LiberationSans-65" transform="translate(639.013672 0)"/>
      <use xlink:href="#LiberationSans-72" transform="translate(694.628906 0)"/>
      <use xlink:href="#LiberationSans-65" transform="translate(727.929688 0)"/>
      <use xlink:href="#LiberationSans-6e" transform="translate(783.544922 0)"/>
      <use xlink:href="#LiberationSans-63" transform="translate(839.160156 0)"/>
      <use xlink:href="#LiberationSans-65" transform="translate(889.160156 0)"/>
     </g>
    </g>
    <g id="line2d_37">
     <path d="M 708.582656 67.095625 
L 719.582656 67.095625 
L 730.582656 67.095625 
" style="fill: none; stroke: #1f77b4; stroke-opacity: 0.8; stroke-width: 2; stroke-linecap: round"/>
    </g>
    <g id="text_21">
     <!-- EKF Residuals -->
     <g style="fill: #262626" transform="translate(739.382656 70.945625) scale(0.11 -0.11)">
      <defs>
       <path id="LiberationSans-4b" d="M 3456 0 
L 1697 2125 
L 1122 1688 
L 1122 0 
L 525 0 
L 525 4403 
L 1122 4403 
L 1122 2197 
L 3244 4403 
L 3947 4403 
L 2072 2491 
L 4197 0 
L 3456 0 
z
" transform="scale(0.015625)"/>
       <path id="LiberationSans-46" d="M 1122 3916 
L 1122 2278 
L 3578 2278 
L 3578 1784 
L 1122 1784 
L 1122 0 
L 525 0 
L 525 4403 
L 3653 4403 
L 3653 3916 
L 1122 3916 
z
" transform="scale(0.015625)"/>
      </defs>
      <use xlink:href="#LiberationSans-45"/>
      <use xlink:href="#LiberationSans-4b" transform="translate(66.699219 0)"/>
      <use xlink:href="#LiberationSans-46" transform="translate(133.398438 0)"/>
      <use xlink:href="#LiberationSans-20" transform="translate(194.482422 0)"/>
      <use xlink:href="#LiberationSans-52" transform="translate(222.265625 0)"/>
      <use xlink:href="#LiberationSans-65" transform="translate(294.482422 0)"/>
      <use xlink:href="#LiberationSans-73" transform="translate(350.097656 0)"/>
      <use xlink:href="#LiberationSans-69" transform="translate(400.097656 0)"/>
      <use xlink:href="#LiberationSans-64" transform="translate(422.314453 0)"/>
      <use xlink:href="#LiberationSans-75" transform="translate(477.929688 0)"/>
      <use xlink:href="#LiberationSans-61" transform="translate(533.544922 0)"/>
      <use xlink:href="#LiberationSans-6c" transform="translate(589.160156 0)"/>
      <use xlink:href="#LiberationSans-73" transform="translate(611.376953 0)"/>
     </g>
    </g>
    <g id="line2d_38">
     <path d="M 708.582656 82.849687 
L 719.582656 82.849687 
L 730.582656 82.849687 
" style="fill: none; stroke: #ff7f0e; stroke-opacity: 0.8; stroke-width: 2; stroke-linecap: round"/>
    </g>
    <g id="text_22">
     <!-- UKF Residuals -->
     <g style="fill: #262626" transform="translate(739.382656 86.699687) scale(0.11 -0.11)">
      <defs>
       <path id="LiberationSans-55" d="M 2284 -63 
Q 1744 -63 1341 134 
Q 938 331 716 706 
Q 494 1081 494 1600 
L 494 4403 
L 1091 4403 
L 1091 1650 
Q 1091 1047 1397 734 
Q 1703 422 2281 422 
Q 2875 422 3204 745 
Q 3534 1069 3534 1691 
L 3534 4403 
L 4128 4403 
L 4128 1656 
Q 4128 1122 3901 734 
Q 3675 347 3261 142 
Q 2847 -63 2284 -63 
z
" transform="scale(0.015625)"/>
      </defs>
      <use xlink:href="#LiberationSans-55"/>
      <use xlink:href="#LiberationSans-4b" transform="translate(72.216797 0)"/>
      <use xlink:href="#LiberationSans-46" transform="translate(138.916016 0)"/>
      <use xlink:href="#LiberationSans-20" transform="translate(200 0)"/>
      <use xlink:href="#LiberationSans-52" transform="translate(227.783203 0)"/>
      <use xlink:href="#LiberationSans-65" transform="translate(300 0)"/>
      <use xlink:href="#LiberationSans-73" transform="translate(355.615234 0)"/>
      <use xlink:href="#LiberationSans-69" transform="translate(405.615234 0)"/>
      <use xlink:href="#LiberationSans-64" transform="translate(427.832031 0)"/>
      <use xlink:href="#LiberationSans-75" transform="translate(483.447266 0)"/>
      <use xlink:href="#LiberationSans-61" transform="translate(539.0625 0)"/>
      <use xlink:href="#LiberationSans-6c" transform="translate(594.677734 0)"/>
      <use xlink:href="#LiberationSans-73" transform="translate(616.894531 0)"/>
     </g>
    </g>
   </g>
  </g>
 </g>
 <defs>
  <clipPath id="pee67a9c0f3">
   <rect x="43.05" y="37.32" width="810.15" height="211.5"/>
  </clipPath>
 </defs>
</svg>
